<?xml version="1.0" encoding="UTF-8"?>
<!DOCTYPE svg PUBLIC "-//W3C//DTD SVG 1.1//EN" "http://www.w3.org/Graphics/SVG/1.1/DTD/svg11.dtd">
<svg xmlns="http://www.w3.org/2000/svg" version="1.1" width="935px" height="739px" style="shape-rendering:geometricPrecision; text-rendering:geometricPrecision; image-rendering:optimizeQuality; fill-rule:evenodd; clip-rule:evenodd" xmlns:xlink="http://www.w3.org/1999/xlink">
<g><path style="opacity:1" fill="#f3f3f3" d="M -0.5,-0.5 C 1.16667,-0.5 2.83333,-0.5 4.5,-0.5C 4.5,245.833 4.5,492.167 4.5,738.5C 2.83333,738.5 1.16667,738.5 -0.5,738.5C -0.5,492.167 -0.5,245.833 -0.5,-0.5 Z"/></g>
<g><path style="opacity:1" fill="#f7fbfe" d="M 4.5,-0.5 C 314.5,-0.5 624.5,-0.5 934.5,-0.5C 934.5,245.833 934.5,492.167 934.5,738.5C 624.5,738.5 314.5,738.5 4.5,738.5C 4.5,492.167 4.5,245.833 4.5,-0.5 Z"/></g>
<g><path style="opacity:1" fill="#ea7047" d="M 386.5,172.5 C 387.911,174.914 389.911,176.581 392.5,177.5C 407.485,192.137 420.151,208.47 430.5,226.5C 430.328,227.492 430.662,228.158 431.5,228.5C 432.806,229.467 433.473,230.801 433.5,232.5C 426.159,232.334 418.826,232.5 411.5,233C 404.405,235.047 397.405,237.38 390.5,240C 387.019,242.053 384.019,244.553 381.5,247.5C 381.54,244.575 380.707,241.909 379,239.5C 368.922,223.421 356.089,209.921 340.5,199C 333.724,194.279 326.391,190.612 318.5,188C 315.404,185.971 313.738,183.138 313.5,179.5C 313.081,175.227 313.748,171.227 315.5,167.5C 318.543,161.923 322.21,156.757 326.5,152C 329.207,150.943 332.04,150.443 335,150.5C 346.633,151.285 357.466,154.451 367.5,160C 374.204,163.68 380.538,167.847 386.5,172.5 Z"/></g>
<g><path style="opacity:1" fill="#dae5fd" d="M 497.5,218.5 C 494.833,218.5 492.167,218.5 489.5,218.5C 490.98,199.447 498.646,183.281 512.5,170C 519.736,165.759 525.403,167.259 529.5,174.5C 527.333,177.5 525.167,180.5 523,183.5C 511.502,193.138 503.002,204.805 497.5,218.5 Z"/></g>
<g><path style="opacity:1" fill="#f2c5b6" d="M 386.5,172.5 C 389.089,173.419 391.089,175.086 392.5,177.5C 389.911,176.581 387.911,174.914 386.5,172.5 Z"/></g>
<g><path style="opacity:1" fill="#ef9e83" d="M 315.5,167.5 C 313.748,171.227 313.081,175.227 313.5,179.5C 312.007,178.688 311.34,177.355 311.5,175.5C 311.52,172.065 312.854,169.398 315.5,167.5 Z"/></g>
<g><path style="opacity:1" fill="#d9e5fd" d="M 517.5,223.5 C 517.167,223.5 516.833,223.5 516.5,223.5C 514.565,222.19 512.565,220.857 510.5,219.5C 520.392,197.434 536.892,183.1 560,176.5C 569.05,177.698 572.884,182.698 571.5,191.5C 569.599,192.545 567.933,193.878 566.5,195.5C 549.383,200.884 534.717,210.051 522.5,223C 520.866,223.494 519.199,223.66 517.5,223.5 Z"/></g>
<g><path style="opacity:1" fill="#ea7148" d="M 655.5,191.5 C 655.5,195.167 655.5,198.833 655.5,202.5C 654.11,203.899 653.11,205.566 652.5,207.5C 650.033,207.755 648.033,208.755 646.5,210.5C 640.063,213.22 634.063,216.72 628.5,221C 613.17,234.811 601.17,250.978 592.5,269.5C 588.512,267.034 584.845,263.868 581.5,260C 577.217,257.385 573.217,254.385 569.5,251C 566.833,250 564.167,249 561.5,248C 559.344,245.712 559.01,243.212 560.5,240.5C 573.545,215.622 592.212,196.122 616.5,182C 624.833,178.44 633.5,176.774 642.5,177C 645.215,177.878 647.549,179.378 649.5,181.5C 651.511,184.861 653.511,188.194 655.5,191.5 Z"/></g>
<g><path style="opacity:1" fill="#ed9375" d="M 655.5,191.5 C 658.167,195.167 658.167,198.833 655.5,202.5C 655.5,198.833 655.5,195.167 655.5,191.5 Z"/></g>
<g><path style="opacity:1" fill="#f2c2b3" d="M 652.5,207.5 C 650.967,209.245 648.967,210.245 646.5,210.5C 648.033,208.755 650.033,207.755 652.5,207.5 Z"/></g>
<g><path style="opacity:1" fill="#faad89" d="M 489.5,218.5 C 492.167,218.5 494.833,218.5 497.5,218.5C 497.5,218.833 497.5,219.167 497.5,219.5C 483.448,219.289 469.448,219.955 455.5,221.5C 466.552,218.975 477.885,217.975 489.5,218.5 Z"/></g>
<g><path style="opacity:1" fill="#fe8c5b" d="M 497.5,219.5 C 503.867,220.621 510.2,221.954 516.5,223.5C 516.833,223.5 517.167,223.5 517.5,223.5C 519.214,224.738 521.214,225.405 523.5,225.5C 524.853,227.738 526.853,229.071 529.5,229.5C 532.932,231.752 536.266,234.252 539.5,237C 541.439,238.432 542.772,240.265 543.5,242.5C 521.986,239.918 500.653,241.585 479.5,247.5C 478.583,246.873 477.583,246.539 476.5,246.5C 468.609,243.254 460.609,240.088 452.5,237C 446.639,235.213 440.639,234.213 434.5,234C 433.944,233.617 433.611,233.117 433.5,232.5C 433.473,230.801 432.806,229.467 431.5,228.5C 434.228,228.829 436.562,228.163 438.5,226.5C 443.901,223.81 449.567,222.143 455.5,221.5C 469.448,219.955 483.448,219.289 497.5,219.5 Z"/></g>
<g><path style="opacity:1" fill="#f9ceb9" d="M 523.5,225.5 C 525.966,226.298 527.966,227.631 529.5,229.5C 526.853,229.071 524.853,227.738 523.5,225.5 Z"/></g>
<g><path style="opacity:1" fill="#f7bfa9" d="M 430.5,226.5 C 433.068,227.232 435.734,227.232 438.5,226.5C 436.562,228.163 434.228,228.829 431.5,228.5C 430.662,228.158 430.328,227.492 430.5,226.5 Z"/></g>
<g><path style="opacity:1" fill="#ea642f" d="M 433.5,232.5 C 433.611,233.117 433.944,233.617 434.5,234C 440.639,234.213 446.639,235.213 452.5,237C 460.609,240.088 468.609,243.254 476.5,246.5C 476.611,247.117 476.944,247.617 477.5,248C 470.133,249.54 462.8,251.207 455.5,253C 451.371,255.136 447.871,257.969 445,261.5C 445.477,274.512 446.477,287.512 448,300.5C 454.39,303.594 460.89,306.427 467.5,309C 480.877,311.268 494.21,313.768 507.5,316.5C 517.958,321.125 525.625,328.625 530.5,339C 530.389,340.722 529.889,340.888 529,339.5C 524.285,331.22 517.452,325.387 508.5,322C 497.246,320.2 485.912,319.033 474.5,318.5C 466.394,316.474 458.394,314.141 450.5,311.5C 449.484,337.593 454.651,362.259 466,385.5C 478.019,398.879 485.019,414.546 487,432.5C 478.601,417.412 468.935,403.079 458,389.5C 456.254,385.673 454.254,382.007 452,378.5C 445.9,400.699 435.567,420.699 421,438.5C 426.685,426.127 432.685,413.794 439,401.5C 443.211,390.283 445.711,378.616 446.5,366.5C 442.201,345.068 439.368,323.402 438,301.5C 436.677,296.847 435.344,292.181 434,287.5C 431.177,282.491 427.011,278.991 421.5,277C 413.017,275.989 404.684,276.656 396.5,279C 388.323,286.011 380.656,293.511 373.5,301.5C 368.47,306.016 362.804,309.516 356.5,312C 347.793,314.006 344.793,310.839 347.5,302.5C 348.429,299.325 349.262,295.991 350,292.5C 353.112,284.278 357.278,276.611 362.5,269.5C 366.715,260.289 373.048,252.956 381.5,247.5C 384.019,244.553 387.019,242.053 390.5,240C 397.405,237.38 404.405,235.047 411.5,233C 418.826,232.5 426.159,232.334 433.5,232.5 Z"/></g>
<g><path style="opacity:1" fill="#f78349" d="M 753.5,273.5 C 750.167,273.5 746.833,273.5 743.5,273.5C 740.777,253.358 738.111,253.525 735.5,274C 734.566,277.154 733.899,276.988 733.5,273.5C 729.818,273.335 726.152,273.501 722.5,274C 721.91,275.509 721.244,277.009 720.5,278.5C 718.504,272.836 716.671,267.169 715,261.5C 713.261,265.311 712.428,269.311 712.5,273.5C 709.5,273.5 706.5,273.5 703.5,273.5C 703.313,275.564 702.813,277.564 702,279.5C 700.98,273.685 699.647,268.018 698,262.5C 696.326,266.021 695.16,269.687 694.5,273.5C 690.833,273.5 687.167,273.5 683.5,273.5C 683.688,275.103 683.188,276.437 682,277.5C 681.667,276.833 681.333,276.167 681,275.5C 679.971,270.464 678.805,265.464 677.5,260.5C 675.546,264.98 674.213,269.646 673.5,274.5C 668.728,273.603 666.395,275.603 666.5,280.5C 665.239,272.743 663.572,265.077 661.5,257.5C 659.221,263.284 658.221,269.284 658.5,275.5C 655.167,275.5 651.833,275.5 648.5,275.5C 646.067,271.808 645.067,267.641 645.5,263C 645.117,258.147 646.117,253.647 648.5,249.5C 649.906,249.027 650.573,248.027 650.5,246.5C 658.019,236.38 668.019,232.88 680.5,236C 688.221,239.731 694.721,244.897 700,251.5C 703.767,247.733 707.6,243.9 711.5,240C 728.644,231.077 742.477,234.577 753,250.5C 756.081,258.129 756.248,265.795 753.5,273.5 Z"/></g>
<g><path style="opacity:1" fill="#ea7148" d="M 355.5,263.5 C 356.585,265.587 358.251,266.92 360.5,267.5C 360.833,268.5 361.5,269.167 362.5,269.5C 357.278,276.611 353.112,284.278 350,292.5C 349.262,295.991 348.429,299.325 347.5,302.5C 347.719,301.325 347.386,300.325 346.5,299.5C 330.626,291.292 317.96,279.626 308.5,264.5C 306.429,259.604 306.096,254.604 307.5,249.5C 308.625,247.871 309.959,246.371 311.5,245C 314.845,243.994 317.845,242.494 320.5,240.5C 323.784,239.343 327.118,239.176 330.5,240C 338.401,248.404 346.734,256.238 355.5,263.5 Z"/></g>
<g><path style="opacity:1" fill="#f68247" d="M 543.5,242.5 C 548.438,243.699 553.438,244.699 558.5,245.5C 558.12,243.302 558.787,241.635 560.5,240.5C 559.01,243.212 559.344,245.712 561.5,248C 564.167,249 566.833,250 569.5,251C 573.217,254.385 577.217,257.385 581.5,260C 584.845,263.868 588.512,267.034 592.5,269.5C 592.343,270.873 592.51,272.207 593,273.5C 599.913,282.904 604.913,293.238 608,304.5C 608.586,307.019 609.753,309.019 611.5,310.5C 611.704,313.518 612.037,316.518 612.5,319.5C 611.788,318.261 610.788,317.761 609.5,318C 599.57,329.023 592.07,341.523 587,355.5C 583.522,360.279 579.689,364.779 575.5,369C 572.167,369.667 568.833,369.667 565.5,369C 555.009,366.664 544.509,364.497 534,362.5C 525.514,362.77 518.348,365.936 512.5,372C 515.966,370.934 519.299,369.267 522.5,367C 532.97,364.295 542.637,365.962 551.5,372C 557.456,373.691 563.456,375.191 569.5,376.5C 564.383,382.778 559.883,389.445 556,396.5C 548.17,403.334 539.336,408.5 529.5,412C 521.821,414.5 514.155,416.833 506.5,419C 510.869,419.425 515.203,419.092 519.5,418C 529.818,415.665 539.818,412.498 549.5,408.5C 548.456,423.301 545.123,437.467 539.5,451C 540.332,451.688 540.998,451.521 541.5,450.5C 543.31,444.884 546.144,439.884 550,435.5C 553.244,415.349 561.578,397.682 575,382.5C 584.709,371.794 594.042,360.794 603,349.5C 605.07,344.034 608.57,339.701 613.5,336.5C 614.386,335.675 614.719,334.675 614.5,333.5C 614.833,333.5 615.167,333.5 615.5,333.5C 616.296,349.153 616.629,364.82 616.5,380.5C 616.5,381.833 616.5,383.167 616.5,384.5C 615.328,396.043 613.995,407.709 612.5,419.5C 612.086,423.657 611.086,427.657 609.5,431.5C 608.598,427.242 607.598,422.909 606.5,418.5C 606.5,416.833 606.5,415.167 606.5,413.5C 596.894,415.753 587.228,417.92 577.5,420C 576.663,421.011 576.33,422.178 576.5,423.5C 577.791,423.263 578.791,423.596 579.5,424.5C 583.407,442.315 587.907,459.982 593,477.5C 594.321,481.204 594.487,484.871 593.5,488.5C 592.89,489.391 592.557,490.391 592.5,491.5C 590.755,493.033 589.755,495.033 589.5,497.5C 587.824,501.587 586.158,505.587 584.5,509.5C 583.662,509.842 583.328,510.508 583.5,511.5C 582.506,502.014 582.173,492.348 582.5,482.5C 583.625,481.348 583.625,480.348 582.5,479.5C 572.681,478.506 562.681,478.173 552.5,478.5C 552.263,479.791 552.596,480.791 553.5,481.5C 555.161,507.986 554.828,534.32 552.5,560.5C 549.5,564.167 546.167,567.5 542.5,570.5C 541.5,570.5 540.5,570.5 539.5,570.5C 539.175,540.456 539.508,510.456 540.5,480.5C 530.167,479.167 519.833,479.167 509.5,480.5C 509.808,481.308 510.308,481.975 511,482.5C 511.5,511.831 511.667,541.165 511.5,570.5C 507.629,570.185 503.962,570.518 500.5,571.5C 499.514,575.97 499.181,580.637 499.5,585.5C 491.493,585.666 483.493,585.5 475.5,585C 469.579,582.471 463.579,580.137 457.5,578C 456.522,571.59 456.189,565.09 456.5,558.5C 467.104,562.953 478.104,564.286 489.5,562.5C 497.472,556.088 497.472,549.588 489.5,543C 483.257,540.878 477.257,538.212 471.5,535C 466.652,530.652 461.652,526.485 456.5,522.5C 456.829,508.323 456.496,494.323 455.5,480.5C 455.5,479.833 455.5,479.167 455.5,478.5C 456.117,478.389 456.617,478.056 457,477.5C 457.793,473.577 457.626,469.744 456.5,466C 436.833,465.333 417.167,465.333 397.5,466C 396.179,469.934 396.179,473.767 397.5,477.5C 397.5,478.167 397.833,478.5 398.5,478.5C 398.5,479.5 398.5,480.5 398.5,481.5C 397.833,495.5 397.167,509.5 396.5,523.5C 392.487,517.463 388.487,511.463 384.5,505.5C 375.953,489.74 367.953,473.74 360.5,457.5C 365.264,449.712 368.764,441.379 371,432.5C 373.896,413.607 375.063,394.607 374.5,375.5C 376.415,375.784 378.081,375.451 379.5,374.5C 389.615,372.052 395.615,365.718 397.5,355.5C 398.645,351.689 398.812,347.689 398,343.5C 397.392,341.934 396.558,340.6 395.5,339.5C 387.432,327.226 376.432,323.726 362.5,329C 349.769,337.023 346.435,347.857 352.5,361.5C 351.398,362.176 350.398,362.842 349.5,363.5C 347.167,363.5 344.833,363.5 342.5,363.5C 340.532,355.567 339.865,347.234 340.5,338.5C 340.5,336.833 340.5,335.167 340.5,333.5C 340.857,327.359 341.857,321.359 343.5,315.5C 344.924,313.485 345.59,311.152 345.5,308.5C 345.595,306.214 346.262,304.214 347.5,302.5C 344.793,310.839 347.793,314.006 356.5,312C 362.804,309.516 368.47,306.016 373.5,301.5C 380.656,293.511 388.323,286.011 396.5,279C 404.684,276.656 413.017,275.989 421.5,277C 427.011,278.991 431.177,282.491 434,287.5C 435.344,292.181 436.677,296.847 438,301.5C 439.368,323.402 442.201,345.068 446.5,366.5C 445.711,378.616 443.211,390.283 439,401.5C 432.685,413.794 426.685,426.127 421,438.5C 435.567,420.699 445.9,400.699 452,378.5C 454.254,382.007 456.254,385.673 458,389.5C 468.935,403.079 478.601,417.412 487,432.5C 485.019,414.546 478.019,398.879 466,385.5C 454.651,362.259 449.484,337.593 450.5,311.5C 458.394,314.141 466.394,316.474 474.5,318.5C 485.912,319.033 497.246,320.2 508.5,322C 517.452,325.387 524.285,331.22 529,339.5C 529.889,340.888 530.389,340.722 530.5,339C 525.625,328.625 517.958,321.125 507.5,316.5C 494.21,313.768 480.877,311.268 467.5,309C 460.89,306.427 454.39,303.594 448,300.5C 446.477,287.512 445.477,274.512 445,261.5C 447.871,257.969 451.371,255.136 455.5,253C 462.8,251.207 470.133,249.54 477.5,248C 476.944,247.617 476.611,247.117 476.5,246.5C 477.583,246.539 478.583,246.873 479.5,247.5C 500.653,241.585 521.986,239.918 543.5,242.5 Z"/></g>
<g><path style="opacity:1" fill="#f6b999" d="M 650.5,246.5 C 650.573,248.027 649.906,249.027 648.5,249.5C 648.427,247.973 649.094,246.973 650.5,246.5 Z"/></g>
<g><path style="opacity:1" fill="#f0a890" d="M 307.5,249.5 C 306.096,254.604 306.429,259.604 308.5,264.5C 306.14,262.089 305.14,259.089 305.5,255.5C 305.667,253.833 305.833,252.167 306,250.5C 306.383,249.944 306.883,249.611 307.5,249.5 Z"/></g>
<g><path style="opacity:1" fill="#fe9769" d="M 530.5,256.5 C 547.933,253.471 562.433,258.471 574,271.5C 579.313,276.793 583.646,282.793 587,289.5C 588.175,294.828 586.008,297.161 580.5,296.5C 577.741,296.458 575.075,295.958 572.5,295C 561.879,290.023 551.879,284.023 542.5,277C 537.681,276.476 533.014,275.476 528.5,274C 523.581,271.259 521.748,267.092 523,261.5C 525.273,259.372 527.773,257.705 530.5,256.5 Z"/></g>
<g><path style="opacity:1" fill="#f2c5b7" d="M 355.5,263.5 C 357.749,264.08 359.415,265.413 360.5,267.5C 358.251,266.92 356.585,265.587 355.5,263.5 Z"/></g>
<g><path style="opacity:1" fill="#fcdac7" d="M 753.5,273.5 C 752.815,275.414 752.315,277.414 752,279.5C 751.329,280.252 750.496,280.586 749.5,280.5C 750.942,279.18 751.608,277.514 751.5,275.5C 748.5,275.5 745.5,275.5 742.5,275.5C 742.135,272.375 741.302,269.375 740,266.5C 737.801,273.431 735.801,280.431 734,287.5C 732.423,283.717 731.589,279.717 731.5,275.5C 728.833,275.5 726.167,275.5 723.5,275.5C 722.969,279.291 721.969,282.957 720.5,286.5C 718.692,281.999 717.192,277.332 716,272.5C 713.084,274.995 709.584,276.162 705.5,276C 703.365,280.579 702.365,285.413 702.5,290.5C 701.5,290.5 700.5,290.5 699.5,290.5C 699.32,284.088 698.487,277.754 697,271.5C 696.691,272.766 696.191,273.933 695.5,275C 691.911,275.207 688.411,275.707 685,276.5C 684.545,281.032 683.378,285.365 681.5,289.5C 679.676,283.502 678.176,277.502 677,271.5C 676.727,273.101 676.227,274.601 675.5,276C 673.744,276.202 672.078,276.702 670.5,277.5C 669.309,281.986 667.809,286.319 666,290.5C 664.809,283.096 663.309,275.763 661.5,268.5C 660.068,271.327 659.401,274.327 659.5,277.5C 655.988,276.945 652.988,277.612 650.5,279.5C 648.824,278.817 648.157,277.483 648.5,275.5C 651.833,275.5 655.167,275.5 658.5,275.5C 658.221,269.284 659.221,263.284 661.5,257.5C 663.572,265.077 665.239,272.743 666.5,280.5C 666.395,275.603 668.728,273.603 673.5,274.5C 674.213,269.646 675.546,264.98 677.5,260.5C 678.805,265.464 679.971,270.464 681,275.5C 681.333,276.167 681.667,276.833 682,277.5C 683.188,276.437 683.688,275.103 683.5,273.5C 687.167,273.5 690.833,273.5 694.5,273.5C 695.16,269.687 696.326,266.021 698,262.5C 699.647,268.018 700.98,273.685 702,279.5C 702.813,277.564 703.313,275.564 703.5,273.5C 706.5,273.5 709.5,273.5 712.5,273.5C 712.428,269.311 713.261,265.311 715,261.5C 716.671,267.169 718.504,272.836 720.5,278.5C 721.244,277.009 721.91,275.509 722.5,274C 726.152,273.501 729.818,273.335 733.5,273.5C 733.899,276.988 734.566,277.154 735.5,274C 738.111,253.525 740.777,253.358 743.5,273.5C 746.833,273.5 750.167,273.5 753.5,273.5 Z"/></g>
<g><path style="opacity:1" fill="#f7844a" d="M 749.5,280.5 C 747.196,283.141 744.862,285.808 742.5,288.5C 740.413,289.585 739.08,291.251 738.5,293.5C 725.822,304.678 712.989,315.678 700,326.5C 681.749,312.75 665.249,297.084 650.5,279.5C 652.988,277.612 655.988,276.945 659.5,277.5C 659.401,274.327 660.068,271.327 661.5,268.5C 663.309,275.763 664.809,283.096 666,290.5C 667.809,286.319 669.309,281.986 670.5,277.5C 672.078,276.702 673.744,276.202 675.5,276C 676.227,274.601 676.727,273.101 677,271.5C 678.176,277.502 679.676,283.502 681.5,289.5C 683.378,285.365 684.545,281.032 685,276.5C 688.411,275.707 691.911,275.207 695.5,275C 696.191,273.933 696.691,272.766 697,271.5C 698.487,277.754 699.32,284.088 699.5,290.5C 700.5,290.5 701.5,290.5 702.5,290.5C 702.365,285.413 703.365,280.579 705.5,276C 709.584,276.162 713.084,274.995 716,272.5C 717.192,277.332 718.692,281.999 720.5,286.5C 721.969,282.957 722.969,279.291 723.5,275.5C 726.167,275.5 728.833,275.5 731.5,275.5C 731.589,279.717 732.423,283.717 734,287.5C 735.801,280.431 737.801,273.431 740,266.5C 741.302,269.375 742.135,272.375 742.5,275.5C 745.5,275.5 748.5,275.5 751.5,275.5C 751.608,277.514 750.942,279.18 749.5,280.5 Z"/></g>
<g><path style="opacity:1" fill="#d9e5fd" d="M 258.5,319.5 C 260.806,322.473 263.473,325.14 266.5,327.5C 266.5,329.167 266.5,330.833 266.5,332.5C 264.273,334.607 262.273,336.94 260.5,339.5C 258.484,340.456 256.651,341.79 255,343.5C 246.157,356.037 239.49,369.704 235,384.5C 234.333,387.833 234.333,391.167 235,394.5C 236.992,398.976 238.492,403.643 239.5,408.5C 239.833,409.833 240.167,411.167 240.5,412.5C 235.799,412.648 231.132,412.315 226.5,411.5C 222.049,409.218 217.716,406.718 213.5,404C 204.297,395.461 196.63,385.627 190.5,374.5C 208.696,374.577 224.863,368.911 239,357.5C 240.206,354.162 239.04,352.329 235.5,352C 216.487,352.022 197.487,351.855 178.5,351.5C 174.841,348.673 171.674,345.34 169,341.5C 162.735,326.262 163.069,311.262 170,296.5C 178.664,288.933 188.831,284.433 200.5,283C 206.83,282.181 213.164,281.848 219.5,282C 230.709,295.422 242.375,308.422 254.5,321C 256.463,321.844 257.796,321.344 258.5,319.5 Z"/></g>
<g><path style="opacity:1" fill="#d9e5fd" d="M 343.5,310.5 C 343.5,312.167 343.5,313.833 343.5,315.5C 341.857,321.359 340.857,327.359 340.5,333.5C 339.778,333.918 339.278,334.584 339,335.5C 338.5,345.161 338.334,354.828 338.5,364.5C 332.199,365.773 325.866,366.607 319.5,367C 309.833,361.333 300.167,355.667 290.5,350C 288.423,347.337 286.757,344.504 285.5,341.5C 286.615,339.693 287.281,337.693 287.5,335.5C 286.531,332.849 285.531,330.183 284.5,327.5C 285.492,327.672 286.158,327.338 286.5,326.5C 289.377,318.355 288.71,310.355 284.5,302.5C 286.605,298.279 285.605,295.279 281.5,293.5C 279.359,292.837 277.025,292.503 274.5,292.5C 270.859,292.315 267.526,292.981 264.5,294.5C 261.379,294.736 259.046,296.069 257.5,298.5C 257.167,298.5 256.833,298.5 256.5,298.5C 256.509,296.692 256.009,295.025 255,293.5C 252.243,290.571 250.076,287.238 248.5,283.5C 249.328,282.585 250.328,281.919 251.5,281.5C 257.47,282.398 263.47,283.231 269.5,284C 285.036,287.55 300.369,291.717 315.5,296.5C 316.062,305.838 316.728,315.172 317.5,324.5C 319.906,332.697 321.74,341.03 323,349.5C 323.731,351.899 324.898,354.065 326.5,356C 328.579,356.808 330.579,356.641 332.5,355.5C 334.013,352.368 334.68,349.034 334.5,345.5C 332.985,331.259 330.318,317.259 326.5,303.5C 328.527,303.338 330.527,303.505 332.5,304C 335.892,306.694 339.559,308.86 343.5,310.5 Z"/></g>
<g><path style="opacity:1" fill="#f8ccb7" d="M 742.5,288.5 C 741.92,290.749 740.587,292.415 738.5,293.5C 739.08,291.251 740.413,289.585 742.5,288.5 Z"/></g>
<g><path style="opacity:1" fill="#51688e" d="M 281.5,293.5 C 275.797,293.375 270.13,293.708 264.5,294.5C 267.526,292.981 270.859,292.315 274.5,292.5C 277.025,292.503 279.359,292.837 281.5,293.5 Z"/></g>
<g><path style="opacity:1" fill="#183460" d="M 281.5,293.5 C 285.605,295.279 286.605,298.279 284.5,302.5C 283.566,305.656 282.899,308.989 282.5,312.5C 282.5,312.833 282.5,313.167 282.5,313.5C 280.621,314.341 278.621,314.675 276.5,314.5C 275.527,316.948 275.194,319.615 275.5,322.5C 274.4,323.605 273.733,324.938 273.5,326.5C 271.236,327.219 268.903,327.552 266.5,327.5C 263.473,325.14 260.806,322.473 258.5,319.5C 257.736,316.982 256.736,314.649 255.5,312.5C 253.485,307.305 254.151,302.639 257.5,298.5C 259.046,296.069 261.379,294.736 264.5,294.5C 270.13,293.708 275.797,293.375 281.5,293.5 Z"/></g>
<g><path style="opacity:1" fill="#d2e1f7" d="M 615.5,333.5 C 615.167,333.5 614.833,333.5 614.5,333.5C 614.648,328.678 613.981,324.012 612.5,319.5C 612.037,316.518 611.704,313.518 611.5,310.5C 614.385,308.969 617.052,306.969 619.5,304.5C 625.107,300.939 630.774,300.773 636.5,304C 639.936,307.06 640.269,310.393 637.5,314C 631.061,318.112 624.394,321.779 617.5,325C 615.686,327.481 615.02,330.315 615.5,333.5 Z"/></g>
<g><path style="opacity:1" fill="#516689" d="M 256.5,298.5 C 256.833,298.5 257.167,298.5 257.5,298.5C 254.151,302.639 253.485,307.305 255.5,312.5C 253.983,310.538 253.316,308.205 253.5,305.5C 253.012,302.389 254.012,300.056 256.5,298.5 Z"/></g>
<g><path style="opacity:1" fill="#feb17d" d="M 286.5,326.5 C 286.158,327.338 285.492,327.672 284.5,327.5C 283.064,324.355 281.731,321.189 280.5,318C 281.074,316.393 281.74,314.893 282.5,313.5C 282.5,313.167 282.5,312.833 282.5,312.5C 284.045,311.77 284.878,310.437 285,308.5C 285.333,308.833 285.667,309.167 286,309.5C 286.499,315.157 286.666,320.824 286.5,326.5 Z"/></g>
<g><path style="opacity:1" fill="#efaa8c" d="M 345.5,308.5 C 345.59,311.152 344.924,313.485 343.5,315.5C 343.5,313.833 343.5,312.167 343.5,310.5C 344.167,309.833 344.833,309.167 345.5,308.5 Z"/></g>
<g><path style="opacity:1" fill="#9e7574" d="M 276.5,314.5 C 276.821,316.048 277.821,316.715 279.5,316.5C 279.5,317.5 279.5,318.5 279.5,319.5C 278.5,319.5 277.5,319.5 276.5,319.5C 276.737,320.791 276.404,321.791 275.5,322.5C 275.194,319.615 275.527,316.948 276.5,314.5 Z"/></g>
<g><path style="opacity:1" fill="#f0ba9b" d="M 284.5,302.5 C 288.71,310.355 289.377,318.355 286.5,326.5C 286.666,320.824 286.499,315.157 286,309.5C 285.667,309.167 285.333,308.833 285,308.5C 284.878,310.437 284.045,311.77 282.5,312.5C 282.899,308.989 283.566,305.656 284.5,302.5 Z"/></g>
<g><path style="opacity:1" fill="#eb6630" d="M 612.5,319.5 C 613.981,324.012 614.648,328.678 614.5,333.5C 614.719,334.675 614.386,335.675 613.5,336.5C 608.57,339.701 605.07,344.034 603,349.5C 594.042,360.794 584.709,371.794 575,382.5C 561.578,397.682 553.244,415.349 550,435.5C 546.144,439.884 543.31,444.884 541.5,450.5C 540.998,451.521 540.332,451.688 539.5,451C 545.123,437.467 548.456,423.301 549.5,408.5C 539.818,412.498 529.818,415.665 519.5,418C 515.203,419.092 510.869,419.425 506.5,419C 514.155,416.833 521.821,414.5 529.5,412C 539.336,408.5 548.17,403.334 556,396.5C 559.883,389.445 564.383,382.778 569.5,376.5C 563.456,375.191 557.456,373.691 551.5,372C 542.637,365.962 532.97,364.295 522.5,367C 519.299,369.267 515.966,370.934 512.5,372C 518.348,365.936 525.514,362.77 534,362.5C 544.509,364.497 555.009,366.664 565.5,369C 568.833,369.667 572.167,369.667 575.5,369C 579.689,364.779 583.522,360.279 587,355.5C 592.07,341.523 599.57,329.023 609.5,318C 610.788,317.761 611.788,318.261 612.5,319.5 Z"/></g>
<g><path style="opacity:1" fill="#fce7d6" d="M 395.5,339.5 C 397.085,344.678 397.752,350.012 397.5,355.5C 395.615,365.718 389.615,372.052 379.5,374.5C 376.833,374.5 374.167,374.5 371.5,374.5C 367.564,374.267 363.897,373.267 360.5,371.5C 362.946,369.981 365.279,368.314 367.5,366.5C 379.114,368.34 385.781,363.34 387.5,351.5C 387.196,342.529 382.529,337.862 373.5,337.5C 356.971,339.233 352.638,347.233 360.5,361.5C 356.833,362.167 353.167,362.833 349.5,363.5C 350.398,362.842 351.398,362.176 352.5,361.5C 346.435,347.857 349.769,337.023 362.5,329C 376.432,323.726 387.432,327.226 395.5,339.5 Z"/></g>
<g><path style="opacity:1" fill="#efb086" d="M 282.5,313.5 C 281.74,314.893 281.074,316.393 280.5,318C 281.731,321.189 283.064,324.355 284.5,327.5C 283.833,327.5 283.5,327.833 283.5,328.5C 283.11,331.797 282.11,334.797 280.5,337.5C 276.206,335.067 271.54,333.4 266.5,332.5C 266.5,330.833 266.5,329.167 266.5,327.5C 268.903,327.552 271.236,327.219 273.5,326.5C 273.733,324.938 274.4,323.605 275.5,322.5C 276.404,321.791 276.737,320.791 276.5,319.5C 277.5,319.5 278.5,319.5 279.5,319.5C 279.5,318.5 279.5,317.5 279.5,316.5C 277.821,316.715 276.821,316.048 276.5,314.5C 278.621,314.675 280.621,314.341 282.5,313.5 Z"/></g>
<g><path style="opacity:1" fill="#fbaa75" d="M 273.5,326.5 C 274.397,327.598 275.23,327.598 276,326.5C 276.543,324.369 277.376,322.369 278.5,320.5C 281.161,324.382 282.161,328.716 281.5,333.5C 277.734,333.285 274.4,331.951 271.5,329.5C 272.193,328.482 272.859,327.482 273.5,326.5 Z"/></g>
<g><path style="opacity:1" fill="#7184a7" d="M 284.5,327.5 C 285.531,330.183 286.531,332.849 287.5,335.5C 287.281,337.693 286.615,339.693 285.5,341.5C 284.662,341.158 284.328,340.492 284.5,339.5C 284.577,335.785 284.244,332.119 283.5,328.5C 283.5,327.833 283.833,327.5 284.5,327.5 Z"/></g>
<g><path style="opacity:1" fill="#d9dee5" d="M 283.5,328.5 C 284.244,332.119 284.577,335.785 284.5,339.5C 283.005,339.011 281.671,338.345 280.5,337.5C 282.11,334.797 283.11,331.797 283.5,328.5 Z"/></g>
<g><path style="opacity:1" fill="#efcbab" d="M 367.5,366.5 C 367.5,366.167 367.5,365.833 367.5,365.5C 369.655,365.628 371.655,365.128 373.5,364C 375.254,360.411 377.588,357.245 380.5,354.5C 376.243,354.09 372.076,354.09 368,354.5C 367.728,357.382 366.894,360.049 365.5,362.5C 363.958,361.699 362.292,361.366 360.5,361.5C 352.638,347.233 356.971,339.233 373.5,337.5C 382.529,337.862 387.196,342.529 387.5,351.5C 385.781,363.34 379.114,368.34 367.5,366.5 Z"/></g>
<g><path style="opacity:1" fill="#abdcd9" d="M 266.5,332.5 C 271.54,333.4 276.206,335.067 280.5,337.5C 281.671,338.345 283.005,339.011 284.5,339.5C 284.328,340.492 284.662,341.158 285.5,341.5C 286.757,344.504 288.423,347.337 290.5,350C 300.167,355.667 309.833,361.333 319.5,367C 325.866,366.607 332.199,365.773 338.5,364.5C 338.833,364.5 339.167,364.5 339.5,364.5C 340.791,364.737 341.791,364.404 342.5,363.5C 344.833,363.5 347.167,363.5 349.5,363.5C 353.167,362.833 356.833,362.167 360.5,361.5C 362.292,361.366 363.958,361.699 365.5,362.5C 365.932,363.71 366.599,364.71 367.5,365.5C 367.5,365.833 367.5,366.167 367.5,366.5C 365.279,368.314 362.946,369.981 360.5,371.5C 353.579,373.021 347.245,375.688 341.5,379.5C 333.917,381.79 326.25,383.79 318.5,385.5C 310.254,384.96 302.254,383.627 294.5,381.5C 295.014,393.509 295.68,405.509 296.5,417.5C 296.5,426.5 296.5,435.5 296.5,444.5C 296.555,461.182 296.055,477.849 295,494.5C 292.745,496.499 290.245,497.832 287.5,498.5C 280.138,498.635 272.804,498.302 265.5,497.5C 258.67,495.788 252.003,493.454 245.5,490.5C 244.395,489.4 243.062,488.733 241.5,488.5C 240.969,486.456 239.802,484.789 238,483.5C 236.926,460.888 238.093,438.388 241.5,416C 241.486,414.615 241.152,413.449 240.5,412.5C 240.167,411.167 239.833,409.833 239.5,408.5C 240.79,409.058 241.623,410.058 242,411.5C 243.888,394.936 246.888,378.603 251,362.5C 253.541,357.487 255.207,352.154 256,346.5C 257.511,344.138 259.011,341.805 260.5,339.5C 262.273,336.94 264.273,334.607 266.5,332.5 Z"/></g>
<g><path style="opacity:1" fill="#d0e1f8" d="M 617.5,357.5 C 617.5,352.833 617.5,348.167 617.5,343.5C 634.962,332.966 653.962,328.466 674.5,330C 682.788,332.4 687.455,337.9 688.5,346.5C 687.372,352.423 683.706,355.59 677.5,356C 664.801,356.179 652.135,356.845 639.5,358C 632.58,359.56 625.913,361.726 619.5,364.5C 618.832,362.031 618.165,359.698 617.5,357.5 Z"/></g>
<g><path style="opacity:1" fill="#95d0d1" d="M 260.5,339.5 C 259.011,341.805 257.511,344.138 256,346.5C 255.207,352.154 253.541,357.487 251,362.5C 246.888,378.603 243.888,394.936 242,411.5C 241.623,410.058 240.79,409.058 239.5,408.5C 238.492,403.643 236.992,398.976 235,394.5C 234.333,391.167 234.333,387.833 235,384.5C 239.49,369.704 246.157,356.037 255,343.5C 256.651,341.79 258.484,340.456 260.5,339.5 Z"/></g>
<g><path style="opacity:1" fill="#e1cccd" d="M 340.5,333.5 C 340.5,335.167 340.5,336.833 340.5,338.5C 339.507,346.984 339.174,355.651 339.5,364.5C 339.167,364.5 338.833,364.5 338.5,364.5C 338.334,354.828 338.5,345.161 339,335.5C 339.278,334.584 339.778,333.918 340.5,333.5 Z"/></g>
<g><path style="opacity:1" fill="#fabe9d" d="M 395.5,339.5 C 396.558,340.6 397.392,341.934 398,343.5C 398.812,347.689 398.645,351.689 397.5,355.5C 397.752,350.012 397.085,344.678 395.5,339.5 Z"/></g>
<g><path style="opacity:1" fill="#fdb381" d="M 367.5,365.5 C 366.599,364.71 365.932,363.71 365.5,362.5C 366.894,360.049 367.728,357.382 368,354.5C 372.076,354.09 376.243,354.09 380.5,354.5C 377.588,357.245 375.254,360.411 373.5,364C 371.655,365.128 369.655,365.628 367.5,365.5 Z"/></g>
<g><path style="opacity:1" fill="#ed9b76" d="M 340.5,338.5 C 339.865,347.234 340.532,355.567 342.5,363.5C 341.791,364.404 340.791,364.737 339.5,364.5C 339.174,355.651 339.507,346.984 340.5,338.5 Z"/></g>
<g><path style="opacity:1" fill="#efb196" d="M 615.5,333.5 C 616.167,336.833 616.833,340.167 617.5,343.5C 617.5,348.167 617.5,352.833 617.5,357.5C 617.5,364.833 617.5,372.167 617.5,379.5C 617.5,380.167 617.167,380.5 616.5,380.5C 616.629,364.82 616.296,349.153 615.5,333.5 Z"/></g>
<g><path style="opacity:1" fill="#f68349" d="M 360.5,371.5 C 363.897,373.267 367.564,374.267 371.5,374.5C 373.326,394.601 372.159,414.601 368,434.5C 366.74,441.675 363.907,448.009 359.5,453.5C 359.5,452.833 359.167,452.5 358.5,452.5C 357.432,446.869 355.765,441.535 353.5,436.5C 353.741,434.102 353.074,432.102 351.5,430.5C 351.5,430.167 351.5,429.833 351.5,429.5C 351.741,427.102 351.074,425.102 349.5,423.5C 348.61,417.614 347.277,411.947 345.5,406.5C 345.5,406.167 345.5,405.833 345.5,405.5C 345.59,402.848 344.924,400.515 343.5,398.5C 342.573,392.197 341.906,385.863 341.5,379.5C 347.245,375.688 353.579,373.021 360.5,371.5 Z"/></g>
<g><path style="opacity:1" fill="#b74940" d="M 657.5,379.5 C 659.374,385.289 661.54,390.956 664,396.5C 665.432,398.439 667.265,399.772 669.5,400.5C 670.833,402.5 672.5,404.167 674.5,405.5C 674.511,407.547 674.844,409.547 675.5,411.5C 675.253,412.713 674.586,413.38 673.5,413.5C 665.67,412.875 658.336,410.875 651.5,407.5C 650.106,404.412 648.772,401.245 647.5,398C 645.212,398.053 642.879,398.386 640.5,399C 641.706,400.018 641.373,400.518 639.5,400.5C 635.981,399.32 632.981,397.32 630.5,394.5C 630.167,398.334 630.167,402.001 630.5,405.5C 629.527,403.861 628.194,402.527 626.5,401.5C 626.023,396.258 626.856,391.258 629,386.5C 632.879,382.288 636.379,377.788 639.5,373C 643.554,373.009 647.554,373.676 651.5,375C 653.07,377.07 655.07,378.57 657.5,379.5 Z"/></g>
<g><path style="opacity:1" fill="#dbe4f9" d="M 617.5,379.5 C 621.182,379.335 624.848,379.501 628.5,380C 623.863,384.825 619.863,389.992 616.5,395.5C 616.5,391.833 616.5,388.167 616.5,384.5C 616.5,383.167 616.5,381.833 616.5,380.5C 617.167,380.5 617.5,380.167 617.5,379.5 Z"/></g>
<g><path style="opacity:1" fill="#d9e4fc" d="M 657.5,379.5 C 666.678,379.98 675.845,380.647 685,381.5C 694.746,384.061 704.579,386.228 714.5,388C 716.228,389.726 718.228,391.059 720.5,392C 709.205,399.612 697.871,407.279 686.5,415C 685.748,415.671 685.414,416.504 685.5,417.5C 681.2,417.281 677.2,416.281 673.5,414.5C 674.5,414.5 675.5,414.5 676.5,414.5C 676.932,411.123 676.265,408.123 674.5,405.5C 673.833,402.833 672.167,401.167 669.5,400.5C 667.265,399.772 665.432,398.439 664,396.5C 661.54,390.956 659.374,385.289 657.5,379.5 Z"/></g>
<g><path style="opacity:1" fill="#d9e5fc" d="M 341.5,379.5 C 341.906,385.863 342.573,392.197 343.5,398.5C 343.41,401.152 344.076,403.485 345.5,405.5C 345.5,405.833 345.5,406.167 345.5,406.5C 345.664,409.187 345.497,411.854 345,414.5C 343.312,412.812 341.645,411.145 340,409.5C 336.724,413.736 333.224,417.736 329.5,421.5C 324.45,424.37 319.116,426.37 313.5,427.5C 309.226,417.746 305.559,407.746 302.5,397.5C 314.08,389.908 312.747,386.242 298.5,386.5C 298.291,385.078 297.791,383.745 297,382.5C 297.007,387.213 297.673,391.88 299,396.5C 302.378,407.016 306.211,417.349 310.5,427.5C 310.586,428.496 310.252,429.329 309.5,430C 305.527,431.028 301.527,431.861 297.5,432.5C 297.821,427.305 297.487,422.305 296.5,417.5C 295.68,405.509 295.014,393.509 294.5,381.5C 302.254,383.627 310.254,384.96 318.5,385.5C 326.25,383.79 333.917,381.79 341.5,379.5 Z"/></g>
<g><path style="opacity:1" fill="#e8f1fa" d="M 298.5,386.5 C 312.747,386.242 314.08,389.908 302.5,397.5C 301.504,393.816 300.171,390.149 298.5,386.5 Z"/></g>
<g><path style="opacity:1" fill="#f2b892" d="M 371.5,374.5 C 374.167,374.5 376.833,374.5 379.5,374.5C 378.081,375.451 376.415,375.784 374.5,375.5C 375.063,394.607 373.896,413.607 371,432.5C 368.764,441.379 365.264,449.712 360.5,457.5C 360.167,457.5 359.833,457.5 359.5,457.5C 359.5,456.167 359.5,454.833 359.5,453.5C 363.907,448.009 366.74,441.675 368,434.5C 372.159,414.601 373.326,394.601 371.5,374.5 Z"/></g>
<g><path style="opacity:1" fill="#faad7a" d="M 651.5,407.5 C 649.82,410.86 648.153,414.193 646.5,417.5C 645.833,417.167 645.167,416.833 644.5,416.5C 644.586,415.504 644.252,414.671 643.5,414C 637.496,413.668 633.163,410.835 630.5,405.5C 630.167,402.001 630.167,398.334 630.5,394.5C 632.981,397.32 635.981,399.32 639.5,400.5C 641.373,400.518 641.706,400.018 640.5,399C 642.879,398.386 645.212,398.053 647.5,398C 648.772,401.245 650.106,404.412 651.5,407.5 Z"/></g>
<g><path style="opacity:1" fill="#ccaab4" d="M 669.5,400.5 C 672.167,401.167 673.833,402.833 674.5,405.5C 672.5,404.167 670.833,402.5 669.5,400.5 Z"/></g>
<g><path style="opacity:1" fill="#e5bbae" d="M 343.5,398.5 C 344.924,400.515 345.59,402.848 345.5,405.5C 344.076,403.485 343.41,401.152 343.5,398.5 Z"/></g>
<g><path style="opacity:1" fill="#d9e5fd" d="M 744.5,487.5 C 745.693,473.611 742.193,460.944 734,449.5C 725.001,439.43 714.501,431.43 702.5,425.5C 708.544,423.665 714.544,421.498 720.5,419C 730.801,414.019 740.801,408.852 750.5,403.5C 766.846,408.366 781.012,417.033 793,429.5C 794.178,433.356 796.011,436.856 798.5,440C 800.908,446.849 800.741,453.682 798,460.5C 795.384,465.214 793.384,470.214 792,475.5C 790.088,477.657 788.421,479.991 787,482.5C 783.833,484.333 781.333,486.833 779.5,490C 775.12,493.105 770.287,495.272 765,496.5C 757.658,494.343 750.824,491.343 744.5,487.5 Z"/></g>
<g><path style="opacity:1" fill="#d9e3fa" d="M 626.5,401.5 C 628.194,402.527 629.527,403.861 630.5,405.5C 633.163,410.835 637.496,413.668 643.5,414C 644.252,414.671 644.586,415.504 644.5,416.5C 637.214,421.594 635.547,428.26 639.5,436.5C 639.167,439.833 638.833,443.167 638.5,446.5C 638.274,452.546 636.774,458.213 634,463.5C 630.136,468.17 625.969,472.503 621.5,476.5C 618.662,465.545 615.662,454.545 612.5,443.5C 611.725,438.203 611.392,432.87 611.5,427.5C 612.822,427.67 613.989,427.337 615,426.5C 619.55,419.469 623.716,412.302 627.5,405C 627.011,403.862 626.678,402.695 626.5,401.5 Z"/></g>
<g><path style="opacity:1" fill="#e9f0f8" d="M 345.5,406.5 C 347.277,411.947 348.61,417.614 349.5,423.5C 349.259,425.898 349.926,427.898 351.5,429.5C 351.5,429.833 351.5,430.167 351.5,430.5C 351.5,430.833 351.5,431.167 351.5,431.5C 342.508,430.576 333.508,431.076 324.5,433C 321.726,433.624 319.726,435.124 318.5,437.5C 316.323,434.48 314.657,431.147 313.5,427.5C 319.116,426.37 324.45,424.37 329.5,421.5C 333.224,417.736 336.724,413.736 340,409.5C 341.645,411.145 343.312,412.812 345,414.5C 345.497,411.854 345.664,409.187 345.5,406.5 Z"/></g>
<g><path style="opacity:1" fill="#f4d7cb" d="M 616.5,384.5 C 616.5,388.167 616.5,391.833 616.5,395.5C 616.782,403.977 615.449,411.977 612.5,419.5C 613.995,407.709 615.328,396.043 616.5,384.5 Z"/></g>
<g><path style="opacity:1" fill="#c17b75" d="M 674.5,405.5 C 676.265,408.123 676.932,411.123 676.5,414.5C 675.5,414.5 674.5,414.5 673.5,414.5C 673.5,414.167 673.5,413.833 673.5,413.5C 674.586,413.38 675.253,412.713 675.5,411.5C 674.844,409.547 674.511,407.547 674.5,405.5 Z"/></g>
<g><path style="opacity:1" fill="#aadcd9" d="M 651.5,407.5 C 658.336,410.875 665.67,412.875 673.5,413.5C 673.5,413.833 673.5,414.167 673.5,414.5C 677.2,416.281 681.2,417.281 685.5,417.5C 688.702,418.862 691.702,420.696 694.5,423C 697.279,423.561 699.946,424.394 702.5,425.5C 714.501,431.43 725.001,439.43 734,449.5C 742.193,460.944 745.693,473.611 744.5,487.5C 742.847,487.66 741.514,488.326 740.5,489.5C 731.746,491.048 723.08,490.714 714.5,488.5C 709.274,486.843 703.941,485.177 698.5,483.5C 697.143,482.41 696.143,481.076 695.5,479.5C 693.934,472.916 691.601,466.583 688.5,460.5C 688.167,460.167 687.833,459.833 687.5,459.5C 686.833,462.977 686.166,466.311 685.5,469.5C 687.423,456.089 681.756,450.423 668.5,452.5C 667.049,456.903 665.049,460.903 662.5,464.5C 660.647,462.554 658.314,461.054 655.5,460C 652.879,457.844 650.879,455.344 649.5,452.5C 646.018,451.256 643.018,449.256 640.5,446.5C 643.815,447.831 647.148,449.165 650.5,450.5C 647.685,441.825 645.685,433.158 644.5,424.5C 645.455,422.254 646.122,419.921 646.5,417.5C 648.153,414.193 649.82,410.86 651.5,407.5 Z"/></g>
<g><path style="opacity:1" fill="#f6cfae" d="M 606.5,418.5 C 607.598,422.909 608.598,427.242 609.5,431.5C 609.502,435.874 610.502,439.874 612.5,443.5C 615.662,454.545 618.662,465.545 621.5,476.5C 621.179,479.577 622.179,481.91 624.5,483.5C 623.982,484.577 623.648,485.744 623.5,487C 624.68,491.658 626.013,496.158 627.5,500.5C 625.363,504.444 624.03,504.111 623.5,499.5C 620.736,489.313 618.07,478.98 615.5,468.5C 608.167,467.167 600.833,467.167 593.5,468.5C 597.317,481.753 600.817,495.086 604,508.5C 608.383,513.891 613.549,514.891 619.5,511.5C 620.376,511.369 621.043,511.702 621.5,512.5C 620.347,513.687 620.347,514.687 621.5,515.5C 612.87,519.705 606.037,517.705 601,509.5C 598.732,503.354 596.899,497.02 595.5,490.5C 595.253,489.287 594.586,488.62 593.5,488.5C 594.487,484.871 594.321,481.204 593,477.5C 587.907,459.982 583.407,442.315 579.5,424.5C 584.571,423.31 589.571,421.81 594.5,420C 598.44,418.985 602.44,418.485 606.5,418.5 Z"/></g>
<g><path style="opacity:1" fill="#f2c29c" d="M 606.5,418.5 C 602.44,418.485 598.44,418.985 594.5,420C 589.571,421.81 584.571,423.31 579.5,424.5C 578.791,423.596 577.791,423.263 576.5,423.5C 576.33,422.178 576.663,421.011 577.5,420C 587.228,417.92 596.894,415.753 606.5,413.5C 606.5,415.167 606.5,416.833 606.5,418.5 Z"/></g>
<g><path style="opacity:1" fill="#b74c43" d="M 644.5,416.5 C 645.167,416.833 645.833,417.167 646.5,417.5C 646.122,419.921 645.455,422.254 644.5,424.5C 642.62,426.755 641.62,429.422 641.5,432.5C 641.34,434.153 640.674,435.486 639.5,436.5C 635.547,428.26 637.214,421.594 644.5,416.5 Z"/></g>
<g><path style="opacity:1" fill="#a19c9e" d="M 644.5,424.5 C 644.655,427.716 643.655,430.383 641.5,432.5C 641.62,429.422 642.62,426.755 644.5,424.5 Z"/></g>
<g><path style="opacity:1" fill="#f4bda1" d="M 349.5,423.5 C 351.074,425.102 351.741,427.102 351.5,429.5C 349.926,427.898 349.259,425.898 349.5,423.5 Z"/></g>
<g><path style="opacity:1" fill="#94ced0" d="M 644.5,424.5 C 645.685,433.158 647.685,441.825 650.5,450.5C 647.148,449.165 643.815,447.831 640.5,446.5C 639.833,446.5 639.167,446.5 638.5,446.5C 638.833,443.167 639.167,439.833 639.5,436.5C 640.674,435.486 641.34,434.153 641.5,432.5C 643.655,430.383 644.655,427.716 644.5,424.5 Z"/></g>
<g><path style="opacity:1" fill="#e7f0f9" d="M 296.5,417.5 C 297.487,422.305 297.821,427.305 297.5,432.5C 301.527,431.861 305.527,431.028 309.5,430C 310.252,429.329 310.586,428.496 310.5,427.5C 316.31,440.157 324.31,451.324 334.5,461C 338.187,463.285 342.187,464.452 346.5,464.5C 346.5,466.167 346.5,467.833 346.5,469.5C 342.951,469.561 339.618,468.727 336.5,467C 325.505,458.995 314.838,450.662 304.5,442C 303.167,441.333 301.833,441.333 300.5,442C 299.529,443.481 298.196,444.315 296.5,444.5C 296.5,435.5 296.5,426.5 296.5,417.5 Z"/></g>
<g><path style="opacity:1" fill="#d4e2f7" d="M 351.5,431.5 C 351.402,433.553 352.069,435.22 353.5,436.5C 355.765,441.535 357.432,446.869 358.5,452.5C 357.912,457.267 355.245,460.434 350.5,462C 342.393,463.032 335.56,460.532 330,454.5C 325.166,449.496 321.333,443.829 318.5,437.5C 319.726,435.124 321.726,433.624 324.5,433C 333.508,431.076 342.508,430.576 351.5,431.5 Z"/></g>
<g><path style="opacity:1" fill="#e4bcb0" d="M 351.5,430.5 C 353.074,432.102 353.741,434.102 353.5,436.5C 352.069,435.22 351.402,433.553 351.5,431.5C 351.5,431.167 351.5,430.833 351.5,430.5 Z"/></g>
<g><path style="opacity:1" fill="#d2e1f8" d="M 346.5,464.5 C 351.867,463.985 356.2,461.651 359.5,457.5C 359.833,457.5 360.167,457.5 360.5,457.5C 367.953,473.74 375.953,489.74 384.5,505.5C 383.151,511.197 381.318,516.863 379,522.5C 375.342,528.161 371.675,533.827 368,539.5C 360.844,547.997 352.511,554.997 343,560.5C 340.849,560.357 339.182,559.357 338,557.5C 337.333,550.167 337.333,542.833 338,535.5C 341.769,526.078 346.769,517.412 353,509.5C 354.707,507.091 355.54,504.425 355.5,501.5C 352.436,501.144 349.769,501.977 347.5,504C 337.152,514.026 332.485,526.36 333.5,541C 331.14,548.437 327.474,555.104 322.5,561C 310.364,566.423 297.697,567.923 284.5,565.5C 284.629,558.155 284.962,550.822 285.5,543.5C 286.497,543.53 287.164,543.03 287.5,542C 290.79,535.913 292.124,529.413 291.5,522.5C 290.041,522.433 288.708,522.766 287.5,523.5C 288.244,519.881 288.577,516.215 288.5,512.5C 288.421,508.798 288.754,505.132 289.5,501.5C 289.36,499.97 288.693,498.97 287.5,498.5C 290.245,497.832 292.745,496.499 295,494.5C 296.055,477.849 296.555,461.182 296.5,444.5C 298.196,444.315 299.529,443.481 300.5,442C 301.833,441.333 303.167,441.333 304.5,442C 314.838,450.662 325.505,458.995 336.5,467C 339.618,468.727 342.951,469.561 346.5,469.5C 346.5,467.833 346.5,466.167 346.5,464.5 Z"/></g>
<g><path style="opacity:1" fill="#ed9962" d="M 638.5,446.5 C 639.167,446.5 639.833,446.5 640.5,446.5C 643.018,449.256 646.018,451.256 649.5,452.5C 649.665,455.85 649.498,459.183 649,462.5C 648.302,463.691 647.469,464.691 646.5,465.5C 645.464,468.401 643.797,470.901 641.5,473C 635.948,476.725 630.282,480.225 624.5,483.5C 622.179,481.91 621.179,479.577 621.5,476.5C 625.969,472.503 630.136,468.17 634,463.5C 636.774,458.213 638.274,452.546 638.5,446.5 Z"/></g>
<g><path style="opacity:1" fill="#d8e3fc" d="M 685.5,469.5 C 684.502,473.006 684.502,476.672 685.5,480.5C 684.046,486.552 682.38,492.552 680.5,498.5C 678.926,500.102 678.259,502.102 678.5,504.5C 677.366,507.37 676.7,510.37 676.5,513.5C 674.75,517.183 674.083,521.183 674.5,525.5C 674.666,530.179 674.499,534.845 674,539.5C 673.617,540.056 673.117,540.389 672.5,540.5C 672.66,538.801 672.494,537.134 672,535.5C 659.722,524.043 649.889,510.71 642.5,495.5C 644.756,494.579 645.756,492.912 645.5,490.5C 649.497,486.335 653.33,482.002 657,477.5C 659.34,473.293 661.174,468.959 662.5,464.5C 665.049,460.903 667.049,456.903 668.5,452.5C 681.756,450.423 687.423,456.089 685.5,469.5 Z"/></g>
<g><path style="opacity:1" fill="#fdb280" d="M 649.5,452.5 C 650.879,455.344 652.879,457.844 655.5,460C 658.314,461.054 660.647,462.554 662.5,464.5C 661.174,468.959 659.34,473.293 657,477.5C 653.33,482.002 649.497,486.335 645.5,490.5C 640.5,494.833 635.833,499.5 631.5,504.5C 629.059,506.075 627.893,508.408 628,511.5C 626.429,513.923 624.263,515.256 621.5,515.5C 620.347,514.687 620.347,513.687 621.5,512.5C 621.043,511.702 620.376,511.369 619.5,511.5C 618.861,508.707 619.861,506.373 622.5,504.5C 623.452,502.955 623.785,501.288 623.5,499.5C 624.03,504.111 625.363,504.444 627.5,500.5C 633.38,489.784 639.88,479.451 647,469.5C 647.765,467.934 647.598,466.601 646.5,465.5C 647.469,464.691 648.302,463.691 649,462.5C 649.498,459.183 649.665,455.85 649.5,452.5 Z"/></g>
<g><path style="opacity:1" fill="#edd1bd" d="M 298.5,386.5 C 300.171,390.149 301.504,393.816 302.5,397.5C 305.559,407.746 309.226,417.746 313.5,427.5C 314.657,431.147 316.323,434.48 318.5,437.5C 321.333,443.829 325.166,449.496 330,454.5C 335.56,460.532 342.393,463.032 350.5,462C 355.245,460.434 357.912,457.267 358.5,452.5C 359.167,452.5 359.5,452.833 359.5,453.5C 359.5,454.833 359.5,456.167 359.5,457.5C 356.2,461.651 351.867,463.985 346.5,464.5C 342.187,464.452 338.187,463.285 334.5,461C 324.31,451.324 316.31,440.157 310.5,427.5C 306.211,417.349 302.378,407.016 299,396.5C 297.673,391.88 297.007,387.213 297,382.5C 297.791,383.745 298.291,385.078 298.5,386.5 Z"/></g>
<g><path style="opacity:1" fill="#91cacd" d="M 695.5,479.5 C 694.883,479.389 694.383,479.056 694,478.5C 693.481,479.516 692.647,480.182 691.5,480.5C 689.646,479.494 687.979,479.494 686.5,480.5C 686.167,480.5 685.833,480.5 685.5,480.5C 684.502,476.672 684.502,473.006 685.5,469.5C 686.166,466.311 686.833,462.977 687.5,459.5C 687.833,459.833 688.167,460.167 688.5,460.5C 691.601,466.583 693.934,472.916 695.5,479.5 Z"/></g>
<g><path style="opacity:1" fill="#61577f" d="M 455.5,478.5 C 436.5,478.5 417.5,478.5 398.5,478.5C 397.833,478.5 397.5,478.167 397.5,477.5C 396.179,473.767 396.179,469.934 397.5,466C 417.167,465.333 436.833,465.333 456.5,466C 457.626,469.744 457.793,473.577 457,477.5C 456.617,478.056 456.117,478.389 455.5,478.5 Z"/></g>
<g><path style="opacity:1" fill="#2a458a" d="M 397.5,477.5 C 397.216,474.223 397.549,471.057 398.5,468C 417.497,467.5 436.497,467.333 455.5,467.5C 455.5,470.833 455.5,474.167 455.5,477.5C 436.167,477.5 416.833,477.5 397.5,477.5 Z"/></g>
<g><path style="opacity:1" fill="#d14b43" d="M 623.5,499.5 C 623.785,501.288 623.452,502.955 622.5,504.5C 619.861,506.373 618.861,508.707 619.5,511.5C 613.549,514.891 608.383,513.891 604,508.5C 600.817,495.086 597.317,481.753 593.5,468.5C 600.833,467.167 608.167,467.167 615.5,468.5C 618.07,478.98 620.736,489.313 623.5,499.5 Z"/></g>
<g><path style="opacity:1" fill="#e1e4f0" d="M 646.5,465.5 C 647.598,466.601 647.765,467.934 647,469.5C 639.88,479.451 633.38,489.784 627.5,500.5C 626.013,496.158 624.68,491.658 623.5,487C 623.648,485.744 623.982,484.577 624.5,483.5C 630.282,480.225 635.948,476.725 641.5,473C 643.797,470.901 645.464,468.401 646.5,465.5 Z"/></g>
<g><path style="opacity:1" fill="#f59f6e" d="M 582.5,479.5 C 572.442,478.86 562.775,479.527 553.5,481.5C 552.596,480.791 552.263,479.791 552.5,478.5C 562.681,478.173 572.681,478.506 582.5,479.5 Z"/></g>
<g><path style="opacity:1" fill="#aec1fc" d="M 398.5,478.5 C 417.5,478.5 436.5,478.5 455.5,478.5C 455.5,479.167 455.5,479.833 455.5,480.5C 455.667,513.835 455.5,547.168 455,580.5C 454.051,582.093 452.885,583.426 451.5,584.5C 438.829,584.667 426.162,584.5 413.5,584C 412.748,583.329 412.414,582.496 412.5,581.5C 412.5,580.167 412.5,578.833 412.5,577.5C 413.434,578.568 413.768,579.901 413.5,581.5C 415.39,581.703 416.89,581.037 418,579.5C 418.155,577.144 418.155,574.811 418,572.5C 420.167,575.333 422.333,578.167 424.5,581C 426.5,581.667 428.5,581.667 430.5,581C 431.097,579.938 431.43,578.772 431.5,577.5C 430.302,574.858 429.468,572.191 429,569.5C 432.137,573.309 435.303,577.142 438.5,581C 441.347,581.944 443.847,581.444 446,579.5C 452.89,581.095 455.057,578.428 452.5,571.5C 450.931,568.304 449.265,565.137 447.5,562C 448.377,560.133 449.877,558.966 452,558.5C 452.979,552.012 452.479,545.678 450.5,539.5C 452.194,536.336 452.694,533.002 452,529.5C 450.401,527.964 448.567,527.464 446.5,528C 444.736,530.512 443.069,533.012 441.5,535.5C 440.713,534.758 440.047,533.925 439.5,533C 435.991,532.469 432.658,531.469 429.5,530C 428.802,529.029 428.802,527.863 429.5,526.5C 427.924,522.945 425.257,521.778 421.5,523C 418.573,525.382 415.739,527.882 413,530.5C 412.667,533.5 412.333,536.5 412,539.5C 411.586,539.957 411.086,540.291 410.5,540.5C 410.292,536.842 409.959,533.176 409.5,529.5C 405.904,527.721 403.404,528.721 402,532.5C 401.167,535.833 400.333,539.167 399.5,542.5C 399.608,543.442 399.941,544.275 400.5,545C 402.332,545.748 403.999,546.748 405.5,548C 403.995,552.008 402.995,556.175 402.5,560.5C 403.065,562.405 404.065,564.071 405.5,565.5C 404.754,566.736 404.421,568.07 404.5,569.5C 406.179,569.285 407.179,569.952 407.5,571.5C 404.515,570.674 401.849,569.341 399.5,567.5C 398.518,553.579 398.185,539.579 398.5,525.5C 398.5,525.167 398.5,524.833 398.5,524.5C 398.5,510.167 398.5,495.833 398.5,481.5C 398.5,480.5 398.5,479.5 398.5,478.5 Z"/></g>
<g><path style="opacity:1" fill="#233965" d="M 695.5,479.5 C 696.143,481.076 697.143,482.41 698.5,483.5C 698.611,484.117 698.944,484.617 699.5,485C 703.449,486.485 707.449,487.651 711.5,488.5C 712.833,489.833 712.833,491.167 711.5,492.5C 708.495,498.503 705.495,504.503 702.5,510.5C 701.883,510.611 701.383,510.944 701,511.5C 692.952,502.733 688.118,492.4 686.5,480.5C 687.979,479.494 689.646,479.494 691.5,480.5C 692.647,480.182 693.481,479.516 694,478.5C 694.383,479.056 694.883,479.389 695.5,479.5 Z"/></g>
<g><path style="opacity:1" fill="#db998b" d="M 398.5,481.5 C 398.5,495.833 398.5,510.167 398.5,524.5C 397.508,524.672 396.842,524.338 396.5,523.5C 397.167,509.5 397.833,495.5 398.5,481.5 Z"/></g>
<g><path style="opacity:1" fill="#f6cfae" d="M 582.5,479.5 C 583.625,480.348 583.625,481.348 582.5,482.5C 581.341,492.658 581.175,502.992 582,513.5C 582.717,512.956 583.217,512.289 583.5,511.5C 583.328,510.508 583.662,509.842 584.5,509.5C 584.634,511.292 584.301,512.958 583.5,514.5C 581.513,532.803 580.846,551.47 581.5,570.5C 580.5,570.5 579.5,570.5 578.5,570.5C 578.5,556.5 578.5,542.5 578.5,528.5C 571.5,528.5 564.5,528.5 557.5,528.5C 557.5,542.5 557.5,556.5 557.5,570.5C 556.5,570.5 555.5,570.5 554.5,570.5C 555.069,566.671 554.402,563.337 552.5,560.5C 554.828,534.32 555.161,507.986 553.5,481.5C 562.775,479.527 572.442,478.86 582.5,479.5 Z"/></g>
<g><path style="opacity:1" fill="#f5be97" d="M 539.5,570.5 C 539.167,570.5 538.833,570.5 538.5,570.5C 538.5,541.5 538.5,512.5 538.5,483.5C 529.816,482.377 521.149,482.377 512.5,483.5C 512.5,512.5 512.5,541.5 512.5,570.5C 512.167,570.5 511.833,570.5 511.5,570.5C 511.667,541.165 511.5,511.831 511,482.5C 510.308,481.975 509.808,481.308 509.5,480.5C 519.833,479.167 530.167,479.167 540.5,480.5C 539.508,510.456 539.175,540.456 539.5,570.5 Z"/></g>
<g><path style="opacity:1" fill="#f6d0ae" d="M 538.5,570.5 C 537.5,570.5 536.5,570.5 535.5,570.5C 535.5,556.5 535.5,542.5 535.5,528.5C 528.5,528.5 521.5,528.5 514.5,528.5C 514.5,542.5 514.5,556.5 514.5,570.5C 513.833,570.5 513.167,570.5 512.5,570.5C 512.5,541.5 512.5,512.5 512.5,483.5C 521.149,482.377 529.816,482.377 538.5,483.5C 538.5,512.5 538.5,541.5 538.5,570.5 Z"/></g>
<g><path style="opacity:1" fill="#f5a375" d="M 582.5,482.5 C 582.173,492.348 582.506,502.014 583.5,511.5C 583.217,512.289 582.717,512.956 582,513.5C 581.175,502.992 581.341,492.658 582.5,482.5 Z"/></g>
<g><path style="opacity:1" fill="#6e94a9" d="M 698.5,483.5 C 703.941,485.177 709.274,486.843 714.5,488.5C 713.5,488.5 712.5,488.5 711.5,488.5C 707.449,487.651 703.449,486.485 699.5,485C 698.944,484.617 698.611,484.117 698.5,483.5 Z"/></g>
<g><path style="opacity:1" fill="#2d478c" d="M 685.5,480.5 C 685.833,480.5 686.167,480.5 686.5,480.5C 688.118,492.4 692.952,502.733 701,511.5C 701.383,510.944 701.883,510.611 702.5,510.5C 698.619,517.576 694.452,524.576 690,531.5C 689.502,534.817 689.335,538.15 689.5,541.5C 687.755,545.2 686.755,549.2 686.5,553.5C 683.359,562.456 678.693,570.456 672.5,577.5C 670.167,577.5 667.833,577.5 665.5,577.5C 668.925,565.449 671.258,553.116 672.5,540.5C 673.117,540.389 673.617,540.056 674,539.5C 674.499,534.845 674.666,530.179 674.5,525.5C 675.617,521.705 676.283,517.705 676.5,513.5C 676.7,510.37 677.366,507.37 678.5,504.5C 680.074,502.898 680.741,500.898 680.5,498.5C 682.38,492.552 684.046,486.552 685.5,480.5 Z"/></g>
<g><path style="opacity:1" fill="#d0e0f7" d="M 241.5,488.5 C 243.062,488.733 244.395,489.4 245.5,490.5C 245.315,495.57 244.648,500.57 243.5,505.5C 242.207,506.842 241.374,508.509 241,510.5C 240.499,514.51 239.999,518.51 239.5,522.5C 237.844,540.121 237.177,557.788 237.5,575.5C 236.507,567.016 236.174,558.349 236.5,549.5C 235.448,549.649 234.448,549.483 233.5,549C 229.284,544.072 224.95,539.239 220.5,534.5C 218.622,528.969 218.122,523.302 219,517.5C 221.67,512.147 224.337,506.813 227,501.5C 230.717,497.238 234.55,493.072 238.5,489C 239.448,488.517 240.448,488.351 241.5,488.5 Z"/></g>
<g><path style="opacity:1" fill="#2e488c" d="M 711.5,488.5 C 712.5,488.5 713.5,488.5 714.5,488.5C 723.08,490.714 731.746,491.048 740.5,489.5C 741.483,501.818 742.317,514.151 743,526.5C 746.536,530.239 749.036,534.573 750.5,539.5C 750.41,542.152 751.076,544.485 752.5,546.5C 754.955,556.046 755.621,565.713 754.5,575.5C 752.947,577.385 750.947,578.385 748.5,578.5C 747.871,575.603 746.871,572.936 745.5,570.5C 743.905,567.715 742.905,564.715 742.5,561.5C 742.065,558.843 741.065,556.509 739.5,554.5C 739.5,554.167 739.5,553.833 739.5,553.5C 739.245,551.033 738.245,549.033 736.5,547.5C 735.535,542.902 733.535,538.902 730.5,535.5C 723.707,522.275 718.207,508.609 714,494.5C 713.583,493.244 712.75,492.577 711.5,492.5C 712.833,491.167 712.833,489.833 711.5,488.5 Z"/></g>
<g><path style="opacity:1" fill="#d9e4fc" d="M 593.5,488.5 C 594.586,488.62 595.253,489.287 595.5,490.5C 596.899,497.02 598.732,503.354 601,509.5C 606.037,517.705 612.87,519.705 621.5,515.5C 624.263,515.256 626.429,513.923 628,511.5C 627.893,508.408 629.059,506.075 631.5,504.5C 634.14,504.954 636.473,506.121 638.5,508C 642.387,511.887 646.221,515.721 650,519.5C 652.462,527.085 655.462,534.419 659,541.5C 659.667,544.167 659.667,546.833 659,549.5C 655.405,551.456 651.572,551.956 647.5,551C 624.266,545.634 603.766,535.134 586,519.5C 584.906,517.922 584.072,516.255 583.5,514.5C 584.301,512.958 584.634,511.292 584.5,509.5C 586.158,505.587 587.824,501.587 589.5,497.5C 591.245,495.967 592.245,493.967 592.5,491.5C 592.557,490.391 592.89,489.391 593.5,488.5 Z"/></g>
<g><path style="opacity:1" fill="#233965" d="M 245.5,490.5 C 252.003,493.454 258.67,495.788 265.5,497.5C 264.5,497.5 263.5,497.5 262.5,497.5C 262.5,509.5 262.5,521.5 262.5,533.5C 260.824,534.183 260.157,535.517 260.5,537.5C 259.344,541.123 258.344,544.789 257.5,548.5C 252.168,538.177 246.835,527.843 241.5,517.5C 241.958,513.462 242.624,509.462 243.5,505.5C 244.648,500.57 245.315,495.57 245.5,490.5 Z"/></g>
<g><path style="opacity:1" fill="#eba88c" d="M 592.5,491.5 C 592.245,493.967 591.245,495.967 589.5,497.5C 589.755,495.033 590.755,493.033 592.5,491.5 Z"/></g>
<g><path style="opacity:1" fill="#e9f2f9" d="M 645.5,490.5 C 645.756,492.912 644.756,494.579 642.5,495.5C 649.889,510.71 659.722,524.043 672,535.5C 672.494,537.134 672.66,538.801 672.5,540.5C 671.258,553.116 668.925,565.449 665.5,577.5C 664.31,579.869 662.643,581.869 660.5,583.5C 658.62,583.229 657.287,583.896 656.5,585.5C 646.68,585.413 636.68,585.413 626.5,585.5C 626.5,585.167 626.5,584.833 626.5,584.5C 626.5,579.833 626.5,575.167 626.5,570.5C 611.5,570.5 596.5,570.5 581.5,570.5C 580.846,551.47 581.513,532.803 583.5,514.5C 584.072,516.255 584.906,517.922 586,519.5C 603.766,535.134 624.266,545.634 647.5,551C 651.572,551.956 655.405,551.456 659,549.5C 659.667,546.833 659.667,544.167 659,541.5C 655.462,534.419 652.462,527.085 650,519.5C 646.221,515.721 642.387,511.887 638.5,508C 636.473,506.121 634.14,504.954 631.5,504.5C 635.833,499.5 640.5,494.833 645.5,490.5 Z"/></g>
<g><path style="opacity:1" fill="#d4e0f9" d="M 711.5,492.5 C 712.75,492.577 713.583,493.244 714,494.5C 718.207,508.609 723.707,522.275 730.5,535.5C 729.178,535.67 728.011,535.337 727,534.5C 726.64,532.392 725.973,530.392 725,528.5C 723.833,531 722,532.833 719.5,534C 710.673,538.443 701.34,540.943 691.5,541.5C 691.665,538.482 691.498,535.482 691,532.5C 690.819,535.695 690.319,538.695 689.5,541.5C 689.335,538.15 689.502,534.817 690,531.5C 694.452,524.576 698.619,517.576 702.5,510.5C 705.495,504.503 708.495,498.503 711.5,492.5 Z"/></g>
<g><path style="opacity:1" fill="#2c468b" d="M 265.5,497.5 C 272.804,498.302 280.138,498.635 287.5,498.5C 288.693,498.97 289.36,499.97 289.5,501.5C 288.754,505.132 288.421,508.798 288.5,512.5C 286.547,518.556 285.547,524.889 285.5,531.5C 285.5,532.5 285.5,533.5 285.5,534.5C 284.679,537.641 284.179,540.975 284,544.5C 283.5,554.828 283.334,565.161 283.5,575.5C 278.8,576.557 274.134,576.557 269.5,575.5C 268.232,573.095 267.565,570.428 267.5,567.5C 267.038,562.838 266.538,558.171 266,553.5C 265.722,552.584 265.222,551.918 264.5,551.5C 264.5,551.167 264.5,550.833 264.5,550.5C 263.838,546.534 263.505,542.534 263.5,538.5C 263.784,536.585 263.451,534.919 262.5,533.5C 262.5,521.5 262.5,509.5 262.5,497.5C 263.5,497.5 264.5,497.5 265.5,497.5 Z"/></g>
<g><path style="opacity:1" fill="#e9f1f9" d="M 384.5,505.5 C 388.487,511.463 392.487,517.463 396.5,523.5C 396.842,524.338 397.508,524.672 398.5,524.5C 398.5,524.833 398.5,525.167 398.5,525.5C 397.504,538.99 397.171,552.656 397.5,566.5C 390.765,563.634 384.098,560.467 377.5,557C 375.5,556.333 373.5,556.333 371.5,557C 370.944,557.383 370.611,557.883 370.5,558.5C 367.746,560.053 366.913,562.386 368,565.5C 369.356,568.686 371.522,571.019 374.5,572.5C 364.652,572.173 354.986,572.506 345.5,573.5C 343.983,573.511 342.816,574.177 342,575.5C 341.264,578.592 341.431,581.592 342.5,584.5C 342.5,584.833 342.5,585.167 342.5,585.5C 327.958,585.457 313.624,585.457 299.5,585.5C 299.715,583.821 299.048,582.821 297.5,582.5C 292.222,582.358 287.888,580.358 284.5,576.5C 284.5,572.833 284.5,569.167 284.5,565.5C 297.697,567.923 310.364,566.423 322.5,561C 327.474,555.104 331.14,548.437 333.5,541C 332.485,526.36 337.152,514.026 347.5,504C 349.769,501.977 352.436,501.144 355.5,501.5C 355.54,504.425 354.707,507.091 353,509.5C 346.769,517.412 341.769,526.078 338,535.5C 337.333,542.833 337.333,550.167 338,557.5C 339.182,559.357 340.849,560.357 343,560.5C 352.511,554.997 360.844,547.997 368,539.5C 371.675,533.827 375.342,528.161 379,522.5C 381.318,516.863 383.151,511.197 384.5,505.5 Z"/></g>
<g><path style="opacity:1" fill="#7488b8" d="M 680.5,498.5 C 680.741,500.898 680.074,502.898 678.5,504.5C 678.259,502.102 678.926,500.102 680.5,498.5 Z"/></g>
<g><path style="opacity:1" fill="#687da6" d="M 243.5,505.5 C 242.624,509.462 241.958,513.462 241.5,517.5C 241.204,519.403 240.537,521.07 239.5,522.5C 239.999,518.51 240.499,514.51 241,510.5C 241.374,508.509 242.207,506.842 243.5,505.5 Z"/></g>
<g><path style="opacity:1" fill="#a0b1d2" d="M 288.5,512.5 C 288.577,516.215 288.244,519.881 287.5,523.5C 287.435,526.428 286.768,529.095 285.5,531.5C 285.547,524.889 286.547,518.556 288.5,512.5 Z"/></g>
<g><path style="opacity:1" fill="#899bc6" d="M 676.5,513.5 C 676.283,517.705 675.617,521.705 674.5,525.5C 674.083,521.183 674.75,517.183 676.5,513.5 Z"/></g>
<g><path style="opacity:1" fill="#9db0f5" d="M 412.5,577.5 C 411.55,574.885 409.883,572.885 407.5,571.5C 407.179,569.952 406.179,569.285 404.5,569.5C 404.421,568.07 404.754,566.736 405.5,565.5C 404.065,564.071 403.065,562.405 402.5,560.5C 402.995,556.175 403.995,552.008 405.5,548C 403.999,546.748 402.332,545.748 400.5,545C 399.941,544.275 399.608,543.442 399.5,542.5C 400.333,539.167 401.167,535.833 402,532.5C 403.404,528.721 405.904,527.721 409.5,529.5C 409.959,533.176 410.292,536.842 410.5,540.5C 411.086,540.291 411.586,539.957 412,539.5C 412.333,536.5 412.667,533.5 413,530.5C 415.739,527.882 418.573,525.382 421.5,523C 425.257,521.778 427.924,522.945 429.5,526.5C 428.802,527.863 428.802,529.029 429.5,530C 432.658,531.469 435.991,532.469 439.5,533C 440.047,533.925 440.713,534.758 441.5,535.5C 443.069,533.012 444.736,530.512 446.5,528C 448.567,527.464 450.401,527.964 452,529.5C 452.694,533.002 452.194,536.336 450.5,539.5C 452.479,545.678 452.979,552.012 452,558.5C 449.877,558.966 448.377,560.133 447.5,562C 449.265,565.137 450.931,568.304 452.5,571.5C 455.057,578.428 452.89,581.095 446,579.5C 443.847,581.444 441.347,581.944 438.5,581C 435.303,577.142 432.137,573.309 429,569.5C 429.468,572.191 430.302,574.858 431.5,577.5C 431.43,578.772 431.097,579.938 430.5,581C 428.5,581.667 426.5,581.667 424.5,581C 422.333,578.167 420.167,575.333 418,572.5C 418.155,574.811 418.155,577.144 418,579.5C 416.89,581.037 415.39,581.703 413.5,581.5C 413.768,579.901 413.434,578.568 412.5,577.5 Z"/></g>
<g><path style="opacity:1" fill="#2b458a" d="M 241.5,517.5 C 246.835,527.843 252.168,538.177 257.5,548.5C 256.85,550.435 256.517,552.435 256.5,554.5C 255.076,556.515 254.41,558.848 254.5,561.5C 253.337,566.137 252.337,570.804 251.5,575.5C 246.863,578.079 242.196,578.079 237.5,575.5C 237.177,557.788 237.844,540.121 239.5,522.5C 240.537,521.07 241.204,519.403 241.5,517.5 Z"/></g>
<g><path style="opacity:1" fill="#e8672d" d="M 456.5,522.5 C 461.652,526.485 466.652,530.652 471.5,535C 477.257,538.212 483.257,540.878 489.5,543C 497.472,549.588 497.472,556.088 489.5,562.5C 478.104,564.286 467.104,562.953 456.5,558.5C 456.5,546.5 456.5,534.5 456.5,522.5 Z"/></g>
<g><path style="opacity:1" fill="#d4dff9" d="M 398.5,525.5 C 398.185,539.579 398.518,553.579 399.5,567.5C 398.508,567.672 397.842,567.338 397.5,566.5C 397.171,552.656 397.504,538.99 398.5,525.5 Z"/></g>
<g><path style="opacity:1" fill="#d24b44" d="M 535.5,570.5 C 528.5,570.5 521.5,570.5 514.5,570.5C 514.5,556.5 514.5,542.5 514.5,528.5C 521.5,528.5 528.5,528.5 535.5,528.5C 535.5,542.5 535.5,556.5 535.5,570.5 Z"/></g>
<g><path style="opacity:1" fill="#dc6e60" d="M 578.5,570.5 C 578.167,570.5 577.833,570.5 577.5,570.5C 577.5,556.833 577.5,543.167 577.5,529.5C 571.167,529.5 564.833,529.5 558.5,529.5C 558.5,543.167 558.5,556.833 558.5,570.5C 558.167,570.5 557.833,570.5 557.5,570.5C 557.5,556.5 557.5,542.5 557.5,528.5C 564.5,528.5 571.5,528.5 578.5,528.5C 578.5,542.5 578.5,556.5 578.5,570.5 Z"/></g>
<g><path style="opacity:1" fill="#d04741" d="M 577.5,570.5 C 571.167,570.5 564.833,570.5 558.5,570.5C 558.5,556.833 558.5,543.167 558.5,529.5C 564.833,529.5 571.167,529.5 577.5,529.5C 577.5,543.167 577.5,556.833 577.5,570.5 Z"/></g>
<g><path style="opacity:1" fill="#e9f2fa" d="M 730.5,535.5 C 733.535,538.902 735.535,542.902 736.5,547.5C 736.755,549.967 737.755,551.967 739.5,553.5C 739.5,553.833 739.5,554.167 739.5,554.5C 739.166,557.491 740.166,559.824 742.5,561.5C 742.905,564.715 743.905,567.715 745.5,570.5C 746.051,573.807 746.384,577.14 746.5,580.5C 746.167,581.5 745.5,582.167 744.5,582.5C 742.067,582.273 740.401,583.273 739.5,585.5C 718.167,585.5 696.833,585.5 675.5,585.5C 675.768,583.901 675.434,582.568 674.5,581.5C 673.194,580.533 672.527,579.199 672.5,577.5C 678.693,570.456 683.359,562.456 686.5,553.5C 688.245,549.8 689.245,545.8 689.5,541.5C 690.319,538.695 690.819,535.695 691,532.5C 691.498,535.482 691.665,538.482 691.5,541.5C 701.34,540.943 710.673,538.443 719.5,534C 722,532.833 723.833,531 725,528.5C 725.973,530.392 726.64,532.392 727,534.5C 728.011,535.337 729.178,535.67 730.5,535.5 Z"/></g>
<g><path style="opacity:1" fill="#e6eff8" d="M 285.5,543.5 C 285.5,540.5 285.5,537.5 285.5,534.5C 285.5,533.5 285.5,532.5 285.5,531.5C 286.768,529.095 287.435,526.428 287.5,523.5C 288.708,522.766 290.041,522.433 291.5,522.5C 292.124,529.413 290.79,535.913 287.5,542C 287.164,543.03 286.497,543.53 285.5,543.5 Z"/></g>
<g><path style="opacity:1" fill="#6f84af" d="M 262.5,533.5 C 263.451,534.919 263.784,536.585 263.5,538.5C 262.778,538.082 262.278,537.416 262,536.5C 261.617,537.056 261.117,537.389 260.5,537.5C 260.157,535.517 260.824,534.183 262.5,533.5 Z"/></g>
<g><path style="opacity:1" fill="#c1d1e9" d="M 263.5,538.5 C 263.505,542.534 263.838,546.534 264.5,550.5C 263.85,550.196 263.183,549.863 262.5,549.5C 261.089,551.914 259.089,553.581 256.5,554.5C 256.517,552.435 256.85,550.435 257.5,548.5C 258.344,544.789 259.344,541.123 260.5,537.5C 261.117,537.389 261.617,537.056 262,536.5C 262.278,537.416 262.778,538.082 263.5,538.5 Z"/></g>
<g><path style="opacity:1" fill="#8394be" d="M 750.5,539.5 C 752.163,541.438 752.829,543.772 752.5,546.5C 751.076,544.485 750.41,542.152 750.5,539.5 Z"/></g>
<g><path style="opacity:1" fill="#6a7eb0" d="M 689.5,541.5 C 689.245,545.8 688.245,549.8 686.5,553.5C 686.755,549.2 687.755,545.2 689.5,541.5 Z"/></g>
<g><path style="opacity:1" fill="#e5eef7" d="M 264.5,550.5 C 264.5,550.833 264.5,551.167 264.5,551.5C 264.77,557.097 265.77,562.43 267.5,567.5C 267.565,570.428 268.232,573.095 269.5,575.5C 270.634,578.37 271.3,581.37 271.5,584.5C 271.5,584.833 271.5,585.167 271.5,585.5C 269.64,584.929 267.973,584.929 266.5,585.5C 266.715,583.821 266.048,582.821 264.5,582.5C 262.167,581.833 259.833,581.167 257.5,580.5C 254.268,580.228 252.268,578.562 251.5,575.5C 252.337,570.804 253.337,566.137 254.5,561.5C 255.924,559.485 256.59,557.152 256.5,554.5C 259.089,553.581 261.089,551.914 262.5,549.5C 263.183,549.863 263.85,550.196 264.5,550.5 Z"/></g>
<g><path style="opacity:1" fill="#8495be" d="M 736.5,547.5 C 738.245,549.033 739.245,551.033 739.5,553.5C 737.755,551.967 736.755,549.967 736.5,547.5 Z"/></g>
<g><path style="opacity:1" fill="#a1afcf" d="M 739.5,554.5 C 741.065,556.509 742.065,558.843 742.5,561.5C 740.166,559.824 739.166,557.491 739.5,554.5 Z"/></g>
<g><path style="opacity:1" fill="#99aace" d="M 285.5,534.5 C 285.5,537.5 285.5,540.5 285.5,543.5C 284.962,550.822 284.629,558.155 284.5,565.5C 284.5,569.167 284.5,572.833 284.5,576.5C 283.833,576.5 283.5,576.167 283.5,575.5C 283.334,565.161 283.5,554.828 284,544.5C 284.179,540.975 284.679,537.641 285.5,534.5 Z"/></g>
<g><path style="opacity:1" fill="#e96a34" d="M 376.5,560.5 C 379.333,562.345 382.333,564.011 385.5,565.5C 384.483,568.797 383.15,571.797 381.5,574.5C 379.254,573.545 376.921,572.878 374.5,572.5C 371.522,571.019 369.356,568.686 368,565.5C 366.913,562.386 367.746,560.053 370.5,558.5C 372.117,557.962 373.784,557.629 375.5,557.5C 375.263,558.791 375.596,559.791 376.5,560.5 Z"/></g>
<g><path style="opacity:1" fill="#8294be" d="M 256.5,554.5 C 256.59,557.152 255.924,559.485 254.5,561.5C 254.41,558.848 255.076,556.515 256.5,554.5 Z"/></g>
<g><path style="opacity:1" fill="#7486b5" d="M 264.5,551.5 C 265.222,551.918 265.722,552.584 266,553.5C 266.538,558.171 267.038,562.838 267.5,567.5C 265.77,562.43 264.77,557.097 264.5,551.5 Z"/></g>
<g><path style="opacity:1" fill="#f4854f" d="M 397.5,566.5 C 397.842,567.338 398.508,567.672 399.5,567.5C 401.849,569.341 404.515,570.674 407.5,571.5C 409.883,572.885 411.55,574.885 412.5,577.5C 412.5,578.833 412.5,580.167 412.5,581.5C 411.512,582.795 410.512,584.128 409.5,585.5C 406.15,585.665 402.817,585.498 399.5,585C 395.419,582.293 391.086,580.126 386.5,578.5C 385.035,577.263 383.368,576.263 381.5,575.5C 381.5,575.167 381.5,574.833 381.5,574.5C 383.15,571.797 384.483,568.797 385.5,565.5C 390.861,568.847 396.528,571.681 402.5,574C 403.833,574.667 405.167,574.667 406.5,574C 397.657,569.078 388.657,564.412 379.5,560C 378.251,559.26 377.251,559.427 376.5,560.5C 375.596,559.791 375.263,558.791 375.5,557.5C 373.784,557.629 372.117,557.962 370.5,558.5C 370.611,557.883 370.944,557.383 371.5,557C 373.5,556.333 375.5,556.333 377.5,557C 384.098,560.467 390.765,563.634 397.5,566.5 Z"/></g>
<g><path style="opacity:1" fill="#f8a67b" d="M 385.5,565.5 C 382.333,564.011 379.333,562.345 376.5,560.5C 377.251,559.427 378.251,559.26 379.5,560C 388.657,564.412 397.657,569.078 406.5,574C 405.167,574.667 403.833,574.667 402.5,574C 396.528,571.681 390.861,568.847 385.5,565.5 Z"/></g>
<g><path style="opacity:1" fill="#eae3e2" d="M 552.5,560.5 C 554.402,563.337 555.069,566.671 554.5,570.5C 550.5,570.5 546.5,570.5 542.5,570.5C 546.167,567.5 549.5,564.167 552.5,560.5 Z"/></g>
<g><path style="opacity:1" fill="#3f4f8f" d="M 511.5,570.5 C 511.833,570.5 512.167,570.5 512.5,570.5C 513.167,570.5 513.833,570.5 514.5,570.5C 521.5,570.5 528.5,570.5 535.5,570.5C 536.5,570.5 537.5,570.5 538.5,570.5C 538.833,570.5 539.167,570.5 539.5,570.5C 540.5,570.5 541.5,570.5 542.5,570.5C 546.5,570.5 550.5,570.5 554.5,570.5C 555.5,570.5 556.5,570.5 557.5,570.5C 557.833,570.5 558.167,570.5 558.5,570.5C 564.833,570.5 571.167,570.5 577.5,570.5C 577.833,570.5 578.167,570.5 578.5,570.5C 579.5,570.5 580.5,570.5 581.5,570.5C 596.5,570.5 611.5,570.5 626.5,570.5C 626.5,575.167 626.5,579.833 626.5,584.5C 625.167,584.5 623.833,584.5 622.5,584.5C 622.5,581.167 622.5,577.833 622.5,574.5C 606.833,574.5 591.167,574.5 575.5,574.5C 570.167,574.5 564.833,574.5 559.5,574.5C 550.833,574.5 542.167,574.5 533.5,574.5C 528.167,574.5 522.833,574.5 517.5,574.5C 515.833,574.5 514.167,574.5 512.5,574.5C 509.5,574.5 506.5,574.5 503.5,574.5C 503.5,577.833 503.5,581.167 503.5,584.5C 502.5,584.5 501.5,584.5 500.5,584.5C 500.5,580.167 500.5,575.833 500.5,571.5C 503.962,570.518 507.629,570.185 511.5,570.5 Z"/></g>
<g><path style="opacity:1" fill="#766281" d="M 500.5,571.5 C 500.5,575.833 500.5,580.167 500.5,584.5C 501.5,584.5 502.5,584.5 503.5,584.5C 503.5,584.833 503.5,585.167 503.5,585.5C 502.167,585.5 500.833,585.5 499.5,585.5C 499.181,580.637 499.514,575.97 500.5,571.5 Z"/></g>
<g><path style="opacity:1" fill="#85a6de" d="M 345.5,573.5 C 354.986,572.506 364.652,572.173 374.5,572.5C 376.921,572.878 379.254,573.545 381.5,574.5C 381.5,574.833 381.5,575.167 381.5,575.5C 373.542,576.403 365.542,576.736 357.5,576.5C 353.774,576.823 350.107,576.489 346.5,575.5C 351.132,574.672 355.798,574.172 360.5,574C 355.511,573.501 350.511,573.334 345.5,573.5 Z"/></g>
<g><path style="opacity:1" fill="#a0adcb" d="M 575.5,575.5 C 575.5,575.167 575.5,574.833 575.5,574.5C 591.167,574.5 606.833,574.5 622.5,574.5C 622.5,577.833 622.5,581.167 622.5,584.5C 623.833,584.5 625.167,584.5 626.5,584.5C 626.5,584.833 626.5,585.167 626.5,585.5C 624.833,585.5 623.167,585.5 621.5,585.5C 621.5,582.5 621.5,579.5 621.5,576.5C 607.677,575.504 593.677,575.171 579.5,575.5C 578.167,575.5 576.833,575.5 575.5,575.5 Z"/></g>
<g><path style="opacity:1" fill="#73a4ef" d="M 381.5,575.5 C 383.368,576.263 385.035,577.263 386.5,578.5C 386.326,580.861 385.993,583.194 385.5,585.5C 371.167,585.5 356.833,585.5 342.5,585.5C 342.5,585.167 342.5,584.833 342.5,584.5C 347.875,584.828 353.208,584.495 358.5,583.5C 357.626,581.253 357.292,578.92 357.5,576.5C 365.542,576.736 373.542,576.403 381.5,575.5 Z"/></g>
<g><path style="opacity:1" fill="#1e3966" d="M 269.5,575.5 C 274.134,576.557 278.8,576.557 283.5,575.5C 283.5,576.167 283.833,576.5 284.5,576.5C 287.888,580.358 292.222,582.358 297.5,582.5C 289.231,584.47 280.565,585.136 271.5,584.5C 271.3,581.37 270.634,578.37 269.5,575.5 Z"/></g>
<g><path style="opacity:1" fill="#324b8f" d="M 345.5,573.5 C 350.511,573.334 355.511,573.501 360.5,574C 355.798,574.172 351.132,574.672 346.5,575.5C 350.107,576.489 353.774,576.823 357.5,576.5C 357.292,578.92 357.626,581.253 358.5,583.5C 353.208,584.495 347.875,584.828 342.5,584.5C 341.431,581.592 341.264,578.592 342,575.5C 342.816,574.177 343.983,573.511 345.5,573.5 Z"/></g>
<g><path style="opacity:1" fill="#c54f4d" d="M 559.5,575.5 C 559.5,575.167 559.5,574.833 559.5,574.5C 564.833,574.5 570.167,574.5 575.5,574.5C 575.5,574.833 575.5,575.167 575.5,575.5C 570.167,579.5 564.833,579.5 559.5,575.5 Z"/></g>
<g><path style="opacity:1" fill="#183562" d="M 237.5,575.5 C 242.196,578.079 246.863,578.079 251.5,575.5C 252.268,578.562 254.268,580.228 257.5,580.5C 258.058,581.79 259.058,582.623 260.5,583C 253.508,583.5 246.508,583.666 239.5,583.5C 238.469,581.039 237.802,578.373 237.5,575.5 Z"/></g>
<g><path style="opacity:1" fill="#bb8377" d="M 512.5,574.5 C 512.5,574.833 512.5,575.167 512.5,575.5C 509.833,575.5 507.167,575.5 504.5,575.5C 504.5,578.5 504.5,581.5 504.5,584.5C 509.167,584.5 513.833,584.5 518.5,584.5C 513.695,585.487 508.695,585.821 503.5,585.5C 503.5,585.167 503.5,584.833 503.5,584.5C 503.5,581.167 503.5,577.833 503.5,574.5C 506.5,574.5 509.5,574.5 512.5,574.5 Z"/></g>
<g><path style="opacity:1" fill="#f5834a" d="M 512.5,575.5 C 514.641,578.472 517.308,580.972 520.5,583C 519.944,583.383 519.611,583.883 519.5,584.5C 519.167,584.5 518.833,584.5 518.5,584.5C 513.833,584.5 509.167,584.5 504.5,584.5C 504.5,581.5 504.5,578.5 504.5,575.5C 507.167,575.5 509.833,575.5 512.5,575.5 Z"/></g>
<g><path style="opacity:1" fill="#c95d58" d="M 517.5,574.5 C 522.833,574.5 528.167,574.5 533.5,574.5C 533.5,574.833 533.5,575.167 533.5,575.5C 527.679,581.078 522.346,580.745 517.5,574.5 Z"/></g>
<g><path style="opacity:1" fill="#f3ceae" d="M 512.5,575.5 C 512.5,575.167 512.5,574.833 512.5,574.5C 514.167,574.5 515.833,574.5 517.5,574.5C 522.346,580.745 527.679,581.078 533.5,575.5C 537.876,574.888 538.543,576.054 535.5,579C 530.552,581.251 525.552,583.085 520.5,584.5C 520.167,584.5 519.833,584.5 519.5,584.5C 519.611,583.883 519.944,583.383 520.5,583C 517.308,580.972 514.641,578.472 512.5,575.5 Z"/></g>
<g><path style="opacity:1" fill="#2a406a" d="M 665.5,577.5 C 667.833,577.5 670.167,577.5 672.5,577.5C 672.527,579.199 673.194,580.533 674.5,581.5C 674.5,582.5 674.5,583.5 674.5,584.5C 669.637,584.819 664.97,584.486 660.5,583.5C 662.643,581.869 664.31,579.869 665.5,577.5 Z"/></g>
<g><path style="opacity:1" fill="#a5b1cc" d="M 745.5,570.5 C 746.871,572.936 747.871,575.603 748.5,578.5C 748.167,579.5 747.5,580.167 746.5,580.5C 746.384,577.14 746.051,573.807 745.5,570.5 Z"/></g>
<g><path style="opacity:1" fill="#273d68" d="M 754.5,575.5 C 754.604,577.703 755.27,579.703 756.5,581.5C 756.5,582.5 756.5,583.5 756.5,584.5C 752.154,584.666 747.821,584.499 743.5,584C 744.056,583.617 744.389,583.117 744.5,582.5C 745.5,582.167 746.167,581.5 746.5,580.5C 747.5,580.167 748.167,579.5 748.5,578.5C 750.947,578.385 752.947,577.385 754.5,575.5 Z"/></g>
<g><path style="opacity:1" fill="#3b5279" d="M 257.5,580.5 C 259.833,581.167 262.167,581.833 264.5,582.5C 264.611,583.117 264.944,583.617 265.5,584C 256.84,584.5 248.173,584.666 239.5,584.5C 239.5,584.167 239.5,583.833 239.5,583.5C 246.508,583.666 253.508,583.5 260.5,583C 259.058,582.623 258.058,581.79 257.5,580.5 Z"/></g>
<g><path style="opacity:1" fill="#7d8fa9" d="M 264.5,582.5 C 266.048,582.821 266.715,583.821 266.5,585.5C 257.318,585.827 248.318,585.493 239.5,584.5C 248.173,584.666 256.84,584.5 265.5,584C 264.944,583.617 264.611,583.117 264.5,582.5 Z"/></g>
<g><path style="opacity:1" fill="#7f91aa" d="M 297.5,582.5 C 299.048,582.821 299.715,583.821 299.5,585.5C 290.167,585.5 280.833,585.5 271.5,585.5C 271.5,585.167 271.5,584.833 271.5,584.5C 280.565,585.136 289.231,584.47 297.5,582.5 Z"/></g>
<g><path style="opacity:1" fill="#ced9f9" d="M 412.5,581.5 C 412.414,582.496 412.748,583.329 413.5,584C 426.162,584.5 438.829,584.667 451.5,584.5C 437.677,585.496 423.677,585.829 409.5,585.5C 410.512,584.128 411.512,582.795 412.5,581.5 Z"/></g>
<g><path style="opacity:1" fill="#eaf1f7" d="M 533.5,575.5 C 533.5,575.167 533.5,574.833 533.5,574.5C 542.167,574.5 550.833,574.5 559.5,574.5C 559.5,574.833 559.5,575.167 559.5,575.5C 558.5,575.5 557.5,575.5 556.5,575.5C 556.297,577.39 556.963,578.89 558.5,580C 564.463,583.326 570.463,583.326 576.5,580C 578.141,578.871 579.141,577.371 579.5,575.5C 593.677,575.171 607.677,575.504 621.5,576.5C 620.523,579.287 620.19,582.287 620.5,585.5C 586.996,585.832 553.662,585.498 520.5,584.5C 525.552,583.085 530.552,581.251 535.5,579C 538.543,576.054 537.876,574.888 533.5,575.5 Z"/></g>
<g><path style="opacity:1" fill="#f4d0b2" d="M 559.5,575.5 C 564.833,579.5 570.167,579.5 575.5,575.5C 576.833,575.5 578.167,575.5 579.5,575.5C 579.141,577.371 578.141,578.871 576.5,580C 570.463,583.326 564.463,583.326 558.5,580C 556.963,578.89 556.297,577.39 556.5,575.5C 557.5,575.5 558.5,575.5 559.5,575.5 Z"/></g>
<g><path style="opacity:1" fill="#8794ae" d="M 674.5,581.5 C 675.434,582.568 675.768,583.901 675.5,585.5C 669.167,585.5 662.833,585.5 656.5,585.5C 657.287,583.896 658.62,583.229 660.5,583.5C 664.97,584.486 669.637,584.819 674.5,584.5C 674.5,583.5 674.5,582.5 674.5,581.5 Z"/></g>
<g><path style="opacity:1" fill="#808ea9" d="M 756.5,581.5 C 757.434,582.568 757.768,583.901 757.5,585.5C 751.5,585.5 745.5,585.5 739.5,585.5C 740.401,583.273 742.067,582.273 744.5,582.5C 744.389,583.117 744.056,583.617 743.5,584C 747.821,584.499 752.154,584.666 756.5,584.5C 756.5,583.5 756.5,582.5 756.5,581.5 Z"/></g>
</svg>
