<?xml version="1.0" encoding="UTF-8"?>
<!DOCTYPE svg PUBLIC "-//W3C//DTD SVG 1.1//EN" "http://www.w3.org/Graphics/SVG/1.1/DTD/svg11.dtd">
<svg xmlns="http://www.w3.org/2000/svg" version="1.1" width="941px" height="903px" style="shape-rendering:geometricPrecision; text-rendering:geometricPrecision; image-rendering:optimizeQuality; fill-rule:evenodd; clip-rule:evenodd" xmlns:xlink="http://www.w3.org/1999/xlink">
<g><path style="opacity:1" fill="#e1e6fa" d="M -0.5,-0.5 C 313.167,-0.5 626.833,-0.5 940.5,-0.5C 940.5,300.5 940.5,601.5 940.5,902.5C 626.833,902.5 313.167,902.5 -0.5,902.5C -0.5,601.5 -0.5,300.5 -0.5,-0.5 Z"/></g>
<g><path style="opacity:1" fill="#a48ad5" d="M 457.5,76.5 C 452.797,76.4372 448.13,76.7705 443.5,77.5C 446.017,76.027 448.85,75.3603 452,75.5C 454.033,75.5056 455.866,75.8389 457.5,76.5 Z"/></g>
<g><path style="opacity:1" fill="#815bc3" d="M 457.5,76.5 C 461.858,76.9189 465.858,78.2523 469.5,80.5C 470.833,82.5 472.5,84.1667 474.5,85.5C 480.013,93.285 479.679,100.952 473.5,108.5C 468.838,112.166 463.838,115.333 458.5,118C 456.457,119.708 454.79,121.708 453.5,124C 449.967,124.243 446.633,123.743 443.5,122.5C 443.448,120.097 443.781,117.764 444.5,115.5C 445.614,114.115 446.614,112.615 447.5,111C 453.085,107.625 458.585,104.125 464,100.5C 466.578,95.9337 465.744,92.2671 461.5,89.5C 461.389,88.8826 461.056,88.3826 460.5,88C 456.903,86.7235 453.236,86.3901 449.5,87C 448.058,87.3768 447.058,88.2101 446.5,89.5C 444.833,90.5 443.5,91.8333 442.5,93.5C 439.14,93.3841 435.807,93.0508 432.5,92.5C 431.305,92.1344 430.639,91.301 430.5,90C 432.732,83.6004 437.065,79.4338 443.5,77.5C 448.13,76.7705 452.797,76.4372 457.5,76.5 Z"/></g>
<g><path style="opacity:1" fill="#baabe1" d="M 469.5,80.5 C 472.167,81.1667 473.833,82.8333 474.5,85.5C 472.5,84.1667 470.833,82.5 469.5,80.5 Z"/></g>
<g><path style="opacity:1" fill="#bbace3" d="M 461.5,89.5 C 456.5,88.1667 451.5,88.1667 446.5,89.5C 447.058,88.2101 448.058,87.3768 449.5,87C 453.236,86.3901 456.903,86.7235 460.5,88C 461.056,88.3826 461.389,88.8826 461.5,89.5 Z"/></g>
<g><path style="opacity:1" fill="#ab97da" d="M 432.5,92.5 C 435.807,93.0508 439.14,93.3841 442.5,93.5C 439.041,94.8647 435.708,94.5314 432.5,92.5 Z"/></g>
<g><path style="opacity:1" fill="#f1c4cb" d="M 355.5,117.5 C 361.194,116.032 366.861,116.532 372.5,119C 373.252,119.671 373.586,120.504 373.5,121.5C 367.952,118.522 361.952,117.189 355.5,117.5 Z"/></g>
<g><path style="opacity:1" fill="#fea8a7" d="M 355.5,117.5 C 361.952,117.189 367.952,118.522 373.5,121.5C 373.731,124.785 372.397,127.285 369.5,129C 356.008,136.161 344.674,145.827 335.5,158C 333.612,159.394 331.612,160.56 329.5,161.5C 328.5,161.833 327.833,162.5 327.5,163.5C 319.912,173.6 312.079,183.6 304,193.5C 302.304,195.56 301.137,197.893 300.5,200.5C 303.416,203.315 306.416,206.149 309.5,209C 315.863,213.51 322.196,218.01 328.5,222.5C 328.833,222.5 329.167,222.5 329.5,222.5C 333.587,226.922 338.254,230.589 343.5,233.5C 343.5,234.167 343.833,234.5 344.5,234.5C 347.799,239.764 350.632,245.431 353,251.5C 354.336,260.221 353.336,268.554 350,276.5C 348.167,278.333 346.333,280.167 344.5,282C 342.19,282.497 339.857,282.663 337.5,282.5C 336.502,278.495 334.502,275.161 331.5,272.5C 331.158,271.662 330.492,271.328 329.5,271.5C 317.408,260.6 304.742,250.1 291.5,240C 281.985,232.147 272.818,223.98 264,215.5C 261.417,212.003 259.084,208.336 257,204.5C 256.333,202.167 256.333,199.833 257,197.5C 274.348,179.153 292.681,161.82 312,145.5C 316.806,138.727 321.972,132.227 327.5,126C 336.671,122.217 346.004,119.384 355.5,117.5 Z"/></g>
<g><path style="opacity:1" fill="#a993d8" d="M 444.5,115.5 C 443.781,117.764 443.448,120.097 443.5,122.5C 442.853,121.726 442.52,120.726 442.5,119.5C 442.34,117.645 443.007,116.312 444.5,115.5 Z"/></g>
<g><path style="opacity:1" fill="#273339" d="M 373.5,121.5 C 381.941,121.153 390.275,121.82 398.5,123.5C 400.033,125.245 402.033,126.245 404.5,126.5C 417.372,133.279 425.705,143.612 429.5,157.5C 429.831,187.671 429.498,217.671 428.5,247.5C 423.933,241.437 418.266,236.603 411.5,233C 407.914,231.892 404.247,231.392 400.5,231.5C 397.5,231.5 394.5,231.5 391.5,231.5C 391.5,227.167 391.5,222.833 391.5,218.5C 392.833,218.5 394.167,218.5 395.5,218.5C 401.609,220.134 407.609,219.634 413.5,217C 417.112,212.603 419.779,207.77 421.5,202.5C 423.018,198.434 423.851,194.101 424,189.5C 427.31,185.785 428.31,181.452 427,176.5C 425.961,175.29 424.794,174.29 423.5,173.5C 423.784,171.585 423.451,169.919 422.5,168.5C 422.784,166.585 422.451,164.919 421.5,163.5C 421.714,156.118 419.048,150.118 413.5,145.5C 410.641,150.526 406.641,154.359 401.5,157C 392.306,160.285 383.306,163.951 374.5,168C 372.218,170.397 370.884,173.231 370.5,176.5C 365.865,177.778 361.198,177.778 356.5,176.5C 356.167,176.5 355.833,176.5 355.5,176.5C 354.551,175.848 353.385,175.514 352,175.5C 349.992,175.307 348.492,175.974 347.5,177.5C 345.827,178.343 344.66,179.676 344,181.5C 342.151,189.485 344.651,195.485 351.5,199.5C 353.948,200.473 356.615,200.806 359.5,200.5C 359.5,211.167 359.5,221.833 359.5,232.5C 354.155,232.687 348.822,233.02 343.5,233.5C 338.254,230.589 333.587,226.922 329.5,222.5C 329.5,202.167 329.5,181.833 329.5,161.5C 331.612,160.56 333.612,159.394 335.5,158C 344.674,145.827 356.008,136.161 369.5,129C 372.397,127.285 373.731,124.785 373.5,121.5 Z"/></g>
<g><path style="opacity:1" fill="#ccbde8" d="M 524.5,121.5 C 528.912,121.902 533.246,122.735 537.5,124C 539.348,126.179 541.515,128.013 544,129.5C 550.021,137.913 549.855,146.08 543.5,154C 536.964,155.913 530.298,157.246 523.5,158C 519.934,161.297 516.434,161.131 513,157.5C 512.49,153.641 514.157,150.974 518,149.5C 523.81,148.188 529.643,147.022 535.5,146C 538.207,144.136 539.041,141.636 538,138.5C 533.188,132.14 527.188,130.806 520,134.5C 517.042,133.377 514.876,131.377 513.5,128.5C 513.637,126.893 514.304,125.559 515.5,124.5C 518.582,123.365 521.582,122.365 524.5,121.5 Z"/></g>
<g><path style="opacity:1" fill="#7b8693" d="M 398.5,123.5 C 400.967,123.755 402.967,124.755 404.5,126.5C 402.033,126.245 400.033,125.245 398.5,123.5 Z"/></g>
<g><path style="opacity:1" fill="#835dc4" d="M 440.5,128.5 C 444.65,128.601 448.483,129.601 452,131.5C 452.051,135.157 451.718,138.823 451,142.5C 449.938,143.097 448.772,143.43 447.5,143.5C 444.154,142.83 440.821,142.163 437.5,141.5C 437.756,136.949 438.756,132.616 440.5,128.5 Z"/></g>
<g><path style="opacity:1" fill="#f4a3a2" d="M 421.5,163.5 C 421.784,165.415 421.451,167.081 420.5,168.5C 418.989,166.559 416.989,166.059 414.5,167C 414.043,167.414 413.709,167.914 413.5,168.5C 414.243,169.182 414.909,169.849 415.5,170.5C 413.924,171.143 412.59,172.143 411.5,173.5C 408.958,173.706 407.291,175.039 406.5,177.5C 404.257,178.474 401.924,178.808 399.5,178.5C 399.439,176.408 398.439,174.908 396.5,174C 388.63,171.138 381.963,172.638 376.5,178.5C 373.918,178.975 371.918,178.308 370.5,176.5C 370.884,173.231 372.218,170.397 374.5,168C 383.306,163.951 392.306,160.285 401.5,157C 406.641,154.359 410.641,150.526 413.5,145.5C 419.048,150.118 421.714,156.118 421.5,163.5 Z"/></g>
<g><path style="opacity:1" fill="#485d67" d="M 728.5,149.5 C 731.634,150.901 734.634,152.568 737.5,154.5C 737.557,155.609 737.89,156.609 738.5,157.5C 732.072,158.714 726.405,161.547 721.5,166C 665.019,197.72 609.019,229.887 553.5,262.5C 550.26,260.864 547.26,258.864 544.5,256.5C 543.264,255.754 541.93,255.421 540.5,255.5C 541.625,253.871 542.959,252.371 544.5,251C 601.698,217.902 659.031,185.069 716.5,152.5C 720.357,150.904 724.357,149.904 728.5,149.5 Z"/></g>
<g><path style="opacity:1" fill="#74828d" d="M 728.5,149.5 C 724.357,149.904 720.357,150.904 716.5,152.5C 719.888,148.737 723.888,147.737 728.5,149.5 Z"/></g>
<g><path style="opacity:1" fill="#6d50a1" d="M 484.5,161.5 C 485.344,165.099 485.677,168.766 485.5,172.5C 484.323,176.177 482.156,179.177 479,181.5C 478.014,183.778 477.18,186.111 476.5,188.5C 469.97,191.243 467.47,189.243 469,182.5C 470.506,177.993 473.173,174.327 477,171.5C 478.016,168.374 477.183,166.041 474.5,164.5C 471.696,163.362 468.696,163.195 465.5,164C 464.944,164.383 464.611,164.883 464.5,165.5C 463.261,167.701 461.928,169.868 460.5,172C 458.19,172.497 455.857,172.663 453.5,172.5C 453.222,164.919 456.556,159.419 463.5,156C 468.167,155.333 472.833,155.333 477.5,156C 480.266,157.371 482.599,159.204 484.5,161.5 Z"/></g>
<g><path style="opacity:1" fill="#37474f" d="M 738.5,157.5 C 738.5,247.833 738.5,338.167 738.5,428.5C 737.375,430.129 736.041,431.629 734.5,433C 729.809,435.008 725.476,437.508 721.5,440.5C 719.326,440.75 717.659,441.75 716.5,443.5C 663.895,473.138 611.562,503.304 559.5,534C 556.074,535.576 552.74,535.742 549.5,534.5C 550.833,534.5 552.167,534.5 553.5,534.5C 553.5,478.167 553.5,421.833 553.5,365.5C 548.968,365.182 544.634,365.515 540.5,366.5C 532.611,366.276 524.944,366.942 517.5,368.5C 515.265,368.795 513.265,368.461 511.5,367.5C 510.374,366.142 510.374,364.808 511.5,363.5C 525.68,349.486 539.18,334.819 552,319.5C 552.47,318.423 552.303,317.423 551.5,316.5C 553.487,298.864 554.153,280.864 553.5,262.5C 609.019,229.887 665.019,197.72 721.5,166C 726.405,161.547 732.072,158.714 738.5,157.5 Z"/></g>
<g><path style="opacity:1" fill="#707c88" d="M 737.5,154.5 C 738.117,154.611 738.617,154.944 739,155.5C 739.5,246.166 739.667,336.833 739.5,427.5C 739.5,428.167 739.167,428.5 738.5,428.5C 738.5,338.167 738.5,247.833 738.5,157.5C 737.89,156.609 737.557,155.609 737.5,154.5 Z"/></g>
<g><path style="opacity:1" fill="#ccbee8" d="M 507.5,160.5 C 516.368,162.127 518.034,166.294 512.5,173C 501.484,172.448 499.818,168.281 507.5,160.5 Z"/></g>
<g><path style="opacity:1" fill="#e2e5f8" d="M 327.5,163.5 C 328.497,182.993 328.83,202.66 328.5,222.5C 322.196,218.01 315.863,213.51 309.5,209C 306.416,206.149 303.416,203.315 300.5,200.5C 301.137,197.893 302.304,195.56 304,193.5C 312.079,183.6 319.912,173.6 327.5,163.5 Z"/></g>
<g><path style="opacity:1" fill="#b5a8d8" d="M 474.5,164.5 C 471.098,164.342 467.764,164.676 464.5,165.5C 464.611,164.883 464.944,164.383 465.5,164C 468.696,163.195 471.696,163.362 474.5,164.5 Z"/></g>
<g><path style="opacity:1" fill="#393b41" d="M 385.5,165.5 C 391.753,165.52 392.086,167.02 386.5,170C 385.552,170.483 384.552,170.649 383.5,170.5C 383.392,168.486 384.058,166.82 385.5,165.5 Z"/></g>
<g><path style="opacity:1" fill="#b6bdcd" d="M 329.5,161.5 C 329.5,181.833 329.5,202.167 329.5,222.5C 329.167,222.5 328.833,222.5 328.5,222.5C 328.83,202.66 328.497,182.993 327.5,163.5C 327.833,162.5 328.5,161.833 329.5,161.5 Z"/></g>
<g><path style="opacity:1" fill="#393b41" d="M 420.5,168.5 C 420.5,169.5 420.5,170.5 420.5,171.5C 418.784,171.371 417.117,171.038 415.5,170.5C 414.909,169.849 414.243,169.182 413.5,168.5C 413.709,167.914 414.043,167.414 414.5,167C 416.989,166.059 418.989,166.559 420.5,168.5 Z"/></g>
<g><path style="opacity:1" fill="#9683c0" d="M 484.5,161.5 C 485.117,161.611 485.617,161.944 486,162.5C 486.808,166.027 486.641,169.36 485.5,172.5C 485.677,168.766 485.344,165.099 484.5,161.5 Z"/></g>
<g><path style="opacity:1" fill="#525c65" d="M 429.5,157.5 C 430.498,188.329 430.831,219.329 430.5,250.5C 429.094,250.027 428.427,249.027 428.5,247.5C 429.498,217.671 429.831,187.671 429.5,157.5 Z"/></g>
<g><path style="opacity:1" fill="#c78f91" d="M 421.5,163.5 C 422.451,164.919 422.784,166.585 422.5,168.5C 422.5,170.167 422.5,171.833 422.5,173.5C 418.833,173.5 415.167,173.5 411.5,173.5C 412.59,172.143 413.924,171.143 415.5,170.5C 417.117,171.038 418.784,171.371 420.5,171.5C 420.5,170.5 420.5,169.5 420.5,168.5C 421.451,167.081 421.784,165.415 421.5,163.5 Z"/></g>
<g><path style="opacity:1" fill="#836669" d="M 355.5,176.5 C 352.763,176.401 350.096,176.735 347.5,177.5C 348.492,175.974 349.992,175.307 352,175.5C 353.385,175.514 354.551,175.848 355.5,176.5 Z"/></g>
<g><path style="opacity:1" fill="#fca6a6" d="M 355.5,176.5 C 355.833,176.5 356.167,176.5 356.5,176.5C 357.945,178.063 359.611,179.396 361.5,180.5C 364.663,188.467 367.329,188.134 369.5,179.5C 370.833,179.5 372.167,179.5 373.5,179.5C 374.609,180.29 375.942,180.79 377.5,181C 381.882,192.606 388.882,194.439 398.5,186.5C 399.167,184.5 399.833,182.5 400.5,180.5C 405.254,178.574 407.587,180.24 407.5,185.5C 405.974,184.895 404.974,183.729 404.5,182C 403.552,181.517 402.552,181.351 401.5,181.5C 401.334,186.511 401.501,191.511 402,196.5C 402.561,197.022 403.228,197.355 404,197.5C 406.535,196.465 409.035,195.465 411.5,194.5C 411.5,193.167 411.5,191.833 411.5,190.5C 415.167,191.833 418.833,191.833 422.5,190.5C 421.728,194.452 421.395,198.452 421.5,202.5C 419.779,207.77 417.112,212.603 413.5,217C 407.609,219.634 401.609,220.134 395.5,218.5C 394.081,217.549 392.415,217.216 390.5,217.5C 387.161,217.11 383.827,216.61 380.5,216C 376.284,213.72 371.95,212.053 367.5,211C 368.833,213 370.5,214.667 372.5,216C 378.204,219.02 384.204,221.187 390.5,222.5C 390.19,225.713 390.523,228.713 391.5,231.5C 394.589,236.514 397.256,241.68 399.5,247C 397.816,252.186 394.149,254.353 388.5,253.5C 377.638,251.301 368.805,245.634 362,236.5C 361.51,235.207 361.343,233.873 361.5,232.5C 361.5,221.167 361.5,209.833 361.5,198.5C 360.209,198.263 359.209,198.596 358.5,199.5C 356.167,199.5 353.833,199.5 351.5,199.5C 344.651,195.485 342.151,189.485 344,181.5C 344.66,179.676 345.827,178.343 347.5,177.5C 350.096,176.735 352.763,176.401 355.5,176.5 Z"/></g>
<g><path style="opacity:1" fill="#47555e" d="M 356.5,176.5 C 361.198,177.778 365.865,177.778 370.5,176.5C 371.918,178.308 373.918,178.975 376.5,178.5C 375.791,179.404 374.791,179.737 373.5,179.5C 372.167,179.5 370.833,179.5 369.5,179.5C 366.615,179.194 363.948,179.527 361.5,180.5C 359.611,179.396 357.945,178.063 356.5,176.5 Z"/></g>
<g><path style="opacity:1" fill="#2b343a" d="M 369.5,179.5 C 367.329,188.134 364.663,188.467 361.5,180.5C 363.948,179.527 366.615,179.194 369.5,179.5 Z"/></g>
<g><path style="opacity:1" fill="#796f75" d="M 422.5,168.5 C 423.451,169.919 423.784,171.585 423.5,173.5C 423.74,179.227 423.407,184.894 422.5,190.5C 418.833,191.833 415.167,191.833 411.5,190.5C 409.457,189.421 408.124,187.754 407.5,185.5C 407.587,180.24 405.254,178.574 400.5,180.5C 399.833,182.5 399.167,184.5 398.5,186.5C 388.882,194.439 381.882,192.606 377.5,181C 375.942,180.79 374.609,180.29 373.5,179.5C 374.791,179.737 375.791,179.404 376.5,178.5C 381.963,172.638 388.63,171.138 396.5,174C 398.439,174.908 399.439,176.408 399.5,178.5C 401.924,178.808 404.257,178.474 406.5,177.5C 407.291,175.039 408.958,173.706 411.5,173.5C 415.167,173.5 418.833,173.5 422.5,173.5C 422.5,171.833 422.5,170.167 422.5,168.5 Z"/></g>
<g><path style="opacity:1" fill="#f3a4a3" d="M 381.5,175.5 C 386.628,175.112 391.628,175.612 396.5,177C 398.393,187.766 394.059,191.433 383.5,188C 380.372,184.273 379.705,180.106 381.5,175.5 Z"/></g>
<g><path style="opacity:1" fill="#69575b" d="M 387.5,180.5 C 388.946,179.387 390.613,179.22 392.5,180C 393.801,181.616 393.801,183.116 392.5,184.5C 392.616,181.09 390.95,179.756 387.5,180.5 Z"/></g>
<g><path style="opacity:1" fill="#33383d" d="M 387.5,180.5 C 390.95,179.756 392.616,181.09 392.5,184.5C 391.054,185.613 389.387,185.78 387.5,185C 386.199,183.384 386.199,181.884 387.5,180.5 Z"/></g>
<g><path style="opacity:1" fill="#f29191" d="M 407.5,185.5 C 408.124,187.754 409.457,189.421 411.5,190.5C 411.5,191.833 411.5,193.167 411.5,194.5C 409.035,195.465 406.535,196.465 404,197.5C 403.228,197.355 402.561,197.022 402,196.5C 401.501,191.511 401.334,186.511 401.5,181.5C 402.552,181.351 403.552,181.517 404.5,182C 404.974,183.729 405.974,184.895 407.5,185.5 Z"/></g>
<g><path style="opacity:1" fill="#3f4a51" d="M 423.5,173.5 C 424.794,174.29 425.961,175.29 427,176.5C 428.31,181.452 427.31,185.785 424,189.5C 423.851,194.101 423.018,198.434 421.5,202.5C 421.395,198.452 421.728,194.452 422.5,190.5C 423.407,184.894 423.74,179.227 423.5,173.5 Z"/></g>
<g><path style="opacity:1" fill="#eca1a1" d="M 411.5,174.5 C 415.106,174.211 418.606,174.544 422,175.5C 422.667,179.5 422.667,183.5 422,187.5C 417.194,190.48 412.861,189.813 409,185.5C 406.592,181.034 407.425,177.367 411.5,174.5 Z"/></g>
<g><path style="opacity:1" fill="#393b40" d="M 414.5,179.5 C 418.473,180.075 419.473,182.242 417.5,186C 416.216,186.684 415.049,186.517 414,185.5C 413.322,183.402 413.489,181.402 414.5,179.5 Z"/></g>
<g><path style="opacity:1" fill="#6d4fa1" d="M 478.5,201.5 C 476.167,201.5 473.833,201.5 471.5,201.5C 471.167,198.833 470.833,196.167 470.5,193.5C 472.948,192.527 475.615,192.194 478.5,192.5C 479.368,195.673 479.368,198.673 478.5,201.5 Z"/></g>
<g><path style="opacity:1" fill="#635256" d="M 351.5,199.5 C 353.833,199.5 356.167,199.5 358.5,199.5C 360.477,210.116 361.144,221.116 360.5,232.5C 360.167,232.5 359.833,232.5 359.5,232.5C 359.5,221.833 359.5,211.167 359.5,200.5C 356.615,200.806 353.948,200.473 351.5,199.5 Z"/></g>
<g><path style="opacity:1" fill="#bd8587" d="M 358.5,199.5 C 359.209,198.596 360.209,198.263 361.5,198.5C 361.5,209.833 361.5,221.167 361.5,232.5C 361.167,232.5 360.833,232.5 360.5,232.5C 361.144,221.116 360.477,210.116 358.5,199.5 Z"/></g>
<g><path style="opacity:1" fill="#8a73b7" d="M 470.5,193.5 C 470.833,196.167 471.167,198.833 471.5,201.5C 473.833,201.5 476.167,201.5 478.5,201.5C 470.494,204.15 467.827,201.483 470.5,193.5 Z"/></g>
<g><path style="opacity:1" fill="#bb6e70" d="M 393.5,202.5 C 395.199,202.34 396.866,202.506 398.5,203C 399.813,206.692 398.48,208.359 394.5,208C 392.365,206.444 392.032,204.611 393.5,202.5 Z"/></g>
<g><path style="opacity:1" fill="#f39292" d="M 390.5,217.5 C 390.5,219.167 390.5,220.833 390.5,222.5C 384.204,221.187 378.204,219.02 372.5,216C 370.5,214.667 368.833,213 367.5,211C 371.95,212.053 376.284,213.72 380.5,216C 383.827,216.61 387.161,217.11 390.5,217.5 Z"/></g>
<g><path style="opacity:1" fill="#af7c7d" d="M 390.5,217.5 C 392.415,217.216 394.081,217.549 395.5,218.5C 394.167,218.5 392.833,218.5 391.5,218.5C 391.5,222.833 391.5,227.167 391.5,231.5C 390.523,228.713 390.19,225.713 390.5,222.5C 390.5,220.833 390.5,219.167 390.5,217.5 Z"/></g>
<g><path style="opacity:1" fill="#625094" d="M 674.5,234.5 C 667.596,232.317 660.596,231.983 653.5,233.5C 653.611,232.883 653.944,232.383 654.5,232C 659.833,231.333 665.167,231.333 670.5,232C 672.32,232.2 673.653,233.034 674.5,234.5 Z"/></g>
<g><path style="opacity:1" fill="#cabbe6" d="M 391.5,231.5 C 394.5,231.5 397.5,231.5 400.5,231.5C 414.588,241.772 425.755,254.772 434,270.5C 436.427,279.427 435.761,288.093 432,296.5C 430.624,297.705 429.458,299.038 428.5,300.5C 427.125,307.453 426.459,314.619 426.5,322C 426.666,334.058 427.666,345.892 429.5,357.5C 428.118,361.819 426.451,365.986 424.5,370C 399.199,378.735 373.532,379.735 347.5,373C 341.327,370.412 335.327,367.579 329.5,364.5C 328.76,360.475 329.26,356.475 331,352.5C 335.048,344.365 338.714,336.032 342,327.5C 342.499,323.179 342.666,318.846 342.5,314.5C 343.147,313.726 343.48,312.726 343.5,311.5C 342.667,306.5 341.833,301.5 341,296.5C 340.76,294.148 339.927,292.148 338.5,290.5C 338.425,287.794 338.092,285.127 337.5,282.5C 339.857,282.663 342.19,282.497 344.5,282C 346.333,280.167 348.167,278.333 350,276.5C 353.336,268.554 354.336,260.221 353,251.5C 350.632,245.431 347.799,239.764 344.5,234.5C 350.051,234.473 355.384,233.806 360.5,232.5C 360.833,232.5 361.167,232.5 361.5,232.5C 361.343,233.873 361.51,235.207 362,236.5C 368.805,245.634 377.638,251.301 388.5,253.5C 394.149,254.353 397.816,252.186 399.5,247C 397.256,241.68 394.589,236.514 391.5,231.5 Z"/></g>
<g><path style="opacity:1" fill="#7e57c1" d="M 674.5,234.5 C 677.19,236.193 679.19,238.527 680.5,241.5C 682.304,250.357 682.971,259.357 682.5,268.5C 682.5,269.833 682.5,271.167 682.5,272.5C 681.076,274.515 680.41,276.848 680.5,279.5C 679.463,280.93 678.796,282.597 678.5,284.5C 676.755,286.033 675.755,288.033 675.5,290.5C 674.331,293.511 672.664,296.178 670.5,298.5C 670.841,294.84 670.175,291.507 668.5,288.5C 667.5,287.167 666.5,285.833 665.5,284.5C 665.389,283.883 665.056,283.383 664.5,283C 662.667,282.833 660.833,282.667 659,282.5C 656.134,282.3 653.634,282.967 651.5,284.5C 648.815,286.462 645.815,287.962 642.5,289C 641.29,290.039 640.29,291.206 639.5,292.5C 636.833,293.167 635.167,294.833 634.5,297.5C 631.185,300.125 628.851,303.458 627.5,307.5C 625.755,309.033 624.755,311.033 624.5,313.5C 624.5,313.833 624.5,314.167 624.5,314.5C 623.515,318.634 623.182,322.968 623.5,327.5C 621.193,326.347 618.86,325.18 616.5,324C 614.875,321.905 613.542,319.739 612.5,317.5C 610.266,306.914 609.933,296.247 611.5,285.5C 612.848,278.127 615.348,271.127 619,264.5C 626.833,252 637,241.833 649.5,234C 650.793,233.51 652.127,233.343 653.5,233.5C 660.596,231.983 667.596,232.317 674.5,234.5 Z"/></g>
<g><path style="opacity:1" fill="#85859d" d="M 359.5,232.5 C 359.833,232.5 360.167,232.5 360.5,232.5C 355.384,233.806 350.051,234.473 344.5,234.5C 343.833,234.5 343.5,234.167 343.5,233.5C 348.822,233.02 354.155,232.687 359.5,232.5 Z"/></g>
<g><path style="opacity:1" fill="#fca8a8" d="M 400.5,231.5 C 404.247,231.392 407.914,231.892 411.5,233C 418.266,236.603 423.933,241.437 428.5,247.5C 428.427,249.027 429.094,250.027 430.5,250.5C 446.187,270.032 461.354,290.032 476,310.5C 476.311,326.215 475.811,341.882 474.5,357.5C 474.167,357.5 473.833,357.5 473.5,357.5C 473.666,351.158 473.5,344.825 473,338.5C 471.644,337.62 470.144,337.286 468.5,337.5C 470.639,332.859 471.305,328.192 470.5,323.5C 469.866,322.053 468.699,321.387 467,321.5C 460.65,323.737 454.15,325.404 447.5,326.5C 447.66,324.801 447.494,323.134 447,321.5C 440.574,314.583 434.407,307.583 428.5,300.5C 429.458,299.038 430.624,297.705 432,296.5C 435.761,288.093 436.427,279.427 434,270.5C 425.755,254.772 414.588,241.772 400.5,231.5 Z"/></g>
<g><path style="opacity:1" fill="#fbf9fd" d="M 656.5,255.5 C 657.961,261.272 657.628,266.939 655.5,272.5C 653.167,278.167 649.167,282.167 643.5,284.5C 640.549,284.713 637.882,284.046 635.5,282.5C 632.329,267.85 637.829,258.183 652,253.5C 653.833,253.519 655.333,254.185 656.5,255.5 Z"/></g>
<g><path style="opacity:1" fill="#263339" d="M 540.5,255.5 C 541.93,255.421 543.264,255.754 544.5,256.5C 547.26,258.864 550.26,260.864 553.5,262.5C 554.153,280.864 553.487,298.864 551.5,316.5C 547.906,314.756 544.406,312.756 541,310.5C 540.5,292.503 540.333,274.503 540.5,256.5C 540.5,256.167 540.5,255.833 540.5,255.5 Z"/></g>
<g><path style="opacity:1" fill="#6c52a3" d="M 680.5,241.5 C 682.446,243.734 683.613,246.401 684,249.5C 684.667,254.5 684.667,259.5 684,264.5C 683.79,266.058 683.29,267.391 682.5,268.5C 682.971,259.357 682.304,250.357 680.5,241.5 Z"/></g>
<g><path style="opacity:1" fill="#d1c3e8" d="M 656.5,255.5 C 658.017,257.462 658.684,259.795 658.5,262.5C 658.393,265.567 657.893,268.567 657,271.5C 656.617,272.056 656.117,272.389 655.5,272.5C 657.628,266.939 657.961,261.272 656.5,255.5 Z"/></g>
<g><path style="opacity:1" fill="#68717d" d="M 329.5,271.5 C 330.492,271.328 331.158,271.662 331.5,272.5C 330.504,285.99 330.171,299.656 330.5,313.5C 334.5,313.5 338.5,313.5 342.5,313.5C 341.351,305.791 340.018,298.124 338.5,290.5C 339.927,292.148 340.76,294.148 341,296.5C 341.833,301.5 342.667,306.5 343.5,311.5C 343.48,312.726 343.147,313.726 342.5,314.5C 338.167,314.5 333.833,314.5 329.5,314.5C 329.5,300.167 329.5,285.833 329.5,271.5 Z"/></g>
<g><path style="opacity:1" fill="#28343a" d="M 331.5,272.5 C 334.502,275.161 336.502,278.495 337.5,282.5C 338.092,285.127 338.425,287.794 338.5,290.5C 340.018,298.124 341.351,305.791 342.5,313.5C 338.5,313.5 334.5,313.5 330.5,313.5C 330.171,299.656 330.504,285.99 331.5,272.5 Z"/></g>
<g><path style="opacity:1" fill="#4e4c74" d="M 682.5,272.5 C 682.829,275.228 682.163,277.562 680.5,279.5C 680.41,276.848 681.076,274.515 682.5,272.5 Z"/></g>
<g><path style="opacity:1" fill="#c9b9e5" d="M 665.5,284.5 C 660.858,283.327 656.191,283.327 651.5,284.5C 653.634,282.967 656.134,282.3 659,282.5C 660.833,282.667 662.667,282.833 664.5,283C 665.056,283.383 665.389,283.883 665.5,284.5 Z"/></g>
<g><path style="opacity:1" fill="#fcfcfd" d="M 665.5,284.5 C 666.5,285.833 667.5,287.167 668.5,288.5C 669.162,292.466 669.495,296.466 669.5,300.5C 662.261,312.409 652.261,321.076 639.5,326.5C 634.537,327.254 629.537,327.587 624.5,327.5C 624.5,323.167 624.5,318.833 624.5,314.5C 624.5,314.167 624.5,313.833 624.5,313.5C 626.245,311.967 627.245,309.967 627.5,307.5C 628.851,303.458 631.185,300.125 634.5,297.5C 636.5,296.167 638.167,294.5 639.5,292.5C 640.29,291.206 641.29,290.039 642.5,289C 645.815,287.962 648.815,286.462 651.5,284.5C 656.191,283.327 660.858,283.327 665.5,284.5 Z"/></g>
<g><path style="opacity:1" fill="#c9bae6" d="M 635.5,282.5 C 637.882,284.046 640.549,284.713 643.5,284.5C 640.282,286.184 637.615,285.517 635.5,282.5 Z"/></g>
<g><path style="opacity:1" fill="#5e508f" d="M 678.5,284.5 C 678.245,286.967 677.245,288.967 675.5,290.5C 675.755,288.033 676.755,286.033 678.5,284.5 Z"/></g>
<g><path style="opacity:1" fill="#d8cceb" d="M 639.5,292.5 C 638.167,294.5 636.5,296.167 634.5,297.5C 635.167,294.833 636.833,293.167 639.5,292.5 Z"/></g>
<g><path style="opacity:1" fill="#cac0e3" d="M 668.5,288.5 C 670.175,291.507 670.841,294.84 670.5,298.5C 670.672,299.492 670.338,300.158 669.5,300.5C 669.495,296.466 669.162,292.466 668.5,288.5 Z"/></g>
<g><path style="opacity:1" fill="#b8abd3" d="M 362.5,294.5 C 369.54,305.514 379.54,309.68 392.5,307C 395.917,306.263 399.251,305.596 402.5,305C 389.272,315.452 376.772,314.618 365,302.5C 363.293,300.091 362.46,297.425 362.5,294.5 Z"/></g>
<g><path style="opacity:1" fill="#6b52a4" d="M 611.5,285.5 C 609.933,296.247 610.266,306.914 612.5,317.5C 610.933,316.319 610.099,314.653 610,312.5C 607.695,303.202 608.195,294.202 611.5,285.5 Z"/></g>
<g><path style="opacity:1" fill="#e0e3f7" d="M 428.5,300.5 C 434.407,307.583 440.574,314.583 447,321.5C 447.494,323.134 447.66,324.801 447.5,326.5C 441.907,327.426 438.573,330.759 437.5,336.5C 435.345,338.617 434.345,341.284 434.5,344.5C 433.208,348.892 431.541,353.226 429.5,357.5C 427.666,345.892 426.666,334.058 426.5,322C 426.459,314.619 427.125,307.453 428.5,300.5 Z"/></g>
<g><path style="opacity:1" fill="#4a5e68" d="M 540.5,256.5 C 540.333,274.503 540.5,292.503 541,310.5C 544.406,312.756 547.906,314.756 551.5,316.5C 552.303,317.423 552.47,318.423 552,319.5C 539.18,334.819 525.68,349.486 511.5,363.5C 510.374,364.808 510.374,366.142 511.5,367.5C 506.368,365.1 501.368,362.434 496.5,359.5C 496.343,358.127 496.51,356.793 497,355.5C 511.055,340.78 525.055,326.114 539,311.5C 539.168,292.995 539.668,274.662 540.5,256.5 Z"/></g>
<g><path style="opacity:1" fill="#b49edb" d="M 627.5,307.5 C 627.245,309.967 626.245,311.967 624.5,313.5C 624.755,311.033 625.755,309.033 627.5,307.5 Z"/></g>
<g><path style="opacity:1" fill="#7e57bf" d="M 470.5,323.5 C 471.305,328.192 470.639,332.859 468.5,337.5C 466.849,342.3 464.516,346.8 461.5,351C 455.114,354.268 448.448,356.935 441.5,359C 438.882,361.106 436.882,363.606 435.5,366.5C 432.407,370.129 433.074,372.795 437.5,374.5C 442.169,376.579 447.169,377.579 452.5,377.5C 452.423,378.75 451.756,379.583 450.5,380C 446.116,381.108 441.782,382.275 437.5,383.5C 434.008,383.446 431.008,384.446 428.5,386.5C 425.861,388.177 424.194,387.51 423.5,384.5C 425.24,380.281 426.573,375.947 427.5,371.5C 429.584,368.947 430.917,365.947 431.5,362.5C 435.34,353.145 438.507,343.478 441,333.5C 442.41,332.213 443.91,331.046 445.5,330C 453.679,327.244 462.012,325.077 470.5,323.5 Z"/></g>
<g><path style="opacity:1" fill="#8c9599" d="M 687.5,324.5 C 687.5,329.5 687.5,334.5 687.5,339.5C 689.216,339.371 690.883,339.038 692.5,338.5C 691.089,340.539 689.089,341.539 686.5,341.5C 686.178,335.642 686.511,329.975 687.5,324.5 Z"/></g>
<g><path style="opacity:1" fill="#c8ccce" d="M 692.5,338.5 C 690.883,339.038 689.216,339.371 687.5,339.5C 687.5,334.5 687.5,329.5 687.5,324.5C 689.785,320.572 692.618,319.906 696,322.5C 697.48,328.549 696.314,333.882 692.5,338.5 Z"/></g>
<g><path style="opacity:1" fill="#3e4e56" d="M 690.5,324.5 C 691.5,324.5 692.5,324.5 693.5,324.5C 693.665,327.518 693.498,330.518 693,333.5C 692.29,334.973 691.124,335.64 689.5,335.5C 689.244,331.731 689.577,328.064 690.5,324.5 Z"/></g>
<g><path style="opacity:1" fill="#b8bac6" d="M 624.5,314.5 C 624.5,318.833 624.5,323.167 624.5,327.5C 629.537,327.587 634.537,327.254 639.5,326.5C 636.644,328.006 633.477,328.672 630,328.5C 627.639,328.496 625.473,328.163 623.5,327.5C 623.182,322.968 623.515,318.634 624.5,314.5 Z"/></g>
<g><path style="opacity:1" fill="#d4d7d9" d="M 679.5,327.5 C 681.144,327.286 682.644,327.62 684,328.5C 684.603,331.656 684.103,334.656 682.5,337.5C 683.747,339.323 684.414,341.323 684.5,343.5C 681.671,343.675 680.004,342.342 679.5,339.5C 679.167,339.667 678.833,339.833 678.5,340C 677.88,342.473 677.214,344.973 676.5,347.5C 675.337,341.863 675.17,336.196 676,330.5C 677.145,329.364 678.312,328.364 679.5,327.5 Z"/></g>
<g><path style="opacity:1" fill="#4a585e" d="M 678.5,331.5 C 679.5,331.5 680.5,331.5 681.5,331.5C 681.756,333.912 680.756,335.579 678.5,336.5C 677.334,334.833 677.334,333.166 678.5,331.5 Z"/></g>
<g><path style="opacity:1" fill="#929ca9" d="M 437.5,336.5 C 436.871,339.397 435.871,342.064 434.5,344.5C 434.345,341.284 435.345,338.617 437.5,336.5 Z"/></g>
<g><path style="opacity:1" fill="#f08e90" d="M 468.5,337.5 C 470.144,337.286 471.644,337.62 473,338.5C 473.5,344.825 473.666,351.158 473.5,357.5C 472.805,365.384 469.138,371.55 462.5,376C 459.274,377.199 455.941,377.699 452.5,377.5C 447.169,377.579 442.169,376.579 437.5,374.5C 435.774,372.18 435.107,369.513 435.5,366.5C 436.882,363.606 438.882,361.106 441.5,359C 448.448,356.935 455.114,354.268 461.5,351C 464.516,346.8 466.849,342.3 468.5,337.5 Z"/></g>
<g><path style="opacity:1" fill="#848f95" d="M 660.5,346.5 C 660.662,344.473 660.495,342.473 660,340.5C 659.768,341.737 659.268,342.737 658.5,343.5C 658.5,342.167 658.5,340.833 658.5,339.5C 659.5,339.5 660.5,339.5 661.5,339.5C 661.802,342.059 661.468,344.393 660.5,346.5 Z"/></g>
<g><path style="opacity:1" fill="#d8dbdd" d="M 667.5,334.5 C 669.144,334.286 670.644,334.62 672,335.5C 672.879,340.287 672.545,344.953 671,349.5C 665.047,354.365 662.547,352.865 663.5,345C 663.667,342.833 663.833,340.667 664,338.5C 665.376,337.295 666.542,335.962 667.5,334.5 Z"/></g>
<g><path style="opacity:1" fill="#47555d" d="M 667.5,337.5 C 668.5,337.5 669.5,337.5 670.5,337.5C 671.231,342.041 670.231,346.041 667.5,349.5C 664.967,345.643 664.967,341.643 667.5,337.5 Z"/></g>
<g><path style="opacity:1" fill="#ccd0d2" d="M 660.5,346.5 C 660.608,350.247 660.108,353.914 659,357.5C 658.586,357.957 658.086,358.291 657.5,358.5C 656.85,356.816 655.85,355.483 654.5,354.5C 652.952,354.179 652.285,353.179 652.5,351.5C 653.234,350.122 653.901,348.622 654.5,347C 655.784,346.316 656.951,346.483 658,347.5C 658.49,346.207 658.657,344.873 658.5,343.5C 659.268,342.737 659.768,341.737 660,340.5C 660.495,342.473 660.662,344.473 660.5,346.5 Z"/></g>
<g><path style="opacity:1" fill="#aeb4b8" d="M 652.5,351.5 C 651.842,352.793 651.508,354.293 651.5,356C 651.569,357.986 652.235,359.486 653.5,360.5C 652.791,361.404 651.791,361.737 650.5,361.5C 650.24,355.828 649.907,350.161 649.5,344.5C 650.5,344.5 651.5,344.5 652.5,344.5C 652.5,346.833 652.5,349.167 652.5,351.5 Z"/></g>
<g><path style="opacity:1" fill="#e8eaea" d="M 652.5,351.5 C 652.285,353.179 652.952,354.179 654.5,354.5C 654.675,356.621 654.341,358.621 653.5,360.5C 652.235,359.486 651.569,357.986 651.5,356C 651.508,354.293 651.842,352.793 652.5,351.5 Z"/></g>
<g><path style="opacity:1" fill="#f3f3f3" d="M 658.5,389.5 C 656.326,389.75 654.659,390.75 653.5,392.5C 634.653,402.509 616.153,413.175 598,424.5C 596.699,424.361 595.866,423.695 595.5,422.5C 595.307,418.434 595.64,414.434 596.5,410.5C 598.913,408.113 601.58,405.946 604.5,404C 634.092,387.399 663.425,370.399 692.5,353C 694.749,352.137 696.582,352.637 698,354.5C 698.837,358.295 698.504,361.961 697,365.5C 693.434,368.699 689.6,371.533 685.5,374C 676.332,379.03 667.332,384.197 658.5,389.5 Z"/></g>
<g><path style="opacity:1" fill="#4c5a61" d="M 638.5,354.5 C 638.286,356.144 638.62,357.644 639.5,359C 641.473,359.495 643.473,359.662 645.5,359.5C 645.67,360.822 645.337,361.989 644.5,363C 642.527,363.495 640.527,363.662 638.5,363.5C 638.5,364.5 638.5,365.5 638.5,366.5C 637.833,367.167 637.167,367.833 636.5,368.5C 636.5,366.5 636.5,364.5 636.5,362.5C 634.5,362.5 632.5,362.5 630.5,362.5C 630.384,359.09 632.05,357.756 635.5,358.5C 635.5,357.5 635.5,356.5 635.5,355.5C 636.609,355.443 637.609,355.11 638.5,354.5 Z"/></g>
<g><path style="opacity:1" fill="#efefef" d="M 473.5,357.5 C 473.833,357.5 474.167,357.5 474.5,357.5C 481.424,359.463 488.757,360.13 496.5,359.5C 501.368,362.434 506.368,365.1 511.5,367.5C 513.265,368.461 515.265,368.795 517.5,368.5C 524.827,368.056 532.16,367.723 539.5,367.5C 539.168,420.669 539.501,473.669 540.5,526.5C 541.909,530.906 544.909,533.573 549.5,534.5C 552.74,535.742 556.074,535.576 559.5,534C 611.562,503.304 663.895,473.138 716.5,443.5C 718.848,443.408 720.514,442.408 721.5,440.5C 725.476,437.508 729.809,435.008 734.5,433C 736.041,431.629 737.375,430.129 738.5,428.5C 739.167,428.5 739.5,428.167 739.5,427.5C 740.268,426.737 740.768,425.737 741,424.5C 752.745,431.239 764.245,438.406 775.5,446C 777.424,447.75 779.091,449.583 780.5,451.5C 774.591,458.069 769.925,465.402 766.5,473.5C 765.094,473.973 764.427,474.973 764.5,476.5C 754.055,502.463 750.555,529.463 754,557.5C 755.073,563.449 755.74,569.449 756,575.5C 757.271,576.883 758.771,577.883 760.5,578.5C 760.842,579.338 761.508,579.672 762.5,579.5C 763.167,579.833 763.833,580.167 764.5,580.5C 764.973,581.906 765.973,582.573 767.5,582.5C 768.514,583.674 769.847,584.34 771.5,584.5C 771.842,585.338 772.508,585.672 773.5,585.5C 773.56,586.043 773.893,586.376 774.5,586.5C 775.474,584.257 775.808,581.924 775.5,579.5C 776.167,582.5 776.833,585.5 777.5,588.5C 778.807,589.153 780.14,589.82 781.5,590.5C 782.386,589.675 782.719,588.675 782.5,587.5C 784.472,584.916 785.472,581.916 785.5,578.5C 787.238,570.363 790.571,563.03 795.5,556.5C 796.906,556.027 797.573,555.027 797.5,553.5C 800.771,547.898 804.771,542.898 809.5,538.5C 813.5,535.167 817.167,531.5 820.5,527.5C 825.861,521.807 831.195,516.14 836.5,510.5C 838.364,511.82 840.031,513.487 841.5,515.5C 866.139,558.565 868.639,602.898 849,648.5C 832.285,681.211 809.118,708.378 779.5,730C 733.77,761.534 684.104,784.367 630.5,798.5C 502.734,830.347 376.401,825.847 251.5,785C 237.461,778.427 223.127,772.427 208.5,767C 196.249,760.044 183.916,753.377 171.5,747C 144.69,730.242 121.024,709.742 100.5,685.5C 52.7049,621.607 52.5383,557.607 100,493.5C 103.336,488.998 107.169,484.998 111.5,481.5C 116.184,485.781 117.684,491.115 116,497.5C 111.567,503.384 107.401,509.384 103.5,515.5C 102.883,515.611 102.383,515.944 102,516.5C 101.199,519.367 101.366,522.034 102.5,524.5C 103.072,526.255 103.906,527.922 105,529.5C 109.686,533.188 114.019,537.188 118,541.5C 117.159,551.859 116.159,562.192 115,572.5C 118.826,583.352 126.326,589.186 137.5,590C 144.023,585.242 150.689,580.742 157.5,576.5C 158.167,575.5 158.833,574.5 159.5,573.5C 160.167,574.833 160.833,574.833 161.5,573.5C 166.833,569.5 172.167,565.5 177.5,561.5C 181.441,559.86 185.108,557.694 188.5,555C 189.669,552.993 190.335,550.827 190.5,548.5C 192.031,543.75 192.698,538.75 192.5,533.5C 192.785,518.464 192.451,503.464 191.5,488.5C 191.149,484.316 190.482,480.316 189.5,476.5C 189.5,476.167 189.5,475.833 189.5,475.5C 189.41,473.304 189.077,471.137 188.5,469C 188.316,467.624 187.649,466.791 186.5,466.5C 186.296,464.315 185.63,462.315 184.5,460.5C 184.245,458.033 183.245,456.033 181.5,454.5C 180.261,451.411 178.761,448.411 177,445.5C 173.927,441.939 171.094,438.272 168.5,434.5C 204.27,413.166 242.27,396.333 282.5,384C 296.739,381.376 310.739,377.876 324.5,373.5C 325.107,373.624 325.44,373.957 325.5,374.5C 325.483,376.565 325.15,378.565 324.5,380.5C 323.778,380.918 323.278,381.584 323,382.5C 322.023,387.793 321.523,393.126 321.5,398.5C 321.5,409.167 321.5,419.833 321.5,430.5C 321.288,440.709 321.954,450.709 323.5,460.5C 325.403,476.748 326.57,493.081 327,509.5C 321.656,520.886 318.656,532.886 318,545.5C 317.422,566.858 317.922,588.191 319.5,609.5C 319.5,610.833 319.5,612.167 319.5,613.5C 295.2,619.403 274.366,631.403 257,649.5C 240.937,669.284 239.27,690.284 252,712.5C 261.383,726.216 273.55,736.716 288.5,744C 326.878,761.532 367.212,767.532 409.5,762C 439.602,759.082 466.936,749.082 491.5,732C 496.032,727.133 500.866,722.633 506,718.5C 525.477,688.564 521.644,662.064 494.5,639C 473.729,624.019 450.729,614.185 425.5,609.5C 425.5,607.833 425.5,606.167 425.5,604.5C 425.5,599.833 425.5,595.167 425.5,590.5C 426.893,584.962 427.56,579.295 427.5,573.5C 428.302,572.048 428.802,570.382 429,568.5C 429.499,562.509 429.666,556.509 429.5,550.5C 433.087,503.855 433.42,457.188 430.5,410.5C 430.558,402.479 430.224,394.479 429.5,386.5C 432.618,386.232 435.284,385.232 437.5,383.5C 441.782,382.275 446.116,381.108 450.5,380C 451.756,379.583 452.423,378.75 452.5,377.5C 455.941,377.699 459.274,377.199 462.5,376C 469.138,371.55 472.805,365.384 473.5,357.5 Z"/></g>
<g><path style="opacity:1" fill="#574e83" d="M 431.5,362.5 C 430.917,365.947 429.584,368.947 427.5,371.5C 428.083,368.053 429.416,365.053 431.5,362.5 Z"/></g>
<g><path style="opacity:1" fill="#d3d7d8" d="M 638.5,366.5 C 638.5,365.5 638.5,364.5 638.5,363.5C 640.527,363.662 642.527,363.495 644.5,363C 645.337,361.989 645.67,360.822 645.5,359.5C 643.473,359.662 641.473,359.495 639.5,359C 638.62,357.644 638.286,356.144 638.5,354.5C 640.073,351.971 642.073,349.971 644.5,348.5C 646.915,348.719 647.915,350.052 647.5,352.5C 643.759,351.599 641.759,352.932 641.5,356.5C 643.5,356.5 645.5,356.5 647.5,356.5C 648.391,363.93 645.391,367.263 638.5,366.5 Z"/></g>
<g><path style="opacity:1" fill="#253238" d="M 549.5,534.5 C 544.909,533.573 541.909,530.906 540.5,526.5C 540.5,473.167 540.5,419.833 540.5,366.5C 544.634,365.515 548.968,365.182 553.5,365.5C 553.5,421.833 553.5,478.167 553.5,534.5C 552.167,534.5 550.833,534.5 549.5,534.5 Z"/></g>
<g><path style="opacity:1" fill="#465a64" d="M 470.5,323.5 C 462.012,325.077 453.679,327.244 445.5,330C 443.91,331.046 442.41,332.213 441,333.5C 438.507,343.478 435.34,353.145 431.5,362.5C 429.416,365.053 428.083,368.053 427.5,371.5C 426.573,375.947 425.24,380.281 423.5,384.5C 424.194,387.51 425.861,388.177 428.5,386.5C 428.702,394.686 429.369,402.686 430.5,410.5C 433.42,457.188 433.087,503.855 429.5,550.5C 428.238,557.969 427.571,565.635 427.5,573.5C 427.56,579.295 426.893,584.962 425.5,590.5C 416.08,595.093 406.08,596.76 395.5,595.5C 394.158,589.781 392.825,584.115 391.5,578.5C 391.741,576.102 391.074,574.102 389.5,572.5C 389.369,568.048 388.702,563.714 387.5,559.5C 386.882,552.183 386.549,544.849 386.5,537.5C 388.167,528.163 389.834,518.83 391.5,509.5C 390.421,502.44 389.088,495.44 387.5,488.5C 388.156,487.378 388.489,486.045 388.5,484.5C 387.195,473.639 385.862,462.805 384.5,452C 385.913,438.129 387.747,424.295 390,410.5C 390.249,409.376 390.749,408.376 391.5,407.5C 401.654,405.089 410.321,400.089 417.5,392.5C 417.167,392.167 416.833,391.833 416.5,391.5C 406.753,397.528 396.086,401.194 384.5,402.5C 382.833,417.167 381.167,431.833 379.5,446.5C 379.672,448.548 380.005,450.548 380.5,452.5C 379.069,452.881 378.236,453.881 378,455.5C 377.025,461.156 376.192,466.823 375.5,472.5C 374.833,477.5 374.167,482.5 373.5,487.5C 371.823,491.545 371.156,495.878 371.5,500.5C 369.789,510.405 368.455,520.405 367.5,530.5C 365.77,534.883 364.77,539.55 364.5,544.5C 363.508,549.452 362.842,554.452 362.5,559.5C 361.076,561.515 360.41,563.848 360.5,566.5C 358.191,575.683 356.525,585.016 355.5,594.5C 353.265,598.787 352.265,603.454 352.5,608.5C 351.833,608.5 351.5,608.833 351.5,609.5C 349.847,609.66 348.514,610.326 347.5,611.5C 341.536,612.307 335.536,612.64 329.5,612.5C 326.381,611.13 323.048,610.13 319.5,609.5C 317.922,588.191 317.422,566.858 318,545.5C 318.656,532.886 321.656,520.886 327,509.5C 326.57,493.081 325.403,476.748 323.5,460.5C 323.646,450.296 322.979,440.296 321.5,430.5C 321.5,419.833 321.5,409.167 321.5,398.5C 322.695,392.665 323.695,386.665 324.5,380.5C 325.15,378.565 325.483,376.565 325.5,374.5C 326.001,370.866 327.334,367.532 329.5,364.5C 335.327,367.579 341.327,370.412 347.5,373C 373.532,379.735 399.199,378.735 424.5,370C 426.451,365.986 428.118,361.819 429.5,357.5C 431.541,353.226 433.208,348.892 434.5,344.5C 435.871,342.064 436.871,339.397 437.5,336.5C 438.573,330.759 441.907,327.426 447.5,326.5C 454.15,325.404 460.65,323.737 467,321.5C 468.699,321.387 469.866,322.053 470.5,323.5 Z"/></g>
<g><path style="opacity:1" fill="#737c82" d="M 540.5,366.5 C 540.5,419.833 540.5,473.167 540.5,526.5C 539.501,473.669 539.168,420.669 539.5,367.5C 532.16,367.723 524.827,368.056 517.5,368.5C 524.944,366.942 532.611,366.276 540.5,366.5 Z"/></g>
<g><path style="opacity:1" fill="#cc7da0" d="M 435.5,366.5 C 435.107,369.513 435.774,372.18 437.5,374.5C 433.074,372.795 432.407,370.129 435.5,366.5 Z"/></g>
<g><path style="opacity:1" fill="#ccd0d2" d="M 610.5,367.5 C 613.488,367.155 614.821,368.488 614.5,371.5C 614.141,375.367 612.308,378.367 609,380.5C 608.503,382.81 608.337,385.143 608.5,387.5C 607.5,387.5 606.5,387.5 605.5,387.5C 605.171,381.794 605.505,376.128 606.5,370.5C 608.261,369.965 609.594,368.965 610.5,367.5 Z"/></g>
<g><path style="opacity:1" fill="#d8dbdc" d="M 635.5,355.5 C 635.5,356.5 635.5,357.5 635.5,358.5C 632.05,357.756 630.384,359.09 630.5,362.5C 632.5,362.5 634.5,362.5 636.5,362.5C 636.5,364.5 636.5,366.5 636.5,368.5C 635.069,370.437 633.402,372.27 631.5,374C 627.504,374.362 626.671,372.862 629,369.5C 631.493,370.946 633.327,370.279 634.5,367.5C 626.279,365.947 625.279,362.114 631.5,356C 632.793,355.51 634.127,355.343 635.5,355.5 Z"/></g>
<g><path style="opacity:1" fill="#d8dbdd" d="M 619.5,362.5 C 620.5,362.5 621.5,362.5 622.5,362.5C 623.598,366.718 624.931,370.885 626.5,375C 625.416,378.114 623.916,378.281 622,375.5C 620.775,375.862 619.609,376.362 618.5,377C 617.89,378.947 617.057,380.781 616,382.5C 616.193,375.643 617.36,368.977 619.5,362.5 Z"/></g>
<g><path style="opacity:1" fill="#737d83" d="M 620.5,367.5 C 621.339,368.641 622.006,369.974 622.5,371.5C 622.167,372.5 621.5,373.167 620.5,373.5C 619.306,371.484 619.306,369.484 620.5,367.5 Z"/></g>
<g><path style="opacity:1" fill="#3a4950" d="M 609.5,371.5 C 612.063,372.998 612.063,374.665 609.5,376.5C 608.334,374.833 608.334,373.166 609.5,371.5 Z"/></g>
<g><path style="opacity:1" fill="#c9bbe0" d="M 437.5,383.5 C 435.284,385.232 432.618,386.232 429.5,386.5C 429.167,386.5 428.833,386.5 428.5,386.5C 431.008,384.446 434.008,383.446 437.5,383.5 Z"/></g>
<g><path style="opacity:1" fill="#b6bcc0" d="M 324.5,380.5 C 323.695,386.665 322.695,392.665 321.5,398.5C 321.523,393.126 322.023,387.793 323,382.5C 323.278,381.584 323.778,380.918 324.5,380.5 Z"/></g>
<g><path style="opacity:1" fill="#778288" d="M 658.5,389.5 C 657.514,391.408 655.848,392.408 653.5,392.5C 654.659,390.75 656.326,389.75 658.5,389.5 Z"/></g>
<g><path style="opacity:1" fill="#28363d" d="M 387.5,488.5 C 387.13,483.578 386.13,478.911 384.5,474.5C 384.5,474.167 384.5,473.833 384.5,473.5C 384.59,470.848 383.924,468.515 382.5,466.5C 382.5,465.833 382.5,465.167 382.5,464.5C 381.833,460.5 381.167,456.5 380.5,452.5C 380.005,450.548 379.672,448.548 379.5,446.5C 381.167,431.833 382.833,417.167 384.5,402.5C 396.086,401.194 406.753,397.528 416.5,391.5C 416.833,391.833 417.167,392.167 417.5,392.5C 410.321,400.089 401.654,405.089 391.5,407.5C 390.749,408.376 390.249,409.376 390,410.5C 387.747,424.295 385.913,438.129 384.5,452C 385.862,462.805 387.195,473.639 388.5,484.5C 388.489,486.045 388.156,487.378 387.5,488.5 Z"/></g>
<g><path style="opacity:1" fill="#a3abb0" d="M 428.5,386.5 C 428.833,386.5 429.167,386.5 429.5,386.5C 430.224,394.479 430.558,402.479 430.5,410.5C 429.369,402.686 428.702,394.686 428.5,386.5 Z"/></g>
<g><path style="opacity:1" fill="#7b56be" d="M 668.5,414.5 C 670.5,414.5 672.5,414.5 674.5,414.5C 674.666,420.842 674.5,427.175 674,433.5C 673.417,435.002 672.584,436.335 671.5,437.5C 656.724,445.768 642.057,454.268 627.5,463C 625.091,464.707 622.425,465.54 619.5,465.5C 619.334,458.492 619.5,451.492 620,444.5C 621.167,443.333 622.333,442.167 623.5,441C 638.892,432.644 653.892,423.811 668.5,414.5 Z"/></g>
<g><path style="opacity:1" fill="#949da2" d="M 596.5,410.5 C 595.64,414.434 595.307,418.434 595.5,422.5C 594.357,419.024 594.19,415.358 595,411.5C 595.383,410.944 595.883,410.611 596.5,410.5 Z"/></g>
<g><path style="opacity:1" fill="#6d4ca6" d="M 149.5,422.5 C 151.033,424.245 153.033,425.245 155.5,425.5C 159.636,428.755 163.97,431.755 168.5,434.5C 171.094,438.272 173.927,441.939 177,445.5C 178.761,448.411 180.261,451.411 181.5,454.5C 181.755,456.967 182.755,458.967 184.5,460.5C 185.63,462.315 186.296,464.315 186.5,466.5C 187.054,469.746 188.054,472.746 189.5,475.5C 189.5,475.833 189.5,476.167 189.5,476.5C 189.083,480.817 189.75,484.817 191.5,488.5C 192.451,503.464 192.785,518.464 192.5,533.5C 191.111,538.269 190.444,543.269 190.5,548.5C 190.335,550.827 189.669,552.993 188.5,555C 185.108,557.694 181.441,559.86 177.5,561.5C 179.214,557.913 181.048,554.247 183,550.5C 186.577,543.395 187.244,536.062 185,528.5C 183.603,526.93 182.103,525.596 180.5,524.5C 181.882,516.897 181.548,509.23 179.5,501.5C 176.464,480.375 169.297,460.708 158,442.5C 155.045,437.379 151.211,433.045 146.5,429.5C 146.179,427.952 145.179,427.285 143.5,427.5C 143.229,429.38 143.896,430.713 145.5,431.5C 150.897,436.403 155.397,442.07 159,448.5C 164.644,459.103 169.311,470.103 173,481.5C 174.8,487.368 175.967,493.368 176.5,499.5C 176.625,506.098 177.625,512.431 179.5,518.5C 179.5,519.833 179.5,521.167 179.5,522.5C 176.832,520.664 174.666,518.331 173,515.5C 172.382,509.317 172.549,503.151 173.5,497C 173.506,494.7 173.006,492.534 172,490.5C 165.854,485.841 159.021,483.508 151.5,483.5C 152.376,483.631 153.043,483.298 153.5,482.5C 148.585,473.927 142.919,465.927 136.5,458.5C 130.744,450.4 127.911,441.4 128,431.5C 129.198,427.254 131.698,424.087 135.5,422C 140.194,421.436 144.86,421.603 149.5,422.5 Z"/></g>
<g><path style="opacity:1" fill="#afa2d5" d="M 149.5,422.5 C 151.967,422.755 153.967,423.755 155.5,425.5C 153.033,425.245 151.033,424.245 149.5,422.5 Z"/></g>
<g><path style="opacity:1" fill="#b8a8d4" d="M 146.5,429.5 C 145.662,429.842 145.328,430.508 145.5,431.5C 143.896,430.713 143.229,429.38 143.5,427.5C 145.179,427.285 146.179,427.952 146.5,429.5 Z"/></g>
<g><path style="opacity:1" fill="#b6aad9" d="M 808.5,441.5 C 811.491,441.166 813.824,442.166 815.5,444.5C 812.843,444.065 810.509,443.065 808.5,441.5 Z"/></g>
<g><path style="opacity:1" fill="#acb2b5" d="M 721.5,440.5 C 720.514,442.408 718.848,443.408 716.5,443.5C 717.659,441.75 719.326,440.75 721.5,440.5 Z"/></g>
<g><path style="opacity:1" fill="#6d4ca6" d="M 808.5,441.5 C 810.509,443.065 812.843,444.065 815.5,444.5C 817.914,445.911 819.581,447.911 820.5,450.5C 820.563,455.203 820.229,459.87 819.5,464.5C 818.323,466.679 817.323,469.013 816.5,471.5C 814.412,473.336 813.079,475.669 812.5,478.5C 812.167,479.167 811.833,479.833 811.5,480.5C 808.677,484.136 806.344,488.136 804.5,492.5C 802.096,495.631 799.929,498.964 798,502.5C 797.26,503.749 797.427,504.749 798.5,505.5C 795.979,507.701 793.479,510.034 791,512.5C 776.113,534.126 769.613,558.126 771.5,584.5C 769.847,584.34 768.514,583.674 767.5,582.5C 767.217,581.711 766.717,581.044 766,580.5C 765.5,572.841 765.334,565.174 765.5,557.5C 766.53,518.69 779.197,484.356 803.5,454.5C 802.998,453.479 802.332,453.312 801.5,454C 790.591,466.311 782.091,480.144 776,495.5C 768.288,516.142 763.788,537.475 762.5,559.5C 761.833,565.833 761.167,572.167 760.5,578.5C 758.771,577.883 757.271,576.883 756,575.5C 755.74,569.449 755.073,563.449 754,557.5C 750.555,529.463 754.055,502.463 764.5,476.5C 765.906,476.027 766.573,475.027 766.5,473.5C 769.925,465.402 774.591,458.069 780.5,451.5C 783.775,448.192 787.442,445.358 791.5,443C 797.088,441.711 802.755,441.211 808.5,441.5 Z"/></g>
<g><path style="opacity:1" fill="#bec3c6" d="M 321.5,430.5 C 322.979,440.296 323.646,450.296 323.5,460.5C 321.954,450.709 321.288,440.709 321.5,430.5 Z"/></g>
<g><path style="opacity:1" fill="#e6e3ec" d="M 136.5,458.5 C 142.919,465.927 148.585,473.927 153.5,482.5C 153.043,483.298 152.376,483.631 151.5,483.5C 149.388,482.56 147.388,481.394 145.5,480C 140.595,474.59 135.262,469.757 129.5,465.5C 130.833,462.167 133.167,459.833 136.5,458.5 Z"/></g>
<g><path style="opacity:1" fill="#a592c6" d="M 181.5,454.5 C 183.245,456.033 184.245,458.033 184.5,460.5C 182.755,458.967 181.755,456.967 181.5,454.5 Z"/></g>
<g><path style="opacity:1" fill="#c2c6c9" d="M 380.5,452.5 C 381.167,456.5 381.833,460.5 382.5,464.5C 381.733,463.828 381.066,462.995 380.5,462C 379.668,461.312 379.002,461.479 378.5,462.5C 377.919,466.071 376.919,469.404 375.5,472.5C 376.192,466.823 377.025,461.156 378,455.5C 378.236,453.881 379.069,452.881 380.5,452.5 Z"/></g>
<g><path style="opacity:1" fill="#7f58c2" d="M 129.5,465.5 C 135.262,469.757 140.595,474.59 145.5,480C 147.388,481.394 149.388,482.56 151.5,483.5C 159.021,483.508 165.854,485.841 172,490.5C 173.006,492.534 173.506,494.7 173.5,497C 172.549,503.151 172.382,509.317 173,515.5C 174.666,518.331 176.832,520.664 179.5,522.5C 179.833,523.167 180.167,523.833 180.5,524.5C 182.103,525.596 183.603,526.93 185,528.5C 187.244,536.062 186.577,543.395 183,550.5C 181.048,554.247 179.214,557.913 177.5,561.5C 172.167,565.5 166.833,569.5 161.5,573.5C 160.833,570.167 160.167,566.833 159.5,563.5C 159.031,557.138 158.364,550.805 157.5,544.5C 157.59,541.848 156.924,539.515 155.5,537.5C 150.935,512.542 140.602,490.376 124.5,471C 123.517,470.409 122.85,470.743 122.5,472C 134.98,486.459 143.647,502.959 148.5,521.5C 145.833,521.167 143.167,520.833 140.5,520.5C 137.155,518.783 133.489,518.116 129.5,518.5C 125.774,518.177 122.107,518.511 118.5,519.5C 128.967,520.51 139.301,522.177 149.5,524.5C 149.723,528.162 150.723,531.495 152.5,534.5C 156.219,548.206 157.885,562.206 157.5,576.5C 150.689,580.742 144.023,585.242 137.5,590C 126.326,589.186 118.826,583.352 115,572.5C 116.159,562.192 117.159,551.859 118,541.5C 114.019,537.188 109.686,533.188 105,529.5C 103.906,527.922 103.072,526.255 102.5,524.5C 102.368,521.43 102.701,518.43 103.5,515.5C 107.401,509.384 111.567,503.384 116,497.5C 117.684,491.115 116.184,485.781 111.5,481.5C 111.008,479.181 110.008,477.181 108.5,475.5C 108.368,472.43 108.701,469.43 109.5,466.5C 111.854,463.54 115.02,462.207 119,462.5C 122.788,462.597 126.288,463.597 129.5,465.5 Z"/></g>
<g><path style="opacity:1" fill="#ededed" d="M 382.5,464.5 C 382.5,465.167 382.5,465.833 382.5,466.5C 382.41,469.152 383.076,471.485 384.5,473.5C 384.5,473.833 384.5,474.167 384.5,474.5C 384.044,479.607 385.044,484.274 387.5,488.5C 389.088,495.44 390.421,502.44 391.5,509.5C 389.834,518.83 388.167,528.163 386.5,537.5C 385.836,539.978 385.503,542.645 385.5,545.5C 385.421,550.412 386.088,555.079 387.5,559.5C 388.702,563.714 389.369,568.048 389.5,572.5C 389.259,574.898 389.926,576.898 391.5,578.5C 392.825,584.115 394.158,589.781 395.5,595.5C 395.5,597.5 395.5,599.5 395.5,601.5C 395.5,602.833 395.5,604.167 395.5,605.5C 381.638,605.625 367.971,605.625 354.5,605.5C 354.552,601.802 354.886,598.135 355.5,594.5C 356.525,585.016 358.191,575.683 360.5,566.5C 361.924,564.485 362.59,562.152 362.5,559.5C 362.842,554.452 363.508,549.452 364.5,544.5C 366.23,540.117 367.23,535.45 367.5,530.5C 368.455,520.405 369.789,510.405 371.5,500.5C 373.054,496.433 373.72,492.1 373.5,487.5C 374.167,482.5 374.833,477.5 375.5,472.5C 376.919,469.404 377.919,466.071 378.5,462.5C 379.002,461.479 379.668,461.312 380.5,462C 381.066,462.995 381.733,463.828 382.5,464.5 Z"/></g>
<g><path style="opacity:1" fill="#a797cf" d="M 820.5,450.5 C 821.162,452.304 821.495,454.304 821.5,456.5C 821.713,459.527 821.047,462.193 819.5,464.5C 820.229,459.87 820.563,455.203 820.5,450.5 Z"/></g>
<g><path style="opacity:1" fill="#c1b7e7" d="M 109.5,466.5 C 108.701,469.43 108.368,472.43 108.5,475.5C 107.366,473.034 107.199,470.367 108,467.5C 108.383,466.944 108.883,466.611 109.5,466.5 Z"/></g>
<g><path style="opacity:1" fill="#c7bdda" d="M 186.5,466.5 C 187.649,466.791 188.316,467.624 188.5,469C 189.077,471.137 189.41,473.304 189.5,475.5C 188.054,472.746 187.054,469.746 186.5,466.5 Z"/></g>
<g><path style="opacity:1" fill="#879196" d="M 382.5,466.5 C 383.924,468.515 384.59,470.848 384.5,473.5C 383.076,471.485 382.41,469.152 382.5,466.5 Z"/></g>
<g><path style="opacity:1" fill="#af9dce" d="M 766.5,473.5 C 766.573,475.027 765.906,476.027 764.5,476.5C 764.427,474.973 765.094,473.973 766.5,473.5 Z"/></g>
<g><path style="opacity:1" fill="#bbb0dd" d="M 816.5,471.5 C 816.264,474.621 814.931,476.954 812.5,478.5C 813.079,475.669 814.412,473.336 816.5,471.5 Z"/></g>
<g><path style="opacity:1" fill="#ebeaee" d="M 819.5,490.5 C 817.597,490.796 815.93,491.463 814.5,492.5C 812.973,492.427 811.973,493.094 811.5,494.5C 809.5,495.5 807.5,496.5 805.5,497.5C 803.216,496.323 802.882,494.656 804.5,492.5C 806.344,488.136 808.677,484.136 811.5,480.5C 812.496,480.586 813.329,480.252 814,479.5C 816.472,482.908 819.305,486.075 822.5,489C 821.263,489.232 820.263,489.732 819.5,490.5 Z"/></g>
<g><path style="opacity:1" fill="#a5acaf" d="M 384.5,474.5 C 386.13,478.911 387.13,483.578 387.5,488.5C 385.044,484.274 384.044,479.607 384.5,474.5 Z"/></g>
<g><path style="opacity:1" fill="#9882c0" d="M 189.5,476.5 C 190.482,480.316 191.149,484.316 191.5,488.5C 189.75,484.817 189.083,480.817 189.5,476.5 Z"/></g>
<g><path style="opacity:1" fill="#d8cfe7" d="M 146.5,429.5 C 151.211,433.045 155.045,437.379 158,442.5C 169.297,460.708 176.464,480.375 179.5,501.5C 178.596,502.209 178.263,503.209 178.5,504.5C 177.833,502.833 177.167,501.167 176.5,499.5C 175.967,493.368 174.8,487.368 173,481.5C 169.311,470.103 164.644,459.103 159,448.5C 155.397,442.07 150.897,436.403 145.5,431.5C 145.328,430.508 145.662,429.842 146.5,429.5 Z"/></g>
<g><path style="opacity:1" fill="#7f59c2" d="M 819.5,490.5 C 834.785,489.431 840.452,496.098 836.5,510.5C 831.195,516.14 825.861,521.807 820.5,527.5C 815.833,530.167 812.167,533.833 809.5,538.5C 804.771,542.898 800.771,547.898 797.5,553.5C 796.094,553.973 795.427,554.973 795.5,556.5C 790.571,563.03 787.238,570.363 785.5,578.5C 783.69,581.145 782.69,584.145 782.5,587.5C 782.719,588.675 782.386,589.675 781.5,590.5C 780.14,589.82 778.807,589.153 777.5,588.5C 777.171,571.305 781.338,555.305 790,540.5C 799.828,524.503 811.995,510.503 826.5,498.5C 825.21,497.592 823.877,497.759 822.5,499C 805.793,513.371 792.46,530.371 782.5,550C 779.419,558.319 777.085,566.819 775.5,575.5C 774.833,578.833 774.167,582.167 773.5,585.5C 772.508,585.672 771.842,585.338 771.5,584.5C 769.613,558.126 776.113,534.126 791,512.5C 793.479,510.034 795.979,507.701 798.5,505.5C 800.833,502.833 803.167,500.167 805.5,497.5C 807.5,496.5 809.5,495.5 811.5,494.5C 813.027,494.573 814.027,493.906 814.5,492.5C 815.93,491.463 817.597,490.796 819.5,490.5 Z"/></g>
<g><path style="opacity:1" fill="#ad96d5" d="M 814.5,492.5 C 814.027,493.906 813.027,494.573 811.5,494.5C 811.973,493.094 812.973,492.427 814.5,492.5 Z"/></g>
<g><path style="opacity:1" fill="#a1aaae" d="M 373.5,487.5 C 373.72,492.1 373.054,496.433 371.5,500.5C 371.156,495.878 371.823,491.545 373.5,487.5 Z"/></g>
<g><path style="opacity:1" fill="#d7cfe5" d="M 804.5,492.5 C 802.882,494.656 803.216,496.323 805.5,497.5C 803.167,500.167 800.833,502.833 798.5,505.5C 797.427,504.749 797.26,503.749 798,502.5C 799.929,498.964 802.096,495.631 804.5,492.5 Z"/></g>
<g><path style="opacity:1" fill="#e9e5f2" d="M 179.5,501.5 C 181.548,509.23 181.882,516.897 180.5,524.5C 180.167,523.833 179.833,523.167 179.5,522.5C 179.5,521.167 179.5,519.833 179.5,518.5C 179.46,513.807 179.127,509.141 178.5,504.5C 178.263,503.209 178.596,502.209 179.5,501.5 Z"/></g>
<g><path style="opacity:1" fill="#9179bd" d="M 176.5,499.5 C 177.167,501.167 177.833,502.833 178.5,504.5C 179.127,509.141 179.46,513.807 179.5,518.5C 177.625,512.431 176.625,506.098 176.5,499.5 Z"/></g>
<g><path style="opacity:1" fill="#d4cbe5" d="M 765.5,557.5 C 764.508,564.982 764.175,572.648 764.5,580.5C 763.833,580.167 763.167,579.833 762.5,579.5C 762.5,572.833 762.5,566.167 762.5,559.5C 763.788,537.475 768.288,516.142 776,495.5C 782.091,480.144 790.591,466.311 801.5,454C 802.332,453.312 802.998,453.479 803.5,454.5C 779.197,484.356 766.53,518.69 765.5,557.5 Z"/></g>
<g><path style="opacity:1" fill="#c3b3df" d="M 103.5,515.5 C 102.701,518.43 102.368,521.43 102.5,524.5C 101.366,522.034 101.199,519.367 102,516.5C 102.383,515.944 102.883,515.611 103.5,515.5 Z"/></g>
<g><path style="opacity:1" fill="#dcd2ed" d="M 777.5,588.5 C 776.833,585.5 776.167,582.5 775.5,579.5C 775.5,578.167 775.5,576.833 775.5,575.5C 777.085,566.819 779.419,558.319 782.5,550C 792.46,530.371 805.793,513.371 822.5,499C 823.877,497.759 825.21,497.592 826.5,498.5C 811.995,510.503 799.828,524.503 790,540.5C 781.338,555.305 777.171,571.305 777.5,588.5 Z"/></g>
<g><path style="opacity:1" fill="#a185d3" d="M 149.5,524.5 C 151.277,527.505 152.277,530.838 152.5,534.5C 150.723,531.495 149.723,528.162 149.5,524.5 Z"/></g>
<g><path style="opacity:1" fill="#e0d8f0" d="M 155.5,537.5 C 155.41,540.152 156.076,542.485 157.5,544.5C 158.364,550.805 159.031,557.138 159.5,563.5C 159.5,566.833 159.5,570.167 159.5,573.5C 158.833,574.5 158.167,575.5 157.5,576.5C 157.885,562.206 156.219,548.206 152.5,534.5C 152.277,530.838 151.277,527.505 149.5,524.5C 139.301,522.177 128.967,520.51 118.5,519.5C 122.107,518.511 125.774,518.177 129.5,518.5C 132.974,519.525 136.64,520.192 140.5,520.5C 143.167,520.833 145.833,521.167 148.5,521.5C 143.647,502.959 134.98,486.459 122.5,472C 122.85,470.743 123.517,470.409 124.5,471C 140.602,490.376 150.935,512.542 155.5,537.5 Z"/></g>
<g><path style="opacity:1" fill="#ac93d7" d="M 129.5,518.5 C 133.489,518.116 137.155,518.783 140.5,520.5C 136.64,520.192 132.974,519.525 129.5,518.5 Z"/></g>
<g><path style="opacity:1" fill="#cbbee1" d="M 820.5,527.5 C 817.167,531.5 813.5,535.167 809.5,538.5C 812.167,533.833 815.833,530.167 820.5,527.5 Z"/></g>
<g><path style="opacity:1" fill="#b49ddc" d="M 155.5,537.5 C 156.924,539.515 157.59,541.848 157.5,544.5C 156.076,542.485 155.41,540.152 155.5,537.5 Z"/></g>
<g><path style="opacity:1" fill="#99a2a7" d="M 367.5,530.5 C 367.23,535.45 366.23,540.117 364.5,544.5C 364.77,539.55 365.77,534.883 367.5,530.5 Z"/></g>
<g><path style="opacity:1" fill="#adb5b8" d="M 386.5,537.5 C 386.549,544.849 386.882,552.183 387.5,559.5C 386.088,555.079 385.421,550.412 385.5,545.5C 385.503,542.645 385.836,539.978 386.5,537.5 Z"/></g>
<g><path style="opacity:1" fill="#b3a3cf" d="M 192.5,533.5 C 192.698,538.75 192.031,543.75 190.5,548.5C 190.444,543.269 191.111,538.269 192.5,533.5 Z"/></g>
<g><path style="opacity:1" fill="#bdabdd" d="M 797.5,553.5 C 797.573,555.027 796.906,556.027 795.5,556.5C 795.427,554.973 796.094,553.973 797.5,553.5 Z"/></g>
<g><path style="opacity:1" fill="#9ea7ac" d="M 362.5,559.5 C 362.59,562.152 361.924,564.485 360.5,566.5C 360.41,563.848 361.076,561.515 362.5,559.5 Z"/></g>
<g><path style="opacity:1" fill="#bcc2c5" d="M 429.5,550.5 C 429.666,556.509 429.499,562.509 429,568.5C 428.802,570.382 428.302,572.048 427.5,573.5C 427.571,565.635 428.238,557.969 429.5,550.5 Z"/></g>
<g><path style="opacity:1" fill="#b09ad9" d="M 159.5,563.5 C 160.167,566.833 160.833,570.167 161.5,573.5C 160.833,574.833 160.167,574.833 159.5,573.5C 159.5,570.167 159.5,566.833 159.5,563.5 Z"/></g>
<g><path style="opacity:1" fill="#927abc" d="M 762.5,559.5 C 762.5,566.167 762.5,572.833 762.5,579.5C 761.508,579.672 760.842,579.338 760.5,578.5C 761.167,572.167 761.833,565.833 762.5,559.5 Z"/></g>
<g><path style="opacity:1" fill="#917abd" d="M 765.5,557.5 C 765.334,565.174 765.5,572.841 766,580.5C 766.717,581.044 767.217,581.711 767.5,582.5C 765.973,582.573 764.973,581.906 764.5,580.5C 764.175,572.648 764.508,564.982 765.5,557.5 Z"/></g>
<g><path style="opacity:1" fill="#849197" d="M 389.5,572.5 C 391.074,574.102 391.741,576.102 391.5,578.5C 389.926,576.898 389.259,574.898 389.5,572.5 Z"/></g>
<g><path style="opacity:1" fill="#c7b9e0" d="M 785.5,578.5 C 785.472,581.916 784.472,584.916 782.5,587.5C 782.69,584.145 783.69,581.145 785.5,578.5 Z"/></g>
<g><path style="opacity:1" fill="#b29bdc" d="M 775.5,575.5 C 775.5,576.833 775.5,578.167 775.5,579.5C 775.808,581.924 775.474,584.257 774.5,586.5C 773.893,586.376 773.56,586.043 773.5,585.5C 774.167,582.167 774.833,578.833 775.5,575.5 Z"/></g>
<g><path style="opacity:1" fill="#fca8a7" d="M 425.5,590.5 C 425.5,595.167 425.5,599.833 425.5,604.5C 424.304,610.97 423.638,617.637 423.5,624.5C 422.344,631.989 422.178,639.655 423,647.5C 423.383,648.056 423.883,648.389 424.5,648.5C 428.87,654.379 433.87,659.879 439.5,665C 445.639,669.637 451.639,674.47 457.5,679.5C 457.082,680.222 456.416,680.722 455.5,681C 447.072,682.642 439.405,680.975 432.5,676C 425.109,670.277 417.443,664.944 409.5,660C 405.331,655.815 402.664,650.982 401.5,645.5C 401.311,630.426 399.311,615.76 395.5,601.5C 395.5,599.5 395.5,597.5 395.5,595.5C 406.08,596.76 416.08,595.093 425.5,590.5 Z"/></g>
<g><path style="opacity:1" fill="#adb4b8" d="M 355.5,594.5 C 354.886,598.135 354.552,601.802 354.5,605.5C 353.833,606.5 353.167,607.5 352.5,608.5C 352.265,603.454 353.265,598.787 355.5,594.5 Z"/></g>
<g><path style="opacity:1" fill="#dfdfdf" d="M 395.5,601.5 C 399.311,615.76 401.311,630.426 401.5,645.5C 397.882,653.348 396.716,661.682 398,670.5C 402.892,676.197 409.059,679.697 416.5,681C 423.092,685.785 429.758,690.285 436.5,694.5C 442.778,698.354 449.444,699.354 456.5,697.5C 457.833,697.5 459.167,697.5 460.5,697.5C 462.967,697.245 464.967,696.245 466.5,694.5C 467.458,693.038 468.624,691.705 470,690.5C 470.667,689.167 470.667,687.833 470,686.5C 465.725,684.281 461.559,681.948 457.5,679.5C 451.639,674.47 445.639,669.637 439.5,665C 433.87,659.879 428.87,654.379 424.5,648.5C 423.563,640.555 423.23,632.555 423.5,624.5C 423.638,617.637 424.304,610.97 425.5,604.5C 425.5,606.167 425.5,607.833 425.5,609.5C 450.729,614.185 473.729,624.019 494.5,639C 521.644,662.064 525.477,688.564 506,718.5C 500.866,722.633 496.032,727.133 491.5,732C 466.936,749.082 439.602,759.082 409.5,762C 367.212,767.532 326.878,761.532 288.5,744C 273.55,736.716 261.383,726.216 252,712.5C 239.27,690.284 240.937,669.284 257,649.5C 274.366,631.403 295.2,619.403 319.5,613.5C 320.214,621.16 320.881,628.826 321.5,636.5C 322.249,647.484 322.583,658.484 322.5,669.5C 321.628,675.789 321.295,682.122 321.5,688.5C 319.73,697.422 319.23,706.422 320,715.5C 321.364,722.402 324.864,727.902 330.5,732C 335.395,734.394 339.895,733.894 344,730.5C 348.057,722.32 349.557,713.653 348.5,704.5C 347.495,696.798 347.495,689.132 348.5,681.5C 347.207,679.897 346.207,678.231 345.5,676.5C 344.922,673.72 344.255,671.053 343.5,668.5C 343.384,661.126 343.884,653.792 345,646.5C 348.39,634.38 350.557,622.047 351.5,609.5C 351.5,608.833 351.833,608.5 352.5,608.5C 353.167,607.5 353.833,606.5 354.5,605.5C 367.971,605.625 381.638,605.625 395.5,605.5C 395.5,604.167 395.5,602.833 395.5,601.5 Z"/></g>
<g><path style="opacity:1" fill="#fca7a6" d="M 319.5,609.5 C 323.048,610.13 326.381,611.13 329.5,612.5C 334.368,613.213 339.368,613.879 344.5,614.5C 345.548,613.452 346.548,612.452 347.5,611.5C 348.514,610.326 349.847,609.66 351.5,609.5C 350.557,622.047 348.39,634.38 345,646.5C 343.884,653.792 343.384,661.126 343.5,668.5C 343.183,672.702 343.517,676.702 344.5,680.5C 344.667,691.172 344.5,701.839 344,712.5C 337.957,719.295 332.29,718.961 327,711.5C 324.896,707.078 324.063,702.412 324.5,697.5C 324.828,686.654 324.494,675.987 323.5,665.5C 323.666,658.159 323.5,650.826 323,643.5C 322.814,640.964 322.314,638.631 321.5,636.5C 320.881,628.826 320.214,621.16 319.5,613.5C 319.5,612.167 319.5,610.833 319.5,609.5 Z"/></g>
<g><path style="opacity:1" fill="#c99294" d="M 347.5,611.5 C 346.548,612.452 345.548,613.452 344.5,614.5C 339.368,613.879 334.368,613.213 329.5,612.5C 335.536,612.64 341.536,612.307 347.5,611.5 Z"/></g>
<g><path style="opacity:1" fill="#f1c3c2" d="M 423.5,624.5 C 423.23,632.555 423.563,640.555 424.5,648.5C 423.883,648.389 423.383,648.056 423,647.5C 422.178,639.655 422.344,631.989 423.5,624.5 Z"/></g>
<g><path style="opacity:1" fill="#2a363c" d="M 401.5,645.5 C 402.664,650.982 405.331,655.815 409.5,660C 417.443,664.944 425.109,670.277 432.5,676C 439.405,680.975 447.072,682.642 455.5,681C 456.416,680.722 457.082,680.222 457.5,679.5C 461.559,681.948 465.725,684.281 470,686.5C 470.667,687.833 470.667,689.167 470,690.5C 468.624,691.705 467.458,693.038 466.5,694.5C 464.033,694.755 462.033,695.755 460.5,697.5C 459.167,697.5 457.833,697.5 456.5,697.5C 452.818,697.665 449.152,697.499 445.5,697C 442.647,695.57 439.647,694.737 436.5,694.5C 429.758,690.285 423.092,685.785 416.5,681C 409.059,679.697 402.892,676.197 398,670.5C 396.716,661.682 397.882,653.348 401.5,645.5 Z"/></g>
<g><path style="opacity:1" fill="#e5cbcb" d="M 321.5,636.5 C 322.314,638.631 322.814,640.964 323,643.5C 323.5,650.826 323.666,658.159 323.5,665.5C 323.768,667.099 323.434,668.432 322.5,669.5C 322.583,658.484 322.249,647.484 321.5,636.5 Z"/></g>
<g><path style="opacity:1" fill="#7d6a6e" d="M 343.5,668.5 C 344.255,671.053 344.922,673.72 345.5,676.5C 345.5,677.5 345.5,678.5 345.5,679.5C 344.833,679.5 344.5,679.833 344.5,680.5C 343.517,676.702 343.183,672.702 343.5,668.5 Z"/></g>
<g><path style="opacity:1" fill="#bac0c2" d="M 345.5,676.5 C 346.207,678.231 347.207,679.897 348.5,681.5C 347.495,689.132 347.495,696.798 348.5,704.5C 346.929,696.374 345.929,688.041 345.5,679.5C 345.5,678.5 345.5,677.5 345.5,676.5 Z"/></g>
<g><path style="opacity:1" fill="#827a7e" d="M 323.5,665.5 C 324.494,675.987 324.828,686.654 324.5,697.5C 323.673,692.015 323.173,686.348 323,680.5C 322.817,683.365 322.317,686.031 321.5,688.5C 321.295,682.122 321.628,675.789 322.5,669.5C 323.434,668.432 323.768,667.099 323.5,665.5 Z"/></g>
<g><path style="opacity:1" fill="#687379" d="M 436.5,694.5 C 439.647,694.737 442.647,695.57 445.5,697C 449.152,697.499 452.818,697.665 456.5,697.5C 449.444,699.354 442.778,698.354 436.5,694.5 Z"/></g>
<g><path style="opacity:1" fill="#858f93" d="M 466.5,694.5 C 464.967,696.245 462.967,697.245 460.5,697.5C 462.033,695.755 464.033,694.755 466.5,694.5 Z"/></g>
<g><path style="opacity:1" fill="#2c373d" d="M 345.5,679.5 C 345.929,688.041 346.929,696.374 348.5,704.5C 349.557,713.653 348.057,722.32 344,730.5C 339.895,733.894 335.395,734.394 330.5,732C 324.864,727.902 321.364,722.402 320,715.5C 319.23,706.422 319.73,697.422 321.5,688.5C 322.317,686.031 322.817,683.365 323,680.5C 323.173,686.348 323.673,692.015 324.5,697.5C 324.063,702.412 324.896,707.078 327,711.5C 332.29,718.961 337.957,719.295 344,712.5C 344.5,701.839 344.667,691.172 344.5,680.5C 344.5,679.833 344.833,679.5 345.5,679.5 Z"/></g>
</svg>
