<svg width="29" height="55" viewBox="0 0 29 55" fill="none" xmlns="http://www.w3.org/2000/svg">
<g clip-path="url(#clip0_1_2371)">
<path d="M12.4176 55C22.4717 33.0578 -6.92494 15.4715 8.06813 0C0.195599 13.7005 32.1292 35.42 12.4176 55Z" fill="#2E94C0"/>
<path d="M17.7885 3.2533C16.2322 1.95805 13.7228 2.53554 12.1802 4.54304C10.6376 6.55054 10.6542 9.21805 12.2105 10.5188C13.7668 11.8195 16.2762 11.2365 17.8188 9.22905C19.3613 7.22155 19.3448 4.54855 17.7885 3.2533Z" fill="#2E94C0"/>
<path d="M12.9688 16.8685C15.8721 13.277 23.987 9.25929 29.0058 11.429C25.8546 11.5858 17.9628 16.819 14.9575 20.6278C14.7262 20.2648 12.9688 16.8685 12.9688 16.8685Z" fill="#2E4DA1"/>
<path d="M1.07184 12.4244C0.0746905 15.4164 -1.19791 22.1622 2.30589 29.7274C6.57545 38.9454 9.42366 40.5267 11.9 49.9894C12.9688 33.3272 3.2507 26.0782 1.07184 12.4244Z" fill="#2E4DA1"/>
</g>
<defs>
<clipPath id="clip0_1_2371">
<rect width="29" height="55" fill="white"/>
</clipPath>
</defs>
</svg>
