<svg width="237" height="23" viewBox="0 0 237 23" fill="none" xmlns="http://www.w3.org/2000/svg">
<g id="text 1" clip-path="url(#clip0_1_2351)">
<path id="Vector" d="M4.60355 10.0644H3.41092V15.3915C3.45712 15.9489 3.28955 16.5031 2.94135 16.9445C2.78251 17.1117 2.58882 17.243 2.37361 17.3293C2.1584 17.4156 1.92679 17.4548 1.69471 17.4444C1.46063 17.4554 1.22705 17.4144 1.01126 17.3243C0.795463 17.2342 0.602978 17.0974 0.448058 16.924C0.119375 16.4832 -0.0396902 15.9414 -0.000734006 15.3956V2.62707C-0.0532228 2.05873 0.124562 1.49301 0.493769 1.05354C0.939436 0.689468 1.51313 0.514154 2.08948 0.565913H7.63705C8.29351 0.561128 8.94971 0.592598 9.6026 0.660165C10.1103 0.714881 10.6064 0.846165 11.0736 1.04944C11.5998 1.26598 12.0761 1.58517 12.474 1.98782C12.8798 2.39314 13.1954 2.87741 13.4007 3.40973C13.6136 3.95765 13.7207 4.53996 13.7165 5.12668C13.7734 6.2166 13.3911 7.28451 12.6527 8.09753C11.7617 8.92767 10.6382 9.47447 9.42807 9.66695C10.0882 10.0267 10.6756 10.5032 11.1609 11.0725C11.7096 11.6875 12.2032 12.3484 12.6361 13.0476C13.02 13.653 13.3575 14.2858 13.6459 14.9407C13.8295 15.3053 13.9516 15.697 14.0074 16.1004C14.0024 16.3332 13.9287 16.5596 13.7955 16.7519C13.6517 16.9701 13.4507 17.1457 13.2137 17.26C12.9554 17.386 12.6708 17.4506 12.3826 17.4485C12.0411 17.4596 11.7045 17.3666 11.4185 17.1822C11.1533 17.0019 10.9249 16.7739 10.7454 16.5102C10.5584 16.2397 10.3049 15.8381 9.98075 15.3095L8.59697 13.0681C8.21904 12.4025 7.77945 11.7729 7.28384 11.1872C6.96385 10.8075 6.56022 10.5048 6.10368 10.3021C5.6227 10.1326 5.11415 10.0521 4.60355 10.0644ZM6.55247 3.0983H3.40677V7.66317H6.46105C7.15967 7.67687 7.85737 7.60669 8.5388 7.45419C9.02992 7.35271 9.47707 7.10362 9.81869 6.74119C10.1349 6.34475 10.2918 5.84722 10.2592 5.34386C10.2689 4.90787 10.1443 4.47923 9.9018 4.11454C9.66149 3.75871 9.3163 3.4841 8.91279 3.32777C8.14541 3.11696 7.34722 3.0366 6.55247 3.09011V3.0983Z" fill="#234CA1"/>
<path id="Vector_2" d="M19.0485 0.565927H23.4948C24.496 0.549473 25.4954 0.655463 26.4702 0.881459C27.3061 1.09537 28.0782 1.50275 28.7224 2.0698C30.4761 3.54771 31.3529 5.79736 31.3529 8.81875C31.3615 9.73512 31.2723 10.6498 31.0869 11.5478C30.9229 12.3259 30.6428 13.0758 30.2558 13.7729C29.8857 14.4361 29.4085 15.0354 28.8429 15.5472C28.4019 15.9399 27.9031 16.2646 27.3636 16.5102C26.8131 16.7553 26.2317 16.9262 25.6349 17.0183C24.9474 17.1216 24.2526 17.1709 23.5572 17.1658H19.1191C18.6357 17.1948 18.1529 17.0988 17.7187 16.8872C17.417 16.7166 17.1959 16.4352 17.1037 16.1045C16.9965 15.6771 16.9476 15.2375 16.9583 14.7973V2.62299C16.9058 2.05466 17.0835 1.48893 17.4528 1.04945C17.8995 0.687645 18.4728 0.513931 19.0485 0.565927ZM20.3699 3.22534V14.4941H22.9546C23.5198 14.4941 23.9644 14.4941 24.2885 14.449C24.6292 14.4153 24.9643 14.3396 25.2859 14.2236C25.6147 14.1113 25.9192 13.939 26.1834 13.7155C27.3276 12.7648 27.8983 11.1258 27.8955 8.79825C27.8955 7.15916 27.6448 5.92984 27.1434 5.1103C26.7475 4.37881 26.0853 3.82242 25.29 3.55317C24.4235 3.31336 23.5261 3.20015 22.6263 3.21715H20.3699V3.22534Z" fill="#234CA1"/>
<path id="Vector_3" d="M47.1441 12.1956C47.1575 13.1536 46.8843 14.0942 46.3588 14.9001C45.7925 15.7338 44.9927 16.3873 44.0566 16.7809C42.9218 17.2593 41.6959 17.4913 40.4621 17.4611C39.0328 17.5155 37.6145 17.1945 36.3523 16.5309C35.5951 16.092 34.9554 15.4809 34.4865 14.7484C34.0414 14.1086 33.7919 13.3563 33.7676 12.5807C33.7659 12.3834 33.8045 12.1877 33.881 12.0053C33.9576 11.823 34.0705 11.6577 34.2132 11.5193C34.3559 11.3809 34.5254 11.2722 34.7116 11.1997C34.8977 11.1272 35.0968 11.0924 35.2969 11.0974C35.6348 11.0897 35.9625 11.2116 36.2111 11.4375C36.4982 11.7212 36.7157 12.0661 36.8469 12.4455C37.0276 12.9107 37.2604 13.3547 37.5408 13.7691C37.8114 14.1435 38.1729 14.445 38.5922 14.646C39.1492 14.8972 39.7586 15.0152 40.3707 14.9902C41.2471 15.0286 42.1123 14.784 42.8349 14.2936C43.1254 14.103 43.3639 13.8448 43.5291 13.5418C43.6944 13.2387 43.7814 12.9002 43.7824 12.5562C43.7924 12.3098 43.7523 12.064 43.6645 11.8332C43.5768 11.6024 43.443 11.3912 43.2712 11.2121C42.9005 10.8499 42.4475 10.5801 41.9498 10.4253C41.3957 10.245 40.6741 10.0524 39.7848 9.84756C38.7414 9.62265 37.7237 9.29454 36.7471 8.86821C35.9783 8.53075 35.3102 8.0045 34.8065 7.33975C34.3099 6.63546 34.0578 5.79167 34.0876 4.93439C34.0744 4.06488 34.339 3.21331 34.8439 2.50034C35.3971 1.75428 36.1599 1.18444 37.038 0.861253C38.1163 0.457869 39.2634 0.263096 40.4164 0.287574C41.325 0.269252 42.2304 0.397987 43.0967 0.668659C43.7813 0.885748 44.4184 1.22769 44.975 1.6767C45.4258 2.03934 45.7975 2.48816 46.0679 2.99616C46.2865 3.4134 46.4045 3.87475 46.4128 4.34432C46.4169 4.74358 46.2686 5.12977 45.9972 5.42612C45.8658 5.57951 45.7015 5.70212 45.516 5.78505C45.3306 5.86798 45.1287 5.90914 44.9251 5.90555C44.6022 5.92741 44.2833 5.82455 44.0358 5.61872C43.7689 5.3375 43.5462 5.01844 43.3751 4.67214C43.1163 4.10106 42.7349 3.59216 42.2573 3.18057C41.8279 2.82816 41.1353 2.65196 40.1796 2.65196C39.4252 2.61517 38.6786 2.81609 38.0478 3.22563C37.8029 3.36759 37.5984 3.56821 37.4531 3.80889C37.3078 4.04958 37.2265 4.32254 37.2167 4.60248C37.2091 4.91133 37.3056 5.21394 37.491 5.463C37.6944 5.7221 37.9524 5.9346 38.2473 6.08585C38.5578 6.2548 38.885 6.39211 39.2238 6.49562C39.5521 6.59397 40.0964 6.73739 40.8527 6.92589C41.7238 7.12331 42.5837 7.3654 43.4291 7.65118C44.1263 7.88111 44.7878 8.20518 45.3947 8.61415C45.9214 8.98613 46.3491 9.47818 46.6413 10.0484C46.9844 10.7128 47.1571 11.4501 47.1441 12.1956Z" fill="#234CA1"/>
<path id="Vector_4" d="M62.4528 10.6996H59.3279V15.3997C59.3671 15.9507 59.195 16.4962 58.8458 16.9281C58.6875 17.0921 58.497 17.2227 58.2859 17.3119C58.0748 17.4012 57.8475 17.4472 57.6179 17.4472C57.3882 17.4472 57.161 17.4012 56.9499 17.3119C56.7388 17.2227 56.5483 17.0921 56.3899 16.9281C56.0474 16.4996 55.8799 15.9602 55.9204 15.416V2.62296C55.8919 2.33794 55.923 2.05021 56.0116 1.77748C56.1002 1.50475 56.2445 1.25278 56.4356 1.03713C56.9033 0.681854 57.4889 0.512258 58.0771 0.561791H62.4528C63.4575 0.530691 64.4621 0.629885 65.4406 0.856828C66.1009 1.03147 66.712 1.35242 67.2274 1.79521C67.7299 2.23571 68.1212 2.78573 68.3702 3.40152C68.64 4.08277 68.7726 4.80929 68.7608 5.54053C68.7608 7.23153 68.2331 8.51275 67.1776 9.3842C66.1138 10.2652 64.543 10.6996 62.4528 10.6996ZM61.6217 3.09009H59.3237V8.16308H61.6217C62.3024 8.17969 62.9818 8.09542 63.6371 7.91311C64.132 7.78096 64.5697 7.49323 64.8838 7.09356C65.1797 6.65569 65.3253 6.13576 65.2993 5.61019C65.3282 4.95131 65.0922 4.30782 64.6427 3.81949C64.1565 3.33595 63.1468 3.09009 61.6259 3.09009H61.6217Z" fill="#234CA1"/>
<path id="Vector_5" d="M74.4999 12.9902V15.5718C74.54 16.0811 74.3792 16.586 74.0511 16.9814C73.9061 17.1351 73.7296 17.2566 73.5332 17.3379C73.3369 17.4191 73.1253 17.4582 72.9125 17.4526C72.7029 17.4582 72.4947 17.4186 72.3023 17.3365C72.1099 17.2544 71.9381 17.1318 71.7988 16.9773C71.4821 16.5781 71.3266 16.0774 71.3625 15.5718V6.96654C71.3625 5.57878 71.8722 4.88353 72.8917 4.8808C73.1058 4.86229 73.3213 4.89726 73.5181 4.98248C73.7149 5.0677 73.8868 5.20044 74.0178 5.36843C74.2793 5.80296 74.4104 6.30169 74.396 6.80673C74.6942 6.2653 75.0851 5.77871 75.5512 5.36843C76.0021 5.02594 76.5619 4.85306 77.1303 4.8808C77.8012 4.88508 78.4606 5.05258 79.0501 5.36843C79.3152 5.4719 79.5441 5.64887 79.7093 5.87794C79.8745 6.10702 79.9689 6.37838 79.981 6.65921C79.9862 6.83365 79.9537 7.00718 79.8856 7.16827C79.8176 7.32936 79.7155 7.47431 79.5862 7.59349C79.3601 7.82118 79.0532 7.95342 78.7302 7.96229C78.4462 7.92276 78.1675 7.85268 77.8991 7.75331C77.523 7.6249 77.1292 7.55441 76.7314 7.54432C76.3249 7.52673 75.9254 7.65319 75.6052 7.90082C75.2847 8.18473 75.0503 8.55068 74.9279 8.95804C74.752 9.50079 74.6404 10.0618 74.5955 10.6299C74.529 11.2732 74.4999 12.06 74.4999 12.9902Z" fill="#234CA1"/>
<path id="Vector_6" d="M89.854 11.9248H83.7205C83.7095 12.5671 83.8518 13.203 84.136 13.7811C84.3807 14.2872 84.7671 14.7138 85.2497 15.0104C85.7123 15.2846 86.2433 15.4265 86.7831 15.4202C87.131 15.4229 87.4778 15.3788 87.8136 15.289C88.1339 15.1994 88.4382 15.0612 88.7154 14.8792C88.9979 14.7001 89.2673 14.5016 89.5215 14.2851C89.7667 14.0761 90.0825 13.7852 90.4731 13.4246C90.6708 13.277 90.9155 13.2043 91.1629 13.2197C91.4477 13.2061 91.727 13.2998 91.9442 13.4819C92.0464 13.5753 92.1263 13.6899 92.178 13.8175C92.2298 13.9451 92.2521 14.0824 92.2434 14.2195C92.2192 14.5686 92.1047 14.9058 91.9109 15.1989C91.6482 15.6178 91.3069 15.9836 90.9053 16.2766C90.3945 16.6516 89.8245 16.941 89.2182 17.133C88.4622 17.3708 87.672 17.4856 86.8786 17.4731C84.8618 17.4731 83.2966 16.9063 82.1829 15.7726C81.0693 14.6389 80.5152 13.1022 80.5207 11.1626C80.5141 10.2975 80.6545 9.4373 80.9363 8.61793C81.1904 7.87134 81.601 7.18583 82.1414 6.60595C82.6846 6.03607 83.3526 5.596 84.0945 5.31927C84.9157 5.01214 85.7884 4.86061 86.6667 4.87262C87.7691 4.84122 88.8593 5.1061 89.8207 5.63889C90.6522 6.10204 91.3347 6.78648 91.7904 7.61399C92.2124 8.36728 92.438 9.21211 92.447 10.0726C92.447 10.8512 92.2226 11.3552 91.7696 11.5847C91.1667 11.8439 90.5107 11.9604 89.854 11.9248ZM83.7205 10.1669H89.4052C89.4029 9.30071 89.096 8.46217 88.5367 7.7943C88.2816 7.53224 87.973 7.32659 87.6313 7.19095C87.2896 7.05532 86.9226 6.9928 86.5545 7.00753C86.1927 6.99824 85.8332 7.06675 85.5009 7.20827C85.1687 7.3498 84.8717 7.56095 84.6305 7.82707C84.079 8.48969 83.7597 9.31051 83.7205 10.1669Z" fill="#234CA1"/>
<path id="Vector_7" d="M106.323 13.6213C106.309 14.0528 106.189 14.4746 105.974 14.8506C105.704 15.3323 105.341 15.757 104.906 16.1004C104.37 16.5295 103.757 16.8536 103.098 17.0551C102.303 17.3065 101.472 17.4283 100.638 17.4157C98.6986 17.4157 97.186 16.8585 96.1001 15.7439C95.0072 14.6293 94.4711 13.1377 94.4711 11.2651C94.4485 10.1017 94.7033 8.94932 95.215 7.90083C95.6909 6.95132 96.4452 6.16472 97.38 5.64299C98.4144 5.08609 99.5803 4.81031 100.758 4.84393C101.518 4.83633 102.274 4.95549 102.994 5.19634C103.616 5.40161 104.199 5.70767 104.719 6.10193C105.149 6.42818 105.515 6.82957 105.799 7.28617C106.027 7.63708 106.156 8.04163 106.173 8.45813C106.176 8.6348 106.141 8.81007 106.069 8.972C105.997 9.13394 105.891 9.27874 105.757 9.39651C105.482 9.65137 105.117 9.78965 104.739 9.78168C104.507 9.79078 104.278 9.7214 104.091 9.585C103.869 9.3987 103.673 9.18368 103.509 8.94576C103.196 8.44419 102.788 8.00612 102.308 7.65498C101.7 7.28587 100.976 7.14722 100.271 7.26479C99.5662 7.38236 98.9288 7.74815 98.477 8.29422C97.8744 9.14968 97.5817 10.1803 97.6459 11.22C97.639 11.7618 97.7133 12.3017 97.8662 12.8222C97.9965 13.2675 98.2108 13.6845 98.4978 14.0515C98.7625 14.3868 99.1044 14.6551 99.4951 14.8342C99.8998 15.0142 100.339 15.1051 100.783 15.1005C101.352 15.1156 101.912 14.966 102.396 14.6703C102.892 14.331 103.299 13.8801 103.584 13.3549C103.742 13.0492 103.951 12.7721 104.203 12.5354C104.431 12.3339 104.729 12.228 105.034 12.2403C105.216 12.2365 105.395 12.2733 105.56 12.3478C105.725 12.4223 105.871 12.5327 105.986 12.6706C106.212 12.9362 106.332 13.2744 106.323 13.6213Z" fill="#234CA1"/>
<path id="Vector_8" d="M110.644 3.44274C110.233 3.44958 109.834 3.30328 109.527 3.03297C109.369 2.89215 109.245 2.71814 109.164 2.5238C109.084 2.32947 109.048 2.11976 109.061 1.91018C109.055 1.70629 109.095 1.5036 109.177 1.3166C109.26 1.12959 109.383 0.962882 109.539 0.82839C109.842 0.557541 110.239 0.410995 110.648 0.418618C111.044 0.414108 111.428 0.550934 111.729 0.803805C111.889 0.942894 112.015 1.1165 112.096 1.31119C112.178 1.50589 112.213 1.71645 112.198 1.92658C112.21 2.13445 112.175 2.34228 112.095 2.53503C112.015 2.72779 111.893 2.90066 111.737 3.04116C111.437 3.30621 111.047 3.44966 110.644 3.44274ZM112.194 6.63486V15.572C112.232 16.0797 112.071 16.5824 111.746 16.9775C111.601 17.1324 111.425 17.255 111.229 17.337C111.032 17.419 110.82 17.4585 110.607 17.4528C110.395 17.4593 110.185 17.4188 109.992 17.3344C109.798 17.25 109.627 17.1238 109.489 16.9652C109.183 16.5664 109.035 16.0709 109.074 15.572V6.72501C109.032 6.22961 109.18 5.73676 109.489 5.34408C109.63 5.19127 109.803 5.07066 109.996 4.99068C110.189 4.9107 110.398 4.87328 110.607 4.88103C110.819 4.8754 111.03 4.91371 111.226 4.99347C111.422 5.07323 111.599 5.19266 111.746 5.34408C112.062 5.69929 112.223 6.16311 112.194 6.63486Z" fill="#234CA1"/>
<path id="Vector_9" d="M125.525 13.4246C125.563 14.207 125.339 14.9799 124.889 15.6251C124.438 16.2704 123.786 16.7525 123.032 16.9978C122.068 17.3338 121.05 17.4934 120.028 17.469C119.033 17.4948 118.044 17.322 117.119 16.9609C116.422 16.6993 115.808 16.2595 115.34 15.6865C114.984 15.2498 114.783 14.7101 114.767 14.1499C114.764 13.9875 114.795 13.8262 114.858 13.6761C114.921 13.526 115.014 13.3902 115.132 13.2771C115.254 13.1569 115.399 13.0628 115.56 13.0007C115.72 12.9386 115.891 12.91 116.063 12.9165C116.337 12.8974 116.608 12.9824 116.82 13.1541C117.023 13.3495 117.194 13.5748 117.327 13.8221C117.601 14.3212 117.998 14.744 118.482 15.0514C119.043 15.3502 119.677 15.4919 120.314 15.4612C120.86 15.4841 121.4 15.341 121.86 15.0514C122.034 14.9567 122.18 14.8202 122.285 14.6547C122.391 14.4892 122.452 14.3 122.463 14.1048C122.479 13.8689 122.43 13.6331 122.319 13.4234C122.208 13.2137 122.041 13.0383 121.835 12.9165C121.181 12.5815 120.481 12.3414 119.758 12.2035C118.859 12.0002 117.977 11.7261 117.123 11.3839C116.498 11.1308 115.942 10.738 115.498 10.2366C115.087 9.74404 114.871 9.12061 114.891 8.48273C114.894 7.85557 115.089 7.24393 115.452 6.72891C115.868 6.14259 116.445 5.68498 117.115 5.40944C117.951 5.06111 118.854 4.89344 119.762 4.91771C120.498 4.90819 121.233 4.9922 121.947 5.16768C122.52 5.3035 123.068 5.52901 123.568 5.83561C123.959 6.07599 124.295 6.39252 124.557 6.76579C124.767 7.05776 124.885 7.40392 124.898 7.76153C124.904 7.92397 124.875 8.08579 124.812 8.23626C124.75 8.38673 124.656 8.52242 124.536 8.63435C124.252 8.87528 123.884 8.99732 123.51 8.97447C123.209 8.98377 122.915 8.88798 122.679 8.70401C122.392 8.45792 122.131 8.18329 121.902 7.88447C121.677 7.58992 121.394 7.34321 121.071 7.15916C120.665 6.95984 120.214 6.86671 119.762 6.88871C119.266 6.87041 118.775 6.99425 118.349 7.24523C118.184 7.33133 118.045 7.45898 117.947 7.61518C117.848 7.77138 117.793 7.95054 117.788 8.13443C117.783 8.29432 117.818 8.45297 117.89 8.59606C117.963 8.73914 118.071 8.86215 118.203 8.95397C118.54 9.19162 118.917 9.3666 119.317 9.47029C119.782 9.60551 120.427 9.77352 121.245 9.97021C122.071 10.1467 122.872 10.4219 123.63 10.7898C124.182 11.0603 124.662 11.4547 125.031 11.9412C125.352 12.371 125.525 12.8908 125.525 13.4246Z" fill="#234CA1"/>
<path id="Vector_10" d="M129.763 3.44274C129.352 3.44958 128.953 3.30328 128.646 3.03297C128.488 2.89215 128.364 2.71814 128.283 2.5238C128.203 2.32947 128.168 2.11976 128.18 1.91018C128.174 1.70629 128.214 1.5036 128.297 1.3166C128.379 1.12959 128.503 0.962882 128.658 0.82839C128.962 0.557541 129.358 0.410995 129.768 0.418618C130.163 0.414108 130.547 0.550934 130.848 0.803805C131.008 0.942894 131.134 1.1165 131.216 1.31119C131.297 1.50589 131.332 1.71645 131.318 1.92658C131.329 2.13445 131.294 2.34228 131.214 2.53503C131.134 2.72779 131.012 2.90066 130.856 3.04116C130.557 3.30656 130.166 3.45007 129.763 3.44274ZM131.313 6.63486V15.572C131.351 16.0797 131.19 16.5824 130.865 16.9775C130.72 17.1324 130.544 17.255 130.348 17.337C130.151 17.419 129.939 17.4585 129.726 17.4528C129.515 17.4593 129.304 17.4188 129.111 17.3344C128.917 17.25 128.746 17.1238 128.608 16.9652C128.302 16.5664 128.154 16.0709 128.193 15.572V6.72501C128.151 6.22961 128.299 5.73676 128.608 5.34408C128.749 5.19127 128.922 5.07066 129.115 4.99068C129.308 4.9107 129.517 4.87328 129.726 4.88103C129.938 4.8754 130.149 4.91371 130.345 4.99347C130.541 5.07323 130.718 5.19266 130.865 5.34408C131.181 5.69929 131.342 6.16311 131.313 6.63486Z" fill="#234CA1"/>
<path id="Vector_11" d="M146.29 11.1667C146.299 12.0351 146.151 12.8982 145.854 13.7155C145.585 14.4593 145.156 15.1372 144.598 15.7029C144.039 16.2686 143.363 16.7089 142.616 16.9936C141.791 17.3026 140.914 17.4542 140.032 17.4403C139.157 17.454 138.287 17.2995 137.472 16.9855C136.731 16.6933 136.061 16.2523 135.502 15.6906C134.948 15.1215 134.523 14.4426 134.256 13.6991C133.677 12.0423 133.677 10.242 134.256 8.58512C134.523 7.84144 134.948 7.1625 135.502 6.59362C136.06 6.03458 136.733 5.60002 137.476 5.31924C139.137 4.71943 140.96 4.71943 142.621 5.31924C143.369 5.60302 144.046 6.04284 144.607 6.60862C145.167 7.1744 145.596 7.8528 145.866 8.59742C146.164 9.42138 146.308 10.292 146.29 11.1667ZM143.144 11.1667C143.211 10.1204 142.918 9.08233 142.313 8.22042C142.047 7.87964 141.702 7.60634 141.308 7.42319C140.913 7.24003 140.48 7.15232 140.044 7.16732C139.468 7.15667 138.902 7.32119 138.424 7.63855C137.93 7.98426 137.554 8.46825 137.343 9.02767C136.842 10.4038 136.842 11.9091 137.343 13.2852C137.556 13.84 137.927 14.3223 138.411 14.6743C138.892 14.9996 139.465 15.1673 140.048 15.1538C140.485 15.1683 140.918 15.0799 141.313 14.8961C141.707 14.7122 142.052 14.4381 142.317 14.0966C142.918 13.2391 143.21 12.2071 143.144 11.1667Z" fill="#234CA1"/>
<path id="Vector_12" d="M151.609 6.58951V6.96241C152.086 6.31022 152.703 5.77008 153.416 5.38068C154.116 5.03438 154.89 4.86139 155.673 4.87667C156.445 4.86253 157.208 5.04606 157.888 5.40936C158.523 5.74712 159.034 6.27511 159.346 6.91732C159.559 7.29888 159.7 7.71542 159.762 8.14664C159.83 8.70265 159.861 9.26256 159.853 9.82261V15.5594C159.895 16.0624 159.747 16.5629 159.438 16.9649C159.297 17.1205 159.124 17.2438 158.93 17.3259C158.736 17.4081 158.527 17.4471 158.316 17.4403C158.101 17.4469 157.888 17.4066 157.691 17.3223C157.494 17.238 157.319 17.1117 157.177 16.9526C156.863 16.5567 156.708 16.0609 156.741 15.5594V10.4168C156.789 9.61559 156.646 8.81443 156.325 8.07699C156.048 7.53062 155.476 7.25744 154.609 7.25744C154.059 7.25448 153.522 7.42696 153.08 7.74916C152.611 8.08736 152.258 8.55937 152.07 9.10142C151.876 9.9479 151.8 10.8162 151.841 11.683V15.5553C151.882 16.0633 151.724 16.5674 151.401 16.9649C151.255 17.1192 151.078 17.241 150.881 17.3223C150.684 17.4036 150.472 17.4424 150.258 17.4362C150.048 17.4414 149.838 17.4004 149.646 17.316C149.453 17.2317 149.282 17.1062 149.145 16.9486C148.831 16.5526 148.675 16.0568 148.708 15.5553V6.62639C148.671 6.15428 148.81 5.68492 149.099 5.30692C149.233 5.16114 149.399 5.04657 149.583 4.97146C149.768 4.89635 149.967 4.86257 150.167 4.87256C150.429 4.87005 150.687 4.93653 150.915 5.06516C151.146 5.20343 151.332 5.4039 151.451 5.64294C151.579 5.94169 151.633 6.26611 151.609 6.58951Z" fill="#234CA1"/>
<path id="Vector_13" d="M176.255 17.1657H171.11C170.825 17.1932 170.537 17.1639 170.264 17.0794C169.99 16.9949 169.737 16.8571 169.519 16.674C169.161 16.2308 168.99 15.6688 169.041 15.1046V2.62293C168.987 2.05401 169.16 1.48693 169.523 1.0412C169.965 0.683027 170.532 0.510798 171.102 0.561763H176.558C177.253 0.555256 177.948 0.604598 178.636 0.709287C179.195 0.796619 179.733 0.988558 180.219 1.27478C180.62 1.50797 180.976 1.80897 181.27 2.16397C181.573 2.51649 181.811 2.91873 181.973 3.35232C182.139 3.79275 182.222 4.25933 182.218 4.72915C182.218 6.38873 181.387 7.59756 179.687 8.37612C181.906 9.07274 183.011 10.425 183.011 12.4288C183.024 13.3164 182.772 14.1881 182.288 14.9366C181.822 15.6663 181.14 16.2381 180.335 16.5757C179.768 16.8029 179.173 16.9531 178.565 17.0223C177.799 17.1235 177.027 17.1714 176.255 17.1657ZM172.452 3.09006V7.38038H175.577C176.243 7.40539 176.908 7.32515 177.547 7.14272C178.006 6.98685 178.387 6.66255 178.611 6.23711C178.803 5.91447 178.902 5.546 178.898 5.1717C178.898 4.33577 178.596 3.77848 177.992 3.49984C177.107 3.17989 176.165 3.04048 175.224 3.09006H172.452ZM176.001 9.79395H172.452V14.6538H176.118C178.425 14.6538 179.578 13.8343 179.575 12.1952C179.604 11.84 179.536 11.4836 179.378 11.163C179.22 10.8424 178.978 10.5692 178.677 10.3717C178.084 9.98653 177.192 9.79395 176.001 9.79395Z" fill="#234CA1"/>
<path id="Vector_14" d="M187.35 3.44274C186.939 3.44958 186.54 3.30328 186.233 3.03297C186.075 2.89215 185.951 2.71814 185.87 2.5238C185.79 2.32947 185.755 2.11976 185.767 1.91018C185.761 1.70629 185.801 1.5036 185.883 1.3166C185.966 1.12959 186.09 0.962882 186.245 0.82839C186.549 0.557541 186.945 0.410995 187.355 0.418618C187.75 0.414108 188.134 0.550934 188.435 0.803805C188.595 0.942894 188.721 1.1165 188.803 1.31119C188.884 1.50589 188.919 1.71645 188.905 1.92658C188.916 2.13445 188.881 2.34228 188.801 2.53503C188.721 2.72779 188.599 2.90066 188.443 3.04116C188.144 3.30656 187.753 3.45007 187.35 3.44274ZM188.9 6.63486V15.572C188.938 16.0797 188.777 16.5824 188.452 16.9775C188.307 17.1324 188.131 17.255 187.935 17.337C187.738 17.419 187.526 17.4585 187.313 17.4528C187.102 17.4593 186.891 17.4188 186.698 17.3344C186.504 17.25 186.333 17.1238 186.195 16.9652C185.889 16.5664 185.741 16.0709 185.78 15.572V6.72501C185.738 6.22961 185.886 5.73676 186.195 5.34408C186.336 5.19127 186.509 5.07066 186.702 4.99068C186.895 4.9107 187.104 4.87328 187.313 4.88103C187.525 4.8754 187.736 4.91371 187.932 4.99347C188.128 5.07323 188.305 5.19266 188.452 5.34408C188.768 5.69929 188.929 6.16311 188.9 6.63486Z" fill="#234CA1"/>
<path id="Vector_15" d="M192.137 15.5719V2.16411C192.101 1.66164 192.248 1.16286 192.553 0.758592C192.693 0.601246 192.868 0.476899 193.063 0.394651C193.259 0.312403 193.471 0.274337 193.683 0.283254C193.898 0.274814 194.111 0.312611 194.309 0.394001C194.508 0.47539 194.685 0.598409 194.83 0.75449C195.148 1.15473 195.303 1.65713 195.266 2.16411V15.5719C195.305 16.0796 195.147 16.583 194.826 16.9815C194.681 17.1362 194.504 17.2583 194.307 17.3396C194.109 17.4209 193.897 17.4595 193.683 17.4527C193.472 17.4591 193.262 17.4187 193.068 17.3343C192.875 17.2499 192.703 17.1237 192.565 16.9651C192.255 16.568 192.102 16.0723 192.137 15.5719Z" fill="#234CA1"/>
<path id="Vector_16" d="M198.504 15.5719V2.16411C198.467 1.66164 198.614 1.16286 198.919 0.758592C199.06 0.601246 199.234 0.476899 199.43 0.394651C199.625 0.312403 199.837 0.274337 200.049 0.283254C200.264 0.275091 200.477 0.313017 200.675 0.394388C200.874 0.47576 201.051 0.598629 201.196 0.75449C201.514 1.15473 201.67 1.65713 201.633 2.16411V15.5719C201.671 16.0796 201.514 16.583 201.192 16.9815C201.047 17.1362 200.87 17.2583 200.673 17.3396C200.476 17.4209 200.263 17.4595 200.049 17.4527C199.838 17.4591 199.628 17.4187 199.434 17.3343C199.241 17.2499 199.069 17.1237 198.932 16.9651C198.621 16.568 198.468 16.0723 198.504 15.5719Z" fill="#234CA1"/>
<path id="Vector_17" d="M206.47 3.44274C206.058 3.44958 205.659 3.30328 205.352 3.03297C205.194 2.89215 205.07 2.71814 204.989 2.5238C204.909 2.32947 204.874 2.11976 204.886 1.91018C204.88 1.70629 204.92 1.5036 205.003 1.3166C205.085 1.12959 205.209 0.962882 205.364 0.82839C205.668 0.557541 206.064 0.410995 206.474 0.418618C206.869 0.414108 207.253 0.550934 207.554 0.803805C207.715 0.942894 207.84 1.1165 207.922 1.31119C208.003 1.50589 208.038 1.71645 208.024 1.92658C208.035 2.13445 208 2.34228 207.92 2.53503C207.84 2.72779 207.718 2.90066 207.562 3.04116C207.263 3.30728 206.872 3.45089 206.47 3.44274ZM208.024 6.63486V15.572C208.061 16.0797 207.9 16.5824 207.575 16.9775C207.431 17.1324 207.254 17.255 207.058 17.337C206.861 17.419 206.65 17.4585 206.436 17.4528C206.225 17.4593 206.015 17.4188 205.821 17.3344C205.628 17.25 205.456 17.1238 205.318 16.9652C205.012 16.5664 204.864 16.0709 204.903 15.572V6.72501C204.861 6.22961 205.009 5.73676 205.318 5.34408C205.459 5.19127 205.632 5.07066 205.825 4.99068C206.019 4.9107 206.227 4.87328 206.436 4.88103C206.648 4.8754 206.859 4.91371 207.055 4.99347C207.252 5.07323 207.429 5.19266 207.575 5.34408C207.891 5.69929 208.052 6.16311 208.024 6.63486Z" fill="#234CA1"/>
<path id="Vector_18" d="M214.107 6.58951V6.96241C214.584 6.31022 215.201 5.77008 215.915 5.38068C216.614 5.03438 217.389 4.86139 218.171 4.87667C218.944 4.86253 219.707 5.04606 220.386 5.40936C221.022 5.74712 221.533 6.27511 221.845 6.91732C222.058 7.29888 222.198 7.71542 222.26 8.14664C222.329 8.70265 222.359 9.26256 222.352 9.82261V15.5594C222.393 16.0624 222.245 16.5629 221.936 16.9649C221.796 17.1205 221.623 17.2438 221.429 17.3259C221.235 17.4081 221.025 17.4471 220.814 17.4403C220.6 17.4469 220.386 17.4066 220.189 17.3223C219.993 17.238 219.817 17.1117 219.676 16.9526C219.369 16.5538 219.221 16.0583 219.26 15.5594V10.4168C219.308 9.61559 219.166 8.81443 218.844 8.07699C218.567 7.53062 217.995 7.25744 217.128 7.25744C216.578 7.25448 216.042 7.42696 215.599 7.74916C215.13 8.08736 214.778 8.55937 214.589 9.10142C214.396 9.9479 214.319 10.8162 214.361 11.683V15.5553C214.401 16.0633 214.243 16.5674 213.92 16.9649C213.775 17.1192 213.598 17.241 213.4 17.3223C213.203 17.4036 212.991 17.4424 212.777 17.4362C212.567 17.4414 212.358 17.4004 212.165 17.316C211.972 17.2317 211.801 17.1062 211.664 16.9486C211.357 16.5498 211.21 16.0542 211.248 15.5553V6.62639C211.211 6.15428 211.35 5.68492 211.639 5.30692C211.773 5.16114 211.939 5.04657 212.123 4.97146C212.308 4.89635 212.507 4.86257 212.707 4.87256C212.969 4.87005 213.227 4.93653 213.455 5.06516C213.686 5.20343 213.872 5.4039 213.991 5.64294C214.105 5.94505 214.144 6.26935 214.107 6.58951Z" fill="#234CA1"/>
<path id="Vector_19" d="M237 7.14273V16.1249C237.016 17.0197 236.904 17.9123 236.667 18.7762C236.475 19.4677 236.108 20.0995 235.599 20.6119C235.059 21.1232 234.397 21.4936 233.675 21.6897C232.711 21.9454 231.715 22.0641 230.716 22.042C229.728 22.06 228.744 21.9089 227.808 21.5954C227.071 21.3635 226.399 20.9682 225.842 20.4398C225.426 20.0641 225.178 19.541 225.152 18.9852C225.146 18.8128 225.178 18.641 225.245 18.4819C225.312 18.3227 225.414 18.1798 225.543 18.0632C225.798 17.8274 226.137 17.6994 226.486 17.7067C226.72 17.7101 226.95 17.7657 227.158 17.8693C227.367 17.9729 227.549 18.1219 227.691 18.3049C227.862 18.5098 228.032 18.7147 228.215 18.9237C228.389 19.1275 228.59 19.3068 228.813 19.4564C229.052 19.6133 229.318 19.7245 229.599 19.7842C229.945 19.859 230.299 19.8947 230.654 19.8907C231.312 19.9329 231.971 19.8235 232.578 19.5711C232.995 19.38 233.329 19.0488 233.521 18.6368C233.703 18.2298 233.81 17.7941 233.837 17.3502C233.866 16.8953 233.891 16.1577 233.908 15.1456C233.476 15.7671 232.908 16.2851 232.246 16.6617C231.551 17.0235 230.774 17.2027 229.989 17.1822C229.012 17.2033 228.051 16.9271 227.238 16.3913C226.432 15.837 225.805 15.0661 225.431 14.1703C224.994 13.1319 224.779 12.016 224.799 10.8921C224.787 10.0383 224.918 9.18823 225.186 8.37614C225.416 7.67754 225.789 7.03312 226.283 6.48299C226.742 5.97948 227.31 5.58334 227.945 5.32334C228.593 5.05894 229.288 4.92652 229.989 4.93405C230.788 4.91389 231.58 5.08694 232.296 5.43808C233.01 5.82923 233.63 6.36894 234.112 7.01979V6.61002C234.09 6.16346 234.238 5.72496 234.527 5.3807C234.656 5.23645 234.815 5.122 234.994 5.0455C235.173 4.96901 235.367 4.93236 235.562 4.93816C235.798 4.90753 236.039 4.94639 236.253 5.04989C236.468 5.15339 236.646 5.31692 236.767 5.52003C236.958 6.039 237.038 6.59175 237 7.14273ZM227.916 11.0642C227.916 12.3181 228.193 13.2661 228.747 13.9081C229.008 14.2194 229.337 14.468 229.71 14.6349C230.083 14.8018 230.49 14.8825 230.899 14.871C231.42 14.8715 231.931 14.7296 232.375 14.4613C232.859 14.1624 233.251 13.7369 233.505 13.2319C233.803 12.6004 233.946 11.9081 233.92 11.2118C233.989 10.1652 233.696 9.12658 233.089 8.26551C232.831 7.9286 232.495 7.6573 232.109 7.47415C231.723 7.29099 231.298 7.20125 230.87 7.21239C230.456 7.19915 230.044 7.28372 229.67 7.45907C229.296 7.63441 228.969 7.89544 228.718 8.22042C228.182 8.86786 227.916 9.82673 227.916 11.0642Z" fill="#234CA1"/>
</g>
<defs>
<clipPath id="clip0_1_2351">
<rect width="237" height="21.763" fill="white" transform="translate(0 0.279053)"/>
</clipPath>
</defs>
</svg>
